<svg width="374" height="357" viewBox="0 0 374 357" fill="none" xmlns="http://www.w3.org/2000/svg">
<g clip-path="url(#clip0_185_223)">
<path d="M140.281 60.2252C151.174 72.0196 163.407 62.2279 175.098 61.5215C180.52 61.1939 185.923 62.8926 191.26 64.1649C196.326 65.3725 201.371 67.12 205.995 70.0846C211.036 73.2034 215.315 78.0314 218.371 84.0478C218.977 85.2774 219.904 84.3748 219.902 82.9077C219.889 67.3287 214.638 68.5699 209.155 69.6976C203.944 70.7696 199.542 64.1176 194.409 62.6698C189.037 61.2596 183.606 60.2442 178.142 59.6283C172.22 58.85 166.281 58.3145 160.328 58.0219C153.652 57.6936 146.972 57.6711 140.289 57.9545C139.154 58.0019 139.14 60.2728 140.28 60.2251L140.281 60.2252Z" fill="#3F3D56"/>
<path d="M102.897 185.408C103.052 185.624 103.136 185.909 103.131 186.203C103.126 186.497 103.032 186.778 102.869 186.985C102.706 187.192 102.487 187.311 102.258 187.315C102.029 187.319 101.807 187.209 101.641 187.008C94.4434 179.025 87.2462 171.047 80.0489 163.074C80.0406 163.062 80.0307 163.052 80.0195 163.044C79.5194 162.558 79.0467 162.028 78.6048 161.456C71.8818 160.424 64.5015 157.065 57.5031 155.592C51.3139 156.749 45.1416 158.133 38.9353 159.153C33.5277 160.096 28.0779 160.576 22.622 160.588C18.1827 160.541 19.5238 145.935 15.5075 143.225C11.3324 140.408 2.90267 149.438 1.85163 143.773C1.33272 140.872 0.99911 137.922 0.854109 134.951L0.925759 116.49C1.52884 108.454 11.4879 110.973 16.244 105.382C23.3809 96.9933 25.8697 77.2583 34.9617 77.059C45.7969 76.8076 56.6319 77.459 67.3986 79.009C76.1783 80.2844 85.4122 81.5237 93.5178 86.3615C96.9941 88.4414 100.232 100.405 102.616 104.298C105.337 108.844 106.865 114.382 106.982 120.119C107.365 132.299 103.007 143.423 100.598 154.911C98.5076 164.857 97.3051 176.917 102.897 185.408Z" fill="#F2F2F2"/>
<path d="M80.866 164.244C88.1628 172.336 95.4606 180.427 102.759 188.516C102.926 188.717 103.148 188.827 103.377 188.823C103.606 188.819 103.826 188.7 103.989 188.493C104.152 188.285 104.246 188.005 104.251 187.711C104.256 187.416 104.172 187.131 104.016 186.915C98.425 178.43 99.6275 166.369 101.716 156.418C104.128 144.929 108.487 133.809 108.102 121.632C107.987 115.894 106.458 110.354 103.734 105.808C101.271 101.983 98.1443 98.9515 94.6033 96.9564C86.498 92.1186 77.2659 90.874 68.4822 89.6017C57.7169 88.0504 46.8832 87.3981 36.0493 87.6491C26.9545 87.8539 16.3159 88.0258 9.17942 96.4173C2.68013 104.059 1.74969 116.114 1.77076 126.759C1.78296 132.927 1.85054 139.262 2.96925 145.286C4.02086 150.948 6.32759 156.468 10.504 159.284C14.5211 161.993 19.3058 162.054 23.7409 162.098C29.1967 162.09 34.6466 161.609 40.0534 160.659C50.8744 158.885 61.5964 155.993 72.5012 155.149C75.1697 154.943 77.8458 154.857 80.5183 154.939C81.6568 154.974 81.6654 152.703 80.5271 152.668C69.9286 152.343 59.4288 154.639 48.9916 156.726C38.8963 158.746 28.577 160.646 18.342 159.565C16.098 159.421 13.8935 158.757 11.8353 157.605C9.8479 156.382 8.16972 154.465 6.99259 152.073C4.34769 146.734 3.86856 140.056 3.66243 133.838C3.42064 128.456 3.4805 123.058 3.84153 117.685C4.2546 112.477 5.22117 107.195 7.39971 102.706C12.3691 92.4645 22.3524 88.2336 30.8516 90.1099C40.4224 92.2227 47.7114 102.081 62.3711 91.0911C66.9729 87.6414 72.9667 92.4902 78.2275 93.5303C82.1594 94.2421 86.0359 95.3848 89.8147 96.9459C93.4507 98.3868 96.8347 100.715 99.7811 103.804C102.864 107.178 105.002 111.755 105.869 116.839C107.854 128.546 103.784 140.208 101.083 151.146C98.6744 160.896 96.6077 172.351 99.7611 182.21C100.496 184.502 101.508 186.63 102.759 188.516L104.016 186.915C96.7195 178.823 89.4217 170.732 82.1229 162.643C81.2666 161.693 80.0037 163.287 80.866 164.244L80.866 164.244Z" fill="#E6E6E6"/>
<path d="M49.8458 111.292L23.1852 111.188C22.9405 111.187 22.7064 111.062 22.5343 110.839C22.3622 110.616 22.2662 110.315 22.2674 110.001C22.2686 109.687 22.3669 109.386 22.5408 109.164C22.7146 108.943 22.9497 108.819 23.1944 108.82L49.855 108.923C50.0996 108.924 50.3338 109.05 50.5059 109.273C50.678 109.496 50.774 109.797 50.7728 110.111C50.7716 110.425 50.6732 110.726 50.4994 110.948C50.3255 111.169 50.0904 111.293 49.8458 111.292Z" fill="white"/>
<path d="M49.7477 136.545L23.087 136.441C22.9659 136.441 22.8461 136.409 22.7344 136.35C22.6227 136.29 22.5214 136.202 22.4361 136.092C22.3509 135.981 22.2835 135.851 22.2377 135.707C22.1919 135.563 22.1686 135.409 22.1692 135.253C22.1698 135.098 22.1943 134.944 22.2412 134.8C22.2881 134.657 22.3566 134.527 22.4426 134.417C22.5287 134.307 22.6308 134.221 22.7429 134.161C22.855 134.102 22.9751 134.072 23.0962 134.073L49.7568 134.176C50.0015 134.177 50.2356 134.303 50.4077 134.526C50.5799 134.748 50.6759 135.05 50.6747 135.364C50.6734 135.678 50.5751 135.979 50.4012 136.2C50.2274 136.422 49.9923 136.545 49.7477 136.545Z" fill="white"/>
<path d="M71.4491 124.011L23.1359 123.823C22.8912 123.822 22.6571 123.697 22.485 123.474C22.3128 123.251 22.2168 122.949 22.2181 122.635C22.2193 122.321 22.3176 122.02 22.4915 121.799C22.6653 121.578 22.9004 121.454 23.1451 121.455L71.4583 121.642C71.7029 121.643 71.9371 121.769 72.1092 121.992C72.2813 122.214 72.3773 122.516 72.3761 122.83C72.3749 123.144 72.2765 123.445 72.1027 123.666C71.9288 123.888 71.6938 124.012 71.4491 124.011Z" fill="white"/>
<path d="M132.152 243.046C132.307 243.262 132.391 243.547 132.386 243.841C132.381 244.135 132.287 244.416 132.124 244.623C131.961 244.831 131.742 244.949 131.513 244.953C131.284 244.957 131.063 244.847 130.896 244.646C123.699 236.663 116.501 228.685 109.304 220.712C109.296 220.7 109.286 220.69 109.275 220.682C108.775 220.196 108.302 219.666 107.86 219.095C101.137 218.062 93.7567 214.703 86.7582 213.23C80.5691 214.387 73.1883 223.335 66.9819 224.355C61.5743 225.299 56.1245 225.778 50.6687 225.791C46.2293 225.743 47.5851 207.353 43.5688 204.643C39.3938 201.826 32.1578 207.076 31.1068 201.411C30.5697 198.525 27.874 195.555 27.7087 192.58L27.7803 174.119C28.3834 166.083 32.56 158.137 37.316 152.546C44.453 144.157 55.0896 143.979 64.1817 143.78C75.0168 143.528 85.8518 144.18 96.6185 145.73C105.398 147.005 114.632 148.244 122.738 153.082C126.279 155.079 129.406 158.111 131.871 161.936C134.592 166.482 136.121 172.02 136.238 177.757C136.621 189.937 132.262 201.061 129.853 212.549C127.763 222.495 126.56 234.555 132.152 243.046Z" fill="#F2F2F2"/>
<path d="M110.121 221.882C117.418 229.974 124.715 238.065 132.014 246.154C132.181 246.355 132.403 246.466 132.632 246.461C132.861 246.457 133.081 246.339 133.244 246.131C133.406 245.924 133.5 245.643 133.506 245.349C133.511 245.054 133.427 244.769 133.271 244.553C127.68 236.068 128.882 224.007 130.971 214.057C133.383 202.568 137.742 191.447 137.357 179.27C137.242 173.532 135.713 167.992 132.989 163.446C130.526 159.621 127.399 156.59 123.858 154.595C115.753 149.757 106.521 148.512 97.7371 147.24C86.9718 145.689 76.138 145.036 65.3042 145.287C56.2094 145.492 45.5708 145.664 38.4343 154.055C31.935 161.698 31.0046 173.752 31.0256 184.397C31.0378 190.565 31.1054 196.901 32.2241 202.924C33.2757 208.586 35.5825 214.107 39.7589 216.923C43.7759 219.631 48.5606 219.692 52.9958 219.736C58.4516 219.728 63.9015 219.247 69.3083 218.297C80.1292 216.523 90.8513 213.632 101.756 212.788C104.425 212.581 107.101 212.495 109.773 212.577C110.912 212.612 110.92 210.341 109.782 210.306C99.1834 209.981 88.6837 212.277 78.2465 214.365C68.1512 216.384 57.8318 218.284 47.5969 217.203C45.3529 217.06 43.1484 216.396 41.0902 215.243C39.1028 214.02 37.4246 212.103 36.2475 209.712C33.6026 204.372 33.1234 197.694 32.9173 191.476C32.6755 186.094 32.7354 180.696 33.0964 175.324C33.5095 170.115 34.4761 164.834 36.6546 160.344C41.624 150.103 52.8953 141.688 60.1065 147.748C68.3455 154.672 78.9158 155.011 91.626 148.729C96.5981 146.272 102.222 150.128 107.482 151.169C111.414 151.88 115.291 153.023 119.07 154.584C122.706 156.025 126.09 158.353 129.036 161.442C132.119 164.816 134.257 169.393 135.124 174.477C137.108 186.184 133.039 197.846 130.338 208.784C127.929 218.535 125.863 229.989 129.016 239.849C129.751 242.14 130.763 244.268 132.014 246.154L133.271 244.553C125.974 236.461 118.677 228.37 111.378 220.281C110.522 219.331 109.259 220.926 110.121 221.882L110.121 221.882Z" fill="#E6E6E6"/>
<path d="M79.1007 168.93L52.4401 168.827C52.1954 168.826 51.9613 168.7 51.7892 168.477C51.617 168.254 51.521 167.953 51.5223 167.639C51.5235 167.325 51.6218 167.024 51.7957 166.802C51.9695 166.581 52.2046 166.457 52.4493 166.458L79.1099 166.562C79.3545 166.563 79.5886 166.688 79.7608 166.911C79.9329 167.134 80.0289 167.435 80.0277 167.749C80.0265 168.063 79.9281 168.364 79.7543 168.586C79.5804 168.807 79.3453 168.931 79.1007 168.93Z" fill="white"/>
<path d="M79.0025 194.183L52.3419 194.079C52.0973 194.078 51.8631 193.953 51.691 193.73C51.5189 193.507 51.4229 193.206 51.4241 192.891C51.4253 192.577 51.5237 192.277 51.6975 192.055C51.8714 191.834 52.1065 191.71 52.3511 191.711L79.0117 191.814C79.2564 191.815 79.4905 191.941 79.6626 192.164C79.8347 192.386 79.9307 192.688 79.9295 193.002C79.9283 193.316 79.83 193.617 79.6561 193.838C79.4823 194.06 79.2472 194.184 79.0025 194.183Z" fill="white"/>
<path d="M100.704 181.649L52.3912 181.461C52.1466 181.46 51.9125 181.335 51.7403 181.112C51.5682 180.889 51.4722 180.588 51.4734 180.274C51.4747 179.959 51.573 179.659 51.7468 179.437C51.9207 179.216 52.1558 179.092 52.4004 179.093L100.714 179.28C100.958 179.281 101.192 179.407 101.365 179.63C101.537 179.853 101.633 180.154 101.631 180.468C101.63 180.782 101.532 181.083 101.358 181.304C101.184 181.526 100.949 181.65 100.704 181.649Z" fill="white"/>
<path d="M277.312 285.601L202.806 285.311C202.123 285.309 201.468 284.958 200.987 284.335C200.506 283.713 200.238 282.87 200.242 281.992C200.245 281.114 200.52 280.274 201.006 279.655C201.491 279.036 202.148 278.69 202.832 278.693L277.338 278.982C278.022 278.984 278.676 279.336 279.157 279.958C279.638 280.581 279.906 281.423 279.903 282.301C279.899 283.179 279.625 284.02 279.139 284.638C278.653 285.257 277.996 285.603 277.312 285.601Z" fill="#F2F2F2"/>
<path d="M277.038 356.172L202.533 355.883C201.849 355.88 201.195 355.529 200.714 354.906C200.233 354.284 199.964 353.441 199.968 352.563C199.971 351.686 200.246 350.845 200.732 350.226C201.218 349.607 201.875 349.261 202.558 349.264L277.064 349.553C277.748 349.556 278.402 349.907 278.883 350.529C279.364 351.152 279.632 351.995 279.629 352.872C279.626 353.75 279.351 354.591 278.865 355.21C278.379 355.828 277.722 356.174 277.038 356.172Z" fill="#F2F2F2"/>
<path d="M337.686 321.144L202.669 320.62C202.33 320.62 201.995 320.533 201.683 320.366C201.37 320.199 201.086 319.954 200.848 319.646C200.609 319.337 200.42 318.972 200.292 318.569C200.164 318.167 200.099 317.736 200.1 317.301C200.102 316.866 200.171 316.435 200.302 316.034C200.433 315.633 200.625 315.268 200.866 314.962C201.107 314.656 201.392 314.413 201.706 314.248C202.02 314.083 202.356 314 202.695 314.001L337.711 314.526C338.394 314.529 339.048 314.881 339.528 315.504C340.008 316.126 340.276 316.968 340.272 317.845C340.269 318.722 339.995 319.562 339.51 320.18C339.025 320.799 338.369 321.146 337.686 321.144Z" fill="#F2F2F2"/>
<path d="M160.631 316.741L164.844 321.872L182.64 302.948L176.422 295.376L160.631 316.741Z" fill="#FFB6B6"/>
<path d="M168.252 338.886L165.954 324.797L168.82 320.919L167.292 319.265L162.547 314.149L161.386 312.891L150.376 325.505L153.539 329.351L156.938 326.201L155.542 331.795L163.917 341.997C164.319 342.486 164.832 342.797 165.381 342.885C165.931 342.973 166.488 342.833 166.972 342.486C167.456 342.138 167.841 341.602 168.072 340.954C168.302 340.307 168.365 339.582 168.252 338.886L168.252 338.886Z" fill="#2F2E41"/>
<path d="M139.92 336.437L145.662 337.581L151.952 309.049L143.477 307.361L139.92 336.437Z" fill="#FFB6B6"/>
<path d="M156.001 349.078L147.872 339.175L148.518 333.898L146.526 333.653L140.352 332.91L138.839 332.723L135.349 351.12L139.657 351.974L141.064 346.906L142.39 352.521L153.806 354.796C154.354 354.905 154.914 354.786 155.406 354.458C155.897 354.129 156.295 353.607 156.54 352.969C156.785 352.33 156.865 351.608 156.768 350.908C156.671 350.208 156.402 349.567 156.001 349.078L156.001 349.078Z" fill="#2F2E41"/>
<path d="M195.991 133.792L212.324 171.749C212.324 171.749 211.334 249.679 213.513 252.578C215.692 255.477 217.665 258.078 215.682 258.047C213.699 258.015 214.267 276.454 214.267 276.454L177.573 312.643L168.765 303.526L191.087 268.455L179.114 196.445C179.114 196.445 170.047 264.465 168.453 266.496C166.859 268.526 165.902 268.508 167.562 270.558C169.223 272.609 167.536 277.225 167.536 277.225L149.966 323.495L140.538 321.931C140.538 321.931 142.321 284.109 148.078 267.891L148.376 191.146C147.922 197.724 168.244 131.204 155.955 136.155C159.843 134.589 195.991 133.792 195.991 133.792Z" fill="#2F2E41"/>
<path d="M188.782 43.459L175.158 43.4061L173.19 53.3039L162.701 56.982C162.701 56.982 157.348 101.074 161.686 104.648C166.024 108.223 162.946 119.342 162.946 119.342C162.946 119.342 152.051 134.325 153.343 136.556C154.635 138.787 157.286 135.41 154.218 139.318C151.149 143.226 149.418 142.662 150.28 143.779C150.814 144.487 151.226 145.33 151.491 146.255L147.703 158.739C147.703 158.739 167.542 163.88 177.54 156.684C187.537 149.488 209.591 163.487 209.591 163.487C209.591 163.487 208.482 156.178 207.538 155.096C206.593 154.014 204.371 156.731 205.924 153.148C207.477 149.566 208.771 151.24 207.477 149.566C206.183 147.891 200.635 125.609 200.635 125.609C200.635 125.609 196.347 113.35 201.135 108.36C205.923 103.37 207.802 86.9492 207.802 86.9492L202.202 57.1353L192.675 54.3459L188.782 43.459Z" fill="#E6E6E6"/>
<path d="M134.41 156.985L137.747 140.16L130.53 136.39L127.494 154.338C126.815 154.979 126.288 155.849 125.973 156.852C125.657 157.854 125.565 158.95 125.708 160.014C125.851 161.079 126.222 162.071 126.78 162.879C127.338 163.686 128.061 164.278 128.867 164.586C129.674 164.895 130.531 164.908 131.344 164.625C132.157 164.342 132.893 163.774 133.469 162.984C134.045 162.195 134.438 161.215 134.604 160.155C134.77 159.095 134.703 157.997 134.41 156.985L134.41 156.985Z" fill="#FFB6B6"/>
<path d="M166.588 55.8714L166.372 55.8229C164.366 55.3723 162.304 55.5564 160.364 56.3592C158.424 57.162 156.665 58.5594 155.239 60.4303C151.515 65.3084 134.839 101.629 135.411 107.712C135.944 113.385 136.162 112.124 134.131 115.012C132.1 117.899 131.348 113.487 131.294 119.515C131.239 125.543 133.034 125.498 131.121 126.964C129.208 128.431 127.951 127.399 128.284 131.468C128.616 135.536 128.079 136.613 127.96 138.034C127.842 139.455 125.069 148.566 125.069 148.566C125.069 148.566 133.116 151.375 136.35 155.547C136.35 155.547 136.759 145.256 138.403 144.328C140.047 143.4 141.573 143.893 141.122 141.246C140.671 138.598 138.308 137.417 141.209 137.521C144.11 137.625 148.668 117.834 148.668 117.834L168.222 72.5191L166.588 55.8714Z" fill="#E6E6E6"/>
<path d="M209.894 165.619L210.543 148.283L218.308 147.358L217.114 165.657C217.617 166.522 217.923 167.55 217.996 168.626C218.068 169.703 217.906 170.785 217.526 171.75C217.147 172.716 216.565 173.527 215.847 174.092C215.128 174.657 214.302 174.955 213.46 174.95C212.618 174.946 211.795 174.64 211.082 174.067C210.369 173.494 209.795 172.677 209.424 171.708C209.054 170.738 208.901 169.655 208.984 168.579C209.067 167.504 209.382 166.478 209.894 165.619Z" fill="#FFB6B6"/>
<path d="M202.203 56.9342L202.42 56.9679C204.442 57.2822 206.373 58.2245 208.045 59.7133C209.718 61.2022 211.081 63.1926 212.018 65.5123C214.466 71.5623 222.125 112.504 220.189 118.111C218.384 123.34 218.462 122.053 219.746 125.57C221.03 129.087 222.756 125.145 221.432 130.932C220.107 136.719 218.401 136.009 219.896 138.122C221.391 140.236 222.829 139.716 221.582 143.485C220.335 147.253 220.603 148.483 220.391 149.887C220.18 151.29 220.753 161.036 220.753 161.036C220.753 161.036 212.413 160.733 208.366 163.523C208.366 163.523 210.325 153.526 208.964 152.027C207.603 150.528 206.031 150.433 207.067 148.068C208.103 145.703 210.634 145.452 207.835 144.473C205.036 143.494 205.195 122.868 205.195 122.868L196.837 72.2524L202.203 56.9342Z" fill="#E6E6E6"/>
<path d="M151.059 31.6255C150.928 37.5953 152.643 43.3829 155.12 48.4702C155.966 45.5251 157.144 42.7552 158.618 40.2498C157.896 45.8106 158.62 51.5185 160.68 56.4903C160.753 56.5579 160.829 56.6207 160.907 56.6784C162.936 58.2579 165.513 58.9045 167.719 57.778C163.195 51.4656 162.657 41.034 166.498 33.9883C167.585 31.989 168.988 30.2226 169.666 27.9452C170.736 24.3115 169.736 20.3023 169.111 16.507C168.526 12.9747 168.437 8.77368 170.292 6.19385C170.096 5.83155 169.829 5.54273 169.518 5.35698C169.206 5.17123 168.862 5.09524 168.519 5.13678C167.381 5.33861 166.549 6.60454 166.016 7.90964C165.484 9.21469 165.13 10.6621 164.391 11.7882C163.022 13.8961 160.703 14.3867 158.746 15.4929C154.006 18.179 151.198 24.9828 151.059 31.6255Z" fill="#2F2E41"/>
<path d="M190.883 28.3666C190.618 27.1511 192.452 34.5818 191.552 34.7123C187.456 35.2994 181.823 38.4166 178.966 39.8701C178.838 39.8504 178.709 39.8308 178.585 39.8063C178.279 39.7621 177.981 39.6987 177.687 39.6258C171.053 37.9872 168.551 24.8831 168.551 24.7635C168.553 24.1748 169.717 8.01138 171.451 7.77881C171.907 7.71715 172.364 7.68698 172.822 7.68841L177.124 7.70511C178.016 7.4623 178.918 7.29791 179.827 7.21308L179.834 7.21311C188.498 6.39963 195.3 13.2028 194.63 21.4463C194.626 21.4559 194.619 21.4654 194.615 21.475C194.428 21.8284 194.265 22.1628 194.12 22.4829C193.979 22.7839 193.861 23.0705 193.758 23.3429C192.96 25.4457 194.979 28.1032 193.632 28.5926C191.84 29.2434 198.252 50.8888 191.169 50.8613C194.609 52.1323 191.616 31.7195 190.883 28.3666Z" fill="#2F2E41"/>
<path d="M183.103 41.0224C188.728 41.0442 193.311 35.2076 193.339 27.986C193.367 20.7644 188.829 14.8924 183.204 14.8706C177.579 14.8488 172.996 20.6853 172.968 27.9069C172.94 35.1286 177.478 41.0005 183.103 41.0224Z" fill="#FFB6B6"/>
<path d="M194.627 22.1593C194.457 22.2735 194.29 22.3781 194.12 22.4828C193.942 22.5921 193.764 22.7015 193.586 22.8013C190.168 24.7742 187.391 24.9836 185.718 22.1247C185.678 20.6237 185.421 19.1458 184.96 17.7666C185.037 19.3061 184.715 20.8359 184.044 22.1182L180.653 22.1051C177.148 25.0683 175.352 25.3724 177.739 35.1544C178.405 37.8802 181.031 53.7365 179.965 56.0822C179.659 56.0379 176.472 38.6692 176.177 38.5963C169.544 36.9577 165.38 22.8977 165.923 22.1053C165.929 19.8461 166.342 17.6184 167.13 15.5964C168.127 13.0347 169.674 10.8917 171.588 9.42078C172.728 8.71709 173.917 8.14976 175.138 7.72599C175.168 7.71653 175.194 7.70704 175.225 7.69761C175.599 7.56983 175.981 7.45167 176.363 7.35264C177.152 7.14208 177.949 6.99018 178.752 6.8977C178.808 6.89313 178.865 6.88856 178.918 6.88877C179.238 6.89097 179.552 7.00288 179.827 7.21295C179.831 7.21297 179.831 7.21774 179.834 7.21775C180.031 7.36635 180.202 7.5639 180.338 7.79881C180.578 8.19408 180.706 8.68196 180.703 9.18336L184.48 9.19802C184.62 9.19856 184.759 9.20388 184.899 9.21398C187.419 9.33435 189.812 10.6579 191.609 12.9256C193.406 15.1933 194.478 18.2419 194.615 21.4749C194.625 21.7046 194.628 21.9295 194.627 22.1593Z" fill="#2F2E41"/>
<path d="M172.374 17.8929C176.08 17.9073 179.099 14.0621 179.118 9.3045C179.136 4.54686 176.147 0.678367 172.441 0.663983C168.735 0.6496 165.716 4.49477 165.698 9.25242C165.679 14.0101 168.668 17.8786 172.374 17.8929Z" fill="#2F2E41"/>
<path d="M235.159 269.073C235.433 269.09 235.704 268.999 235.937 268.812C236.169 268.624 236.352 268.35 236.459 268.025C236.566 267.701 236.593 267.342 236.536 266.997C236.479 266.653 236.34 266.34 236.14 266.1L236.05 265.632C236.062 265.594 236.075 265.557 236.087 265.519C236.366 264.683 236.832 263.971 237.425 263.473C238.018 262.975 238.712 262.712 239.42 262.718C240.128 262.724 240.818 262.999 241.405 263.507C241.991 264.016 242.446 264.736 242.714 265.577C243.785 268.933 245.152 272.295 245.478 275.841C245.622 277.408 245.553 278.995 245.274 280.533C247.847 273.413 249.199 265.669 249.238 257.825C249.246 255.857 249.169 253.89 249.006 251.934C248.871 250.33 248.682 248.737 248.438 247.155C247.107 238.573 244.208 230.523 239.98 223.666C237.927 222.216 236.27 219.991 235.234 217.292C234.858 216.322 234.594 215.287 234.45 214.219C234.682 214.259 235.343 209.72 235.169 209.441C235.495 208.811 236.076 208.5 236.432 207.886C238.202 204.833 240.622 205.376 241.871 209.54C244.565 211.301 244.58 214.204 242.912 216.99C241.85 218.762 241.696 221.165 240.763 223.063C240.858 223.22 240.956 223.372 241.051 223.529C242.78 226.408 244.285 229.499 245.544 232.756C245.249 229.111 245.632 225.427 246.662 222.005C247.705 218.817 249.648 216.137 251.36 213.384C251.812 212.644 252.426 212.093 253.122 211.8C253.818 211.507 254.565 211.486 255.27 211.738C255.975 211.991 256.605 212.506 257.081 213.219C257.557 213.932 257.857 214.81 257.944 215.743C257.947 215.784 257.951 215.824 257.954 215.865C257.701 216.047 257.452 216.24 257.21 216.445C256.905 216.704 256.668 217.076 256.53 217.511C256.392 217.946 256.359 218.425 256.436 218.883C256.514 219.342 256.697 219.759 256.963 220.081C257.228 220.403 257.564 220.615 257.925 220.688L257.962 220.695C257.867 221.864 257.704 223.022 257.472 224.159C259.613 235.003 254.886 238.932 248.157 239.083C248.008 239.18 247.863 239.277 247.714 239.369C248.974 244.022 249.756 248.866 250.042 253.781C250.204 256.68 250.182 259.592 249.978 262.487L249.99 262.385C250.49 259.166 251.839 256.265 253.811 254.172C256.738 251.108 260.862 249.992 264.017 247.532C264.353 247.258 264.742 247.112 265.139 247.113C265.537 247.113 265.925 247.259 266.26 247.534C266.594 247.809 266.86 248.201 267.026 248.663C267.192 249.126 267.252 249.641 267.198 250.146L267.184 250.254C266.714 250.497 266.257 250.778 265.814 251.094C265.561 251.276 265.312 251.47 265.07 251.674C264.765 251.934 264.528 252.306 264.39 252.741C264.252 253.176 264.219 253.654 264.297 254.113C264.374 254.571 264.557 254.989 264.823 255.311C265.088 255.633 265.424 255.844 265.785 255.917L265.822 255.925C265.849 255.93 265.871 255.935 265.898 255.94C265.087 258.392 263.954 260.649 262.548 262.609C261.146 272.063 255.282 272.938 249.023 270.159L249.019 270.159C248.316 273.994 247.305 277.725 246.002 281.293L235.378 281.252C235.34 281.101 235.307 280.944 235.273 280.792C236.256 280.875 237.243 280.804 238.213 280.579C237.43 279.334 236.647 278.079 235.863 276.835C235.846 276.811 235.829 276.787 235.814 276.761C235.417 276.124 235.015 275.492 234.618 274.855L234.618 274.854C234.604 272.906 234.786 270.963 235.158 269.074L235.159 269.073Z" fill="#F2F2F2"/>
<path d="M79.58 354.376C79.5793 354.494 79.5968 354.612 79.6315 354.721C79.6662 354.831 79.7175 354.931 79.7824 355.015C79.8473 355.098 79.9245 355.165 80.0096 355.211C80.0946 355.256 80.1859 355.279 80.2781 355.279L371.106 356.408C371.292 356.409 371.471 356.315 371.603 356.146C371.735 355.978 371.81 355.749 371.811 355.51C371.812 355.271 371.739 355.042 371.608 354.873C371.477 354.703 371.299 354.608 371.113 354.607L80.2851 353.478C80.1929 353.477 80.1015 353.5 80.0161 353.545C79.9306 353.59 79.8529 353.656 79.7874 353.739C79.7218 353.823 79.6698 353.922 79.6342 354.031C79.5986 354.14 79.5802 354.258 79.58 354.376Z" fill="#CCCCCC"/>
<path d="M212.026 161.614C212.842 162.728 211.593 164.167 210.64 163.211C202.691 155.237 194.742 147.269 186.793 139.306C186.784 139.294 186.773 139.283 186.761 139.276C186.212 138.794 185.69 138.264 185.198 137.69C177.776 136.656 169.626 133.3 161.9 131.826C155.067 132.979 148.254 134.358 141.403 135.374C135.427 136.314 129.413 136.79 123.394 136.8C118.493 136.751 113.214 136.693 108.779 133.985C104.169 131.171 101.619 125.66 100.456 120.003C99.8835 117.116 99.5137 114.168 99.3516 111.195L99.4231 92.7636C100.086 84.7406 102.043 76.7982 107.291 71.2189C115.167 62.8461 126.91 62.6725 136.947 62.4772C148.905 62.2305 160.862 62.885 172.758 64.4374C182.451 65.7144 192.645 66.9555 201.596 71.7889C205.435 73.8669 209.049 76.7451 211.683 80.632C214.647 85.0354 216.35 90.6084 216.51 96.4297C216.938 108.591 212.13 119.696 209.475 131.165C207.172 141.093 205.849 153.134 212.026 161.614Z" fill="#1A1B1D"/>
<path d="M153.131 82.9305L126.471 82.827C126.35 82.8266 126.23 82.7955 126.118 82.7355C126.007 82.6756 125.905 82.588 125.82 82.4777C125.735 82.3674 125.667 82.2366 125.621 82.0927C125.576 81.9489 125.552 81.7948 125.553 81.6393C125.554 81.4838 125.578 81.3299 125.625 81.1864C125.672 81.0429 125.74 80.9126 125.826 80.803C125.913 80.6933 126.015 80.6065 126.127 80.5474C126.239 80.4883 126.359 80.4582 126.48 80.4587L153.141 80.5621C153.385 80.5631 153.619 80.6887 153.792 80.9115C153.964 81.1342 154.06 81.4358 154.058 81.7499C154.057 82.064 153.959 82.3648 153.785 82.5862C153.611 82.8076 153.376 82.9315 153.131 82.9305Z" fill="white"/>
<path d="M153.034 108.183L126.373 108.08C126.129 108.079 125.894 107.953 125.722 107.73C125.55 107.508 125.454 107.206 125.455 106.892C125.457 106.578 125.555 106.277 125.729 106.056C125.903 105.834 126.138 105.71 126.382 105.711L153.043 105.815C153.288 105.816 153.522 105.941 153.694 106.164C153.866 106.387 153.962 106.689 153.961 107.003C153.96 107.317 153.861 107.617 153.687 107.839C153.514 108.06 153.278 108.184 153.034 108.183Z" fill="white"/>
<path d="M174.735 95.6491L126.422 95.4616C126.177 95.4606 125.943 95.3349 125.771 95.1122C125.599 94.8894 125.503 94.5879 125.504 94.2738C125.505 93.9597 125.604 93.6589 125.778 93.4375C125.951 93.2161 126.187 93.0922 126.431 93.0932L174.744 93.2807C174.989 93.2816 175.223 93.4073 175.395 93.6301C175.567 93.8528 175.663 94.1544 175.662 94.4685C175.661 94.7825 175.563 95.0833 175.389 95.3048C175.215 95.5262 174.98 95.65 174.735 95.6491Z" fill="white"/>
<path d="M218.371 84.0478C220.822 89.1194 222.198 94.9511 221.746 100.955C221.357 106.135 219.682 111.002 217.854 115.588C215.96 120.34 213.842 124.953 212.289 129.916C210.583 135.326 209.938 141.188 210.41 146.987C210.699 150.752 211.276 154.467 211.819 158.181L213.476 169.519L214.958 168.42L190.61 141.184C189.756 140.229 188.494 141.824 189.353 142.785L213.701 170.021C213.841 170.19 214.019 170.297 214.21 170.326C214.401 170.354 214.594 170.303 214.761 170.18C214.927 170.056 215.058 169.867 215.135 169.64C215.211 169.414 215.228 169.162 215.184 168.922C214.21 162.261 213.055 155.595 212.349 148.876C211.941 145.488 211.896 142.043 212.213 138.637C212.523 136.041 213.064 133.499 213.827 131.061C216.798 121.233 222.325 112.648 223.426 101.955C224.115 95.2548 222.649 88.5887 219.902 82.9077C219.304 81.67 217.769 82.8024 218.371 84.0478L218.371 84.0478Z" fill="#3F3D56"/>
<path d="M192.194 131.257L156.007 136.609L137.914 139.285C132.402 140.1 126.656 141.253 121.158 139.751C111.9 137.223 106.188 126.42 104.422 115.052C103.329 108.015 103.754 100.658 104.724 93.6356C105.241 89.8919 105.919 86.1877 106.65 82.5038C107.301 79.2208 107.791 75.6846 108.907 72.5962C109.798 70.0849 111.117 67.8621 112.767 66.0928C114.417 64.3236 116.355 63.0532 118.438 62.3761C119.739 62.0393 121.056 61.8205 122.381 61.7212C123.869 61.5354 125.358 61.3647 126.848 61.2094C129.829 60.8987 132.812 60.6494 135.799 60.4613C137.293 60.3672 138.786 60.2885 140.28 60.2251C141.415 60.1761 141.43 57.9052 140.289 57.9544C134.071 58.2224 127.865 58.7515 121.67 59.5418C119.145 59.8656 116.811 60.3388 114.528 61.847C112.555 63.1606 110.82 64.9939 109.436 67.2267C108.017 69.5304 106.973 72.1753 106.365 75.0046C105.536 78.764 104.783 82.5609 104.094 86.366C102.706 94.0359 101.699 101.943 102.122 109.835C102.748 121.509 107.051 133.977 115.476 139.566C120.451 142.866 126.142 143.035 131.61 142.43C137.708 141.755 143.79 140.685 149.87 139.786L187.516 134.218L192.185 133.527C193.303 133.362 193.325 131.089 192.194 131.257L192.194 131.257Z" fill="#3F3D56"/>
</g>
<defs>
<clipPath id="clip0_185_223">
<rect width="371.81" height="355.099" fill="white" transform="translate(1.37793) rotate(0.222379)"/>
</clipPath>
</defs>
</svg>
