<svg width="412" height="412" viewBox="0 0 412 412" fill="none" xmlns="http://www.w3.org/2000/svg">
<path d="M159.376 412C247.396 412 318.751 399.953 318.751 385.093C318.751 370.233 247.396 358.186 159.376 358.186C71.3549 358.186 0 370.233 0 385.093C0 399.953 71.3549 412 159.376 412Z" fill="#3F3D56"/>
<path d="M256.241 297.706C342.264 297.706 412 231.063 412 148.853C412 66.6438 342.264 0 256.241 0C170.217 0 100.481 66.6438 100.481 148.853C100.481 231.063 170.217 297.706 256.241 297.706Z" fill="#3F3D56"/>
<path opacity="0.05" d="M256.241 271.736C327.256 271.736 384.825 216.72 384.825 148.853C384.825 80.9868 327.256 25.9702 256.241 25.9702C185.226 25.9702 127.657 80.9868 127.657 148.853C127.657 216.72 185.226 271.736 256.241 271.736Z" fill="black"/>
<path opacity="0.05" d="M256.241 249.567C314.444 249.567 361.627 204.476 361.627 148.853C361.627 93.2306 314.444 48.1396 256.241 48.1396C198.037 48.1396 150.854 93.2306 150.854 148.853C150.854 204.476 198.037 249.567 256.241 249.567Z" fill="black"/>
<path opacity="0.05" d="M256.241 221.063C297.971 221.063 331.801 188.733 331.801 148.853C331.801 108.973 297.971 76.6436 256.241 76.6436C214.51 76.6436 180.681 108.973 180.681 148.853C180.681 188.733 214.51 221.063 256.241 221.063Z" fill="black"/>
<path d="M101.861 162.175C101.861 162.175 89.6154 195.116 95.058 206.819C100.501 218.522 109.118 229.791 109.118 229.791C109.118 229.791 105.943 164.342 101.861 162.175Z" fill="#D0CDE1"/>
<path opacity="0.1" d="M101.861 162.175C101.861 162.175 89.6154 195.116 95.058 206.819C100.501 218.522 109.118 229.791 109.118 229.791C109.118 229.791 105.943 164.342 101.861 162.175Z" fill="black"/>
<path d="M110.478 238.46C110.478 238.46 109.571 246.695 109.118 247.129C108.664 247.562 109.571 248.429 109.118 249.729C108.664 251.03 108.211 252.763 109.118 253.197C110.025 253.63 104.129 291.773 104.129 291.773C104.129 291.773 89.6151 309.977 95.5112 338.584L97.3254 367.625C97.3254 367.625 111.385 368.491 111.385 363.724C111.385 363.724 110.478 358.089 110.478 355.488C110.478 352.888 112.746 352.888 111.385 351.587C110.025 350.287 110.025 349.42 110.025 349.42C110.025 349.42 112.292 347.686 111.839 347.253C111.385 346.819 115.921 316.045 115.921 316.045C115.921 316.045 120.91 311.278 120.91 308.677V306.076C120.91 306.076 123.178 300.442 123.178 300.008C123.178 299.575 135.423 273.135 135.423 273.135L140.412 292.206L145.855 319.513C145.855 319.513 148.576 344.219 154.019 353.755C154.019 353.755 163.543 384.962 163.543 384.095C163.543 383.228 179.418 381.061 178.964 377.16C178.51 373.259 169.44 318.646 169.44 318.646L171.707 237.593L110.478 238.46Z" fill="#2F2E41"/>
<path d="M98.2325 365.457C98.2325 365.457 85.9867 388.43 94.1506 389.297C102.314 390.163 105.489 390.163 109.118 386.696C111.101 384.8 115.118 382.257 118.353 380.34C120.269 379.223 121.817 377.613 122.819 375.693C123.821 373.774 124.237 371.623 124.019 369.488C123.78 367.367 122.951 365.62 120.91 365.457C115.467 365.024 109.118 360.256 109.118 360.256L98.2325 365.457Z" fill="#2F2E41"/>
<path d="M165.811 382.361C165.811 382.361 153.565 405.334 161.729 406.201C169.893 407.067 173.068 407.067 176.696 403.6C178.68 401.704 182.697 399.161 185.931 397.244C187.847 396.127 189.395 394.517 190.398 392.597C191.4 390.678 191.816 388.527 191.598 386.392C191.359 384.271 190.529 382.524 188.488 382.361C183.046 381.928 176.696 377.16 176.696 377.16L165.811 382.361Z" fill="#2F2E41"/>
<path d="M152.869 124.581C163.398 124.581 171.934 116.424 171.934 106.361C171.934 96.2983 163.398 88.1409 152.869 88.1409C142.339 88.1409 133.803 96.2983 133.803 106.361C133.803 116.424 142.339 124.581 152.869 124.581Z" fill="#FFB8B8"/>
<path d="M140.613 112.348C140.613 112.348 126.994 136.294 125.905 136.294C124.815 136.294 150.418 144.103 150.418 144.103C150.418 144.103 157.499 121.197 158.589 119.115L140.613 112.348Z" fill="#FFB8B8"/>
<path d="M161.503 138.552C161.503 138.552 134.29 124.249 131.569 124.682C128.847 125.115 99.8203 149.388 100.274 159.357C100.727 169.326 104.356 185.797 104.356 185.797C104.356 185.797 105.716 231.741 108.438 232.175C111.159 232.608 107.984 240.41 108.891 240.41C109.798 240.41 172.388 240.41 172.841 239.11C173.295 237.81 161.503 138.552 161.503 138.552Z" fill="#D0CDE1"/>
<path d="M176.696 241.494C176.696 241.494 185.314 266.633 178.057 265.766C170.8 264.9 167.625 244.095 167.625 244.095L176.696 241.494Z" fill="#FFB8B8"/>
<path d="M153.566 137.035C153.566 137.035 136.784 140.503 139.506 162.174C142.227 183.846 147.216 205.518 147.216 205.518L163.997 240.627L165.811 247.128L178.057 244.094L168.986 193.816C168.986 193.816 165.811 140.069 161.729 138.335C159.155 137.287 156.356 136.841 153.566 137.035Z" fill="#D0CDE1"/>
<path opacity="0.1" d="M143.36 204.868L164.224 240.41L146.646 202.959L143.36 204.868Z" fill="black"/>
<path d="M171.85 100.996L171.913 99.6036L174.811 100.293C174.78 99.846 174.648 99.4108 174.423 99.0174C174.199 98.624 173.888 98.2818 173.512 98.0144L176.599 97.8495C174.009 94.3315 170.699 91.3517 166.87 89.0902C163.041 86.8287 158.772 85.3323 154.321 84.6915C147.643 83.7665 140.208 85.105 135.629 89.8411C133.407 92.1383 132.012 95.0597 131.019 98.04C129.191 103.529 128.818 110.073 132.631 114.535C136.506 119.069 143.274 119.958 149.372 120.519C151.518 120.716 153.766 120.9 155.755 120.104C155.976 117.925 155.684 115.726 154.9 113.668C154.574 113.031 154.418 112.327 154.446 111.618C154.717 109.884 157.137 109.447 158.955 109.682C160.773 109.916 162.959 110.274 164.153 108.944C164.976 108.028 164.928 106.693 165.037 105.49C165.333 102.215 171.819 101.683 171.85 100.996Z" fill="#2F2E41"/>
<path d="M288.788 388.796C301.056 388.796 311.002 379.291 311.002 367.566C311.002 355.841 301.056 346.337 288.788 346.337C276.519 346.337 266.573 355.841 266.573 367.566C266.573 379.291 276.519 388.796 288.788 388.796Z" fill="#FB9F15"/>
<path d="M27.897 381.39C40.1657 381.39 50.1115 371.885 50.1115 360.161C50.1115 348.436 40.1657 338.931 27.897 338.931C15.6284 338.931 5.68262 348.436 5.68262 360.161C5.68262 371.885 15.6284 381.39 27.897 381.39Z" fill="#FB9F15"/>
<path d="M27.8974 347.324C36.7422 347.324 43.9124 340.472 43.9124 332.019C43.9124 323.566 36.7422 316.714 27.8974 316.714C19.0525 316.714 11.8823 323.566 11.8823 332.019C11.8823 340.472 19.0525 347.324 27.8974 347.324Z" fill="#FB9F15"/>
<path d="M27.8973 319.183C34.1743 319.183 39.2628 314.32 39.2628 308.321C39.2628 302.322 34.1743 297.459 27.8973 297.459C21.6203 297.459 16.5317 302.322 16.5317 308.321C16.5317 314.32 21.6203 319.183 27.8973 319.183Z" fill="#FB9F15"/>
<path d="M267.447 78.6603C267.478 79.0249 267.478 79.3874 267.478 79.7499C267.478 90.8436 257.683 103.627 239.783 103.627C234.268 103.627 229.145 102.25 224.833 99.8582C225.616 99.9353 226.37 99.9624 227.185 99.9624C231.566 99.9715 235.824 98.7085 239.271 96.377C237.239 96.3453 235.27 95.7675 233.638 94.7243C232.006 93.6812 230.792 92.2247 230.167 90.5582C230.769 90.6353 231.373 90.6874 232.006 90.6874C232.879 90.6874 233.756 90.5832 234.57 90.402C232.366 90.0182 230.383 88.9881 228.96 87.4867C227.537 85.9853 226.761 84.1054 226.764 82.1666V82.0624C228.062 82.6853 229.568 83.0749 231.163 83.127C229.827 82.3615 228.731 81.3229 227.974 80.1036C227.216 78.8844 226.821 77.5225 226.822 76.1395C226.822 74.5811 227.303 73.152 228.147 71.9061C230.593 74.4999 233.643 76.6219 237.101 78.1346C240.559 79.6473 244.347 80.517 248.22 80.6874C248.07 80.0624 247.978 79.4145 247.978 78.7645C247.977 77.6623 248.229 76.5708 248.718 75.5525C249.207 74.5341 249.924 73.6088 250.828 72.8294C251.732 72.0501 252.805 71.432 253.986 71.0105C255.168 70.5889 256.434 70.3723 257.712 70.3728C260.516 70.3728 263.046 71.3853 264.824 73.0228C267.004 72.6595 269.094 71.9737 271.001 70.9957C270.275 72.9349 268.753 74.5793 266.722 75.6207C268.654 75.4307 270.543 74.9925 272.326 74.3207C270.995 75.9938 269.345 77.461 267.447 78.6603Z" fill="white"/>
<path d="M250.148 175.264C250.129 173.781 249.857 172.312 249.345 170.924C248.901 169.754 248.223 168.69 247.354 167.802C246.485 166.915 245.445 166.222 244.299 165.768C242.958 165.254 241.541 164.976 240.109 164.946C238.265 164.861 237.68 164.838 233 164.838C228.319 164.838 227.719 164.838 225.889 164.946C224.458 164.976 223.042 165.254 221.701 165.768C220.555 166.221 219.514 166.914 218.645 167.802C217.776 168.69 217.098 169.753 216.655 170.924C216.15 172.294 215.879 173.741 215.851 175.203C215.769 177.089 215.744 177.687 215.744 182.469C215.744 187.251 215.744 187.862 215.851 189.734C215.88 191.199 216.15 192.644 216.655 194.017C217.099 195.188 217.778 196.251 218.647 197.138C219.516 198.026 220.557 198.718 221.703 199.171C223.04 199.706 224.456 200.004 225.891 200.053C227.737 200.137 228.321 200.162 233.002 200.162C237.682 200.162 238.282 200.162 240.113 200.053C241.545 200.024 242.961 199.746 244.302 199.232C245.448 198.778 246.488 198.085 247.357 197.197C248.226 196.309 248.905 195.246 249.349 194.076C249.853 192.705 250.123 191.26 250.152 189.793C250.235 187.909 250.259 187.312 250.259 182.528C250.256 177.745 250.256 177.138 250.148 175.264ZM232.988 191.512C228.093 191.512 224.128 187.461 224.128 182.459C224.128 177.457 228.093 173.406 232.988 173.406C235.338 173.406 237.592 174.359 239.254 176.057C240.916 177.755 241.849 180.058 241.849 182.459C241.849 184.86 240.916 187.163 239.254 188.861C237.592 190.559 235.338 191.512 232.988 191.512ZM242.202 175.182C241.93 175.182 241.662 175.128 241.411 175.022C241.16 174.916 240.932 174.76 240.74 174.564C240.548 174.368 240.396 174.135 240.292 173.879C240.189 173.623 240.135 173.348 240.136 173.071C240.136 172.794 240.189 172.519 240.293 172.263C240.397 172.007 240.549 171.775 240.741 171.579C240.932 171.383 241.16 171.227 241.411 171.121C241.661 171.015 241.93 170.961 242.201 170.961C242.472 170.961 242.741 171.015 242.991 171.121C243.242 171.227 243.469 171.383 243.661 171.579C243.853 171.775 244.005 172.007 244.109 172.263C244.213 172.519 244.266 172.794 244.266 173.071C244.266 174.238 243.342 175.182 242.202 175.182Z" fill="#FFFDFD"/>
<path d="M232.989 188.34C236.167 188.34 238.744 185.707 238.744 182.459C238.744 179.211 236.167 176.578 232.989 176.578C229.81 176.578 227.233 179.211 227.233 182.459C227.233 185.707 229.81 188.34 232.989 188.34Z" fill="#FFFDFD"/>
<path d="M336.818 147.367V126.536H343.385L344.361 118.38H336.818V113.184C336.818 110.831 337.431 109.219 340.587 109.219H344.587V101.948C342.641 101.725 340.685 101.617 338.727 101.625C332.923 101.625 328.938 105.417 328.938 112.379V118.364H322.414V126.521H328.952V147.367H336.818Z" fill="#FFFDFD"/>
<path fill-rule="evenodd" clip-rule="evenodd" d="M348.209 193.43C345.714 190.988 342.746 189.052 339.476 187.734C336.206 186.416 332.699 185.741 329.159 185.75C314.315 185.75 302.231 197.496 302.225 211.933C302.225 216.547 303.464 221.05 305.819 225.023L302 238.588L316.277 234.945C320.226 237.036 324.651 238.132 329.147 238.133H329.159C344 238.133 356.084 226.388 356.09 211.95C356.1 208.51 355.409 205.102 354.056 201.923C352.704 198.744 350.716 195.857 348.209 193.43ZM329.159 233.715H329.15C325.141 233.715 321.205 232.666 317.756 230.678L316.94 230.206L308.468 232.367L310.727 224.338L310.196 223.515C307.954 220.045 306.768 216.03 306.773 211.933C306.779 199.934 316.82 190.172 329.168 190.172C332.109 190.165 335.022 190.726 337.738 191.822C340.454 192.917 342.92 194.525 344.993 196.553C347.077 198.572 348.729 200.972 349.853 203.615C350.977 206.257 351.551 209.091 351.542 211.95C351.536 223.95 341.495 233.715 329.159 233.715ZM341.438 217.413C340.763 217.084 337.457 215.503 336.839 215.284C336.224 215.066 335.777 214.958 335.327 215.611C334.877 216.264 333.587 217.737 333.194 218.175C332.801 218.612 332.408 218.665 331.736 218.338C331.064 218.011 328.895 217.32 326.324 215.092C324.323 213.356 322.973 211.215 322.58 210.559C322.187 209.903 322.538 209.55 322.877 209.223C323.18 208.932 323.549 208.459 323.885 208.077C324.221 207.695 324.332 207.424 324.557 206.986C324.782 206.549 324.671 206.167 324.5 205.84C324.332 205.51 322.985 202.29 322.424 200.981C321.881 199.712 321.326 199.881 320.912 199.864C320.483 199.847 320.054 199.839 319.625 199.84C319.284 199.849 318.948 199.926 318.639 200.066C318.33 200.207 318.054 200.408 317.828 200.657C317.21 201.313 315.473 202.894 315.473 206.114C315.473 209.334 317.885 212.446 318.221 212.884C318.557 213.321 322.967 219.928 329.717 222.763C331.325 223.436 332.579 223.839 333.554 224.142C335.165 224.641 336.632 224.568 337.793 224.402C339.086 224.215 341.774 222.821 342.335 221.293C342.896 219.764 342.896 218.455 342.728 218.181C342.56 217.906 342.107 217.74 341.438 217.413Z" fill="#FFFEFE"/>
</svg>
