<svg width="350" height="268" viewBox="0 0 350 268" fill="none" xmlns="http://www.w3.org/2000/svg">
<g clip-path="url(#clip0_23_2)">
<path d="M102.13 26.3708L105.829 32.3524L119.027 25.5835L125.812 23.4372C126.694 23.1583 127.489 22.645 128.119 21.9485C128.749 21.252 129.191 20.3967 129.401 19.4681C129.611 18.5395 129.582 17.5701 129.317 16.6568C129.051 15.7435 128.559 14.9183 127.888 14.2636C126.895 13.2934 125.576 12.7604 124.21 12.7772C122.844 12.7939 121.538 13.3589 120.567 14.3531L114.873 20.184L102.13 26.3708Z" fill="#A0616A"/>
<path d="M108.373 32.0736L103.441 24.0981L84.7387 32.6104C83.3957 33.2217 82.2281 34.1816 81.3492 35.3971C80.4704 36.6125 79.91 38.0423 79.7224 39.5477C79.491 41.404 79.8372 43.2883 80.7107 44.9274C81.5841 46.5664 82.9395 47.8751 84.5802 48.6636L114.393 62.5338C116.451 63.5227 118.801 63.6401 120.941 62.8607C123.082 62.0813 124.842 60.4671 125.848 58.3627C126.389 57.2309 126.693 55.994 126.741 54.7326C126.789 53.4711 126.58 52.2132 126.127 51.0409C125.674 49.8686 124.988 48.8081 124.112 47.9284C123.237 47.0487 122.192 46.3695 121.047 45.935L98.6828 37.9259L108.373 32.0736Z" fill="#6C63FF"/>
<path d="M305.757 167.468C305.757 165.073 304.979 163.128 304.025 163.124H43.7315C42.7724 163.128 41.9991 165.073 41.9947 167.468V266.086C41.9948 266.309 41.9148 266.523 41.7703 266.688C41.6259 266.853 41.4273 266.956 41.2133 266.978C40.5147 267.047 39.8161 267.111 39.1174 267.171C39.1002 267.171 39.0829 267.176 39.0656 267.176C38.6854 267.211 38.3052 267.238 37.925 267.27H37.9207C37.7252 266.895 37.5319 266.518 37.3408 266.138C37.2762 266.009 37.2425 265.867 37.2424 265.722V161.832C37.2424 161.171 37.2684 160.505 37.3116 159.848C37.3732 158.945 37.4814 158.047 37.6356 157.157C38.3657 153.005 40.0161 150.193 41.8911 150.184H305.861C306.134 150.186 306.405 150.246 306.656 150.359C307.024 150.527 307.357 150.769 307.636 151.069C308.015 151.477 308.339 151.935 308.6 152.433C309.524 154.118 310.185 156.63 310.419 159.553C310.419 159.579 310.423 159.606 310.423 159.633C310.483 160.357 310.514 161.095 310.509 161.832L310.57 171.41L310.609 177.123L310.725 195.046L310.768 201.41L310.959 266.756C310.959 266.993 310.868 267.22 310.706 267.388C310.543 267.555 310.324 267.649 310.095 267.649H306.621C306.392 267.649 306.172 267.555 306.01 267.388C305.848 267.22 305.757 266.993 305.757 266.756V167.468Z" fill="#E6E6E6"/>
<path d="M43.8418 216.31L38.2415 215.27L39.4555 192.426L47.7215 193.961L43.8418 216.31Z" fill="#A0616A"/>
<path d="M42.9901 222.391L25.7677 219.192L25.8068 218.966C26.1261 217.127 27.1385 215.494 28.6213 214.427C30.1041 213.36 31.9359 212.946 33.7137 213.276L33.7142 213.276L37.2886 211.392L42.7296 214.951L44.233 215.231L42.9901 222.391Z" fill="#2F2E41"/>
<path d="M179.669 192.199H145.327C144.407 192.197 143.525 191.819 142.874 191.145C142.223 190.472 141.857 189.559 141.856 188.607V156.1C141.857 155.148 142.223 154.235 142.874 153.562C143.525 152.889 144.407 152.51 145.327 152.509H179.669C180.589 152.51 181.472 152.889 182.123 153.562C182.773 154.235 183.139 155.148 183.14 156.1V188.607C183.139 189.559 182.773 190.472 182.123 191.145C181.472 191.819 180.589 192.197 179.669 192.199Z" fill="#3F3D56"/>
<path d="M177.255 189.205H147.741C146.924 189.204 146.141 188.868 145.563 188.27C144.985 187.673 144.66 186.862 144.659 186.017V158.691C144.66 157.846 144.985 157.035 145.563 156.437C146.141 155.839 146.924 155.503 147.741 155.502H177.255C178.072 155.503 178.856 155.839 179.434 156.437C180.011 157.035 180.337 157.846 180.337 158.691V186.017C180.337 186.862 180.011 187.673 179.434 188.27C178.856 188.868 178.072 189.204 177.255 189.205Z" fill="white"/>
<path d="M174.311 163.458H150.686C150.481 163.458 150.285 163.374 150.141 163.224C149.996 163.075 149.915 162.872 149.915 162.661C149.915 162.449 149.996 162.246 150.141 162.097C150.285 161.947 150.481 161.864 150.686 161.864H174.311C174.515 161.864 174.711 161.947 174.856 162.097C175 162.246 175.081 162.449 175.081 162.661C175.081 162.872 175 163.075 174.856 163.224C174.711 163.374 174.515 163.458 174.311 163.458Z" fill="#6C63FF"/>
<path d="M174.311 166.608H150.686C150.481 166.608 150.285 166.524 150.141 166.374C149.996 166.225 149.915 166.022 149.915 165.81C149.915 165.599 149.996 165.396 150.141 165.247C150.285 165.097 150.481 165.013 150.686 165.013H174.311C174.515 165.013 174.711 165.097 174.856 165.247C175 165.396 175.081 165.599 175.081 165.81C175.081 166.022 175 166.225 174.856 166.374C174.711 166.524 174.515 166.608 174.311 166.608Z" fill="#6C63FF"/>
<path d="M160.927 169.757H150.686C150.481 169.757 150.285 169.673 150.141 169.524C149.996 169.374 149.915 169.172 149.915 168.96C149.915 168.749 149.996 168.546 150.141 168.397C150.285 168.247 150.481 168.163 150.686 168.163H160.927C161.131 168.163 161.327 168.247 161.471 168.397C161.616 168.546 161.697 168.749 161.697 168.96C161.697 169.172 161.616 169.374 161.471 169.524C161.327 169.673 161.131 169.757 160.927 169.757Z" fill="#6C63FF"/>
<path d="M174.311 176.354H150.686C150.481 176.354 150.285 176.27 150.141 176.121C149.996 175.971 149.915 175.769 149.915 175.557C149.915 175.346 149.996 175.143 150.141 174.994C150.285 174.844 150.481 174.76 150.686 174.76H174.311C174.515 174.76 174.711 174.844 174.856 174.994C175 175.143 175.081 175.346 175.081 175.557C175.081 175.769 175 175.971 174.856 176.121C174.711 176.27 174.515 176.354 174.311 176.354Z" fill="#E4E4E4"/>
<path d="M174.311 179.504H150.686C150.584 179.505 150.484 179.484 150.39 179.444C150.296 179.404 150.211 179.346 150.14 179.271C150.068 179.197 150.011 179.109 149.972 179.013C149.933 178.916 149.913 178.812 149.913 178.707C149.913 178.602 149.933 178.498 149.972 178.402C150.011 178.305 150.068 178.217 150.14 178.143C150.211 178.069 150.296 178.01 150.39 177.97C150.484 177.93 150.584 177.91 150.686 177.91H174.311C174.515 177.91 174.711 177.994 174.856 178.143C175 178.293 175.081 178.496 175.081 178.707C175.081 178.919 175 179.121 174.856 179.271C174.711 179.42 174.515 179.504 174.311 179.504Z" fill="#E4E4E4"/>
<path d="M160.927 182.654H150.686C150.481 182.654 150.285 182.57 150.141 182.421C149.996 182.271 149.915 182.068 149.915 181.857C149.915 181.646 149.996 181.443 150.141 181.293C150.285 181.144 150.481 181.06 150.686 181.06H160.927C161.131 181.06 161.327 181.144 161.471 181.293C161.616 181.443 161.697 181.646 161.697 181.857C161.697 182.068 161.616 182.271 161.471 182.421C161.327 182.57 161.131 182.654 160.927 182.654Z" fill="#E4E4E4"/>
<path d="M235.027 105.365H206.98C206.583 105.366 206.203 105.53 205.923 105.82C205.642 106.111 205.485 106.505 205.486 106.915V152.752H236.525V106.915C236.525 106.712 236.486 106.51 236.411 106.322C236.336 106.134 236.226 105.963 236.086 105.819C235.947 105.675 235.782 105.561 235.6 105.483C235.419 105.405 235.224 105.365 235.027 105.365ZM221.098 131.409C220.221 131.405 219.381 131.043 218.76 130.401C218.14 129.76 217.79 128.891 217.786 127.983V122.696C217.787 121.788 218.136 120.918 218.757 120.276C219.378 119.634 220.22 119.274 221.098 119.274C221.975 119.274 222.817 119.634 223.438 120.276C224.059 120.918 224.409 121.788 224.41 122.696V127.983C224.406 128.891 224.055 129.76 223.435 130.401C222.815 131.043 221.975 131.405 221.098 131.409Z" fill="#2F2E41"/>
<path d="M205.389 151.286V155.708C205.39 155.938 205.478 156.157 205.635 156.319C205.791 156.481 206.004 156.573 206.225 156.573H235.786C236.007 156.572 236.219 156.48 236.375 156.319C236.532 156.157 236.62 155.937 236.621 155.708V151.286H205.389Z" fill="#3F3D56"/>
<path d="M281.47 33.8314H161.58C160.55 33.8331 159.563 34.2572 158.834 35.0107C158.106 35.7642 157.696 36.7857 157.694 37.8513V121.549C157.695 122.615 158.105 123.637 158.834 124.391C159.562 125.144 160.55 125.568 161.58 125.569H281.47C282.5 125.568 283.488 125.144 284.217 124.391C284.945 123.637 285.355 122.615 285.356 121.549V37.8514C285.354 36.7857 284.944 35.7642 284.216 35.0107C283.488 34.2572 282.5 33.8331 281.47 33.8314Z" fill="#3F3D56"/>
<path d="M280.47 36.735H162.582C162.03 36.7362 161.502 36.9637 161.112 37.3676C160.723 37.7715 160.504 38.3187 160.504 38.8893V120.513C160.505 121.083 160.724 121.629 161.113 122.032C161.503 122.435 162.031 122.662 162.582 122.663H280.47C281.02 122.662 281.548 122.435 281.938 122.032C282.327 121.629 282.547 121.083 282.548 120.513V38.8893C282.548 38.3187 282.329 37.7715 281.939 37.3676C281.55 36.9637 281.021 36.7362 280.47 36.735Z" fill="white"/>
<path d="M257.507 158.112H187.37C187.178 158.112 186.989 158.068 186.815 157.982C186.642 157.897 186.489 157.772 186.368 157.618C186.247 157.464 186.161 157.284 186.116 157.091C186.071 156.898 186.068 156.697 186.108 156.502L187.196 151.155C187.258 150.856 187.417 150.587 187.647 150.395C187.876 150.202 188.163 150.096 188.458 150.095H256.419C256.715 150.096 257.001 150.202 257.231 150.395C257.46 150.587 257.619 150.856 257.681 151.155L258.77 156.502C258.809 156.697 258.806 156.898 258.761 157.091C258.716 157.284 258.63 157.464 258.509 157.618C258.388 157.772 258.235 157.897 258.062 157.982C257.889 158.068 257.699 158.112 257.507 158.112H257.507Z" fill="#2F2E41"/>
<path d="M190.906 151.058H189.167C189.051 151.058 188.956 151.156 188.956 151.276V152.181C188.956 152.301 189.051 152.399 189.167 152.399H190.906C191.022 152.399 191.117 152.301 191.117 152.181V151.276C191.117 151.156 191.022 151.058 190.906 151.058Z" fill="#3F3D56"/>
<path d="M195.226 151.058H193.488C193.371 151.058 193.277 151.156 193.277 151.276V152.181C193.277 152.301 193.371 152.399 193.488 152.399H195.226C195.342 152.399 195.437 152.301 195.437 152.181V151.276C195.437 151.156 195.342 151.058 195.226 151.058Z" fill="#3F3D56"/>
<path d="M199.546 151.058H197.808C197.691 151.058 197.597 151.156 197.597 151.276V152.181C197.597 152.301 197.691 152.399 197.808 152.399H199.546C199.663 152.399 199.757 152.301 199.757 152.181V151.276C199.757 151.156 199.663 151.058 199.546 151.058Z" fill="#3F3D56"/>
<path d="M203.867 151.058H202.128C202.012 151.058 201.917 151.156 201.917 151.276V152.181C201.917 152.301 202.012 152.399 202.128 152.399H203.867C203.983 152.399 204.077 152.301 204.077 152.181V151.276C204.077 151.156 203.983 151.058 203.867 151.058Z" fill="#3F3D56"/>
<path d="M208.187 151.058H206.449C206.332 151.058 206.238 151.156 206.238 151.276V152.181C206.238 152.301 206.332 152.399 206.449 152.399H208.187C208.303 152.399 208.398 152.301 208.398 152.181V151.276C208.398 151.156 208.303 151.058 208.187 151.058Z" fill="#3F3D56"/>
<path d="M212.507 151.058H210.769C210.652 151.058 210.558 151.156 210.558 151.276V152.181C210.558 152.301 210.652 152.399 210.769 152.399H212.507C212.624 152.399 212.718 152.301 212.718 152.181V151.276C212.718 151.156 212.624 151.058 212.507 151.058Z" fill="#3F3D56"/>
<path d="M216.827 151.058H215.089C214.973 151.058 214.878 151.156 214.878 151.276V152.181C214.878 152.301 214.973 152.399 215.089 152.399H216.827C216.944 152.399 217.038 152.301 217.038 152.181V151.276C217.038 151.156 216.944 151.058 216.827 151.058Z" fill="#3F3D56"/>
<path d="M221.148 151.058H219.409C219.293 151.058 219.198 151.156 219.198 151.276V152.181C219.198 152.301 219.293 152.399 219.409 152.399H221.148C221.264 152.399 221.359 152.301 221.359 152.181V151.276C221.359 151.156 221.264 151.058 221.148 151.058Z" fill="#3F3D56"/>
<path d="M225.468 151.058H223.73C223.613 151.058 223.519 151.156 223.519 151.276V152.181C223.519 152.301 223.613 152.399 223.73 152.399H225.468C225.584 152.399 225.679 152.301 225.679 152.181V151.276C225.679 151.156 225.584 151.058 225.468 151.058Z" fill="#3F3D56"/>
<path d="M229.788 151.058H228.05C227.933 151.058 227.839 151.156 227.839 151.276V152.181C227.839 152.301 227.933 152.399 228.05 152.399H229.788C229.905 152.399 229.999 152.301 229.999 152.181V151.276C229.999 151.156 229.905 151.058 229.788 151.058Z" fill="#3F3D56"/>
<path d="M234.109 151.058H232.37C232.254 151.058 232.159 151.156 232.159 151.276V152.181C232.159 152.301 232.254 152.399 232.37 152.399H234.109C234.225 152.399 234.319 152.301 234.319 152.181V151.276C234.319 151.156 234.225 151.058 234.109 151.058Z" fill="#3F3D56"/>
<path d="M238.429 151.058H236.691C236.574 151.058 236.48 151.156 236.48 151.276V152.181C236.48 152.301 236.574 152.399 236.691 152.399H238.429C238.545 152.399 238.64 152.301 238.64 152.181V151.276C238.64 151.156 238.545 151.058 238.429 151.058Z" fill="#3F3D56"/>
<path d="M242.749 151.058H241.011C240.894 151.058 240.8 151.156 240.8 151.276V152.181C240.8 152.301 240.894 152.399 241.011 152.399H242.749C242.866 152.399 242.96 152.301 242.96 152.181V151.276C242.96 151.156 242.866 151.058 242.749 151.058Z" fill="#3F3D56"/>
<path d="M247.069 151.058H245.331C245.215 151.058 245.12 151.156 245.12 151.276V152.181C245.12 152.301 245.215 152.399 245.331 152.399H247.069C247.186 152.399 247.28 152.301 247.28 152.181V151.276C247.28 151.156 247.186 151.058 247.069 151.058Z" fill="#3F3D56"/>
<path d="M251.39 151.058H249.651C249.535 151.058 249.44 151.156 249.44 151.276V152.181C249.44 152.301 249.535 152.399 249.651 152.399H251.39C251.506 152.399 251.601 152.301 251.601 152.181V151.276C251.601 151.156 251.506 151.058 251.39 151.058Z" fill="#3F3D56"/>
<path d="M255.71 151.058H253.972C253.855 151.058 253.761 151.156 253.761 151.276V152.181C253.761 152.301 253.855 152.399 253.972 152.399H255.71C255.826 152.399 255.921 152.301 255.921 152.181V151.276C255.921 151.156 255.826 151.058 255.71 151.058Z" fill="#3F3D56"/>
<path d="M190.855 153.293H189.116C189 153.293 188.905 153.39 188.905 153.511V154.415C188.905 154.536 189 154.634 189.116 154.634H190.855C190.971 154.634 191.066 154.536 191.066 154.415V153.511C191.066 153.39 190.971 153.293 190.855 153.293Z" fill="#3F3D56"/>
<path d="M195.175 153.293H193.437C193.32 153.293 193.226 153.39 193.226 153.511V154.415C193.226 154.536 193.32 154.634 193.437 154.634H195.175C195.291 154.634 195.386 154.536 195.386 154.415V153.511C195.386 153.39 195.291 153.293 195.175 153.293Z" fill="#3F3D56"/>
<path d="M199.495 153.293H197.757C197.64 153.293 197.546 153.39 197.546 153.511V154.415C197.546 154.536 197.64 154.634 197.757 154.634H199.495C199.612 154.634 199.706 154.536 199.706 154.415V153.511C199.706 153.39 199.612 153.293 199.495 153.293Z" fill="#3F3D56"/>
<path d="M203.816 153.293H202.077C201.961 153.293 201.866 153.39 201.866 153.511V154.415C201.866 154.536 201.961 154.634 202.077 154.634H203.816C203.932 154.634 204.026 154.536 204.026 154.415V153.511C204.026 153.39 203.932 153.293 203.816 153.293Z" fill="#3F3D56"/>
<path d="M208.136 153.293H206.397C206.281 153.293 206.187 153.39 206.187 153.511V154.415C206.187 154.536 206.281 154.634 206.397 154.634H208.136C208.252 154.634 208.347 154.536 208.347 154.415V153.511C208.347 153.39 208.252 153.293 208.136 153.293Z" fill="#3F3D56"/>
<path d="M212.456 153.293H210.718C210.601 153.293 210.507 153.39 210.507 153.511V154.415C210.507 154.536 210.601 154.634 210.718 154.634H212.456C212.573 154.634 212.667 154.536 212.667 154.415V153.511C212.667 153.39 212.573 153.293 212.456 153.293Z" fill="#3F3D56"/>
<path d="M216.776 153.293H215.038C214.922 153.293 214.827 153.39 214.827 153.511V154.415C214.827 154.536 214.922 154.634 215.038 154.634H216.776C216.893 154.634 216.987 154.536 216.987 154.415V153.511C216.987 153.39 216.893 153.293 216.776 153.293Z" fill="#3F3D56"/>
<path d="M221.097 153.293H219.358C219.242 153.293 219.147 153.39 219.147 153.511V154.415C219.147 154.536 219.242 154.634 219.358 154.634H221.097C221.213 154.634 221.308 154.536 221.308 154.415V153.511C221.308 153.39 221.213 153.293 221.097 153.293Z" fill="#3F3D56"/>
<path d="M225.417 153.293H223.679C223.562 153.293 223.468 153.39 223.468 153.511V154.415C223.468 154.536 223.562 154.634 223.679 154.634H225.417C225.533 154.634 225.628 154.536 225.628 154.415V153.511C225.628 153.39 225.533 153.293 225.417 153.293Z" fill="#3F3D56"/>
<path d="M229.737 153.293H227.999C227.882 153.293 227.788 153.39 227.788 153.511V154.415C227.788 154.536 227.882 154.634 227.999 154.634H229.737C229.854 154.634 229.948 154.536 229.948 154.415V153.511C229.948 153.39 229.854 153.293 229.737 153.293Z" fill="#3F3D56"/>
<path d="M234.058 153.293H232.319C232.203 153.293 232.108 153.39 232.108 153.511V154.415C232.108 154.536 232.203 154.634 232.319 154.634H234.058C234.174 154.634 234.268 154.536 234.268 154.415V153.511C234.268 153.39 234.174 153.293 234.058 153.293Z" fill="#3F3D56"/>
<path d="M238.378 153.293H236.639C236.523 153.293 236.429 153.39 236.429 153.511V154.415C236.429 154.536 236.523 154.634 236.639 154.634H238.378C238.494 154.634 238.589 154.536 238.589 154.415V153.511C238.589 153.39 238.494 153.293 238.378 153.293Z" fill="#3F3D56"/>
<path d="M242.698 153.293H240.96C240.843 153.293 240.749 153.39 240.749 153.511V154.415C240.749 154.536 240.843 154.634 240.96 154.634H242.698C242.815 154.634 242.909 154.536 242.909 154.415V153.511C242.909 153.39 242.815 153.293 242.698 153.293Z" fill="#3F3D56"/>
<path d="M247.018 153.293H245.28C245.164 153.293 245.069 153.39 245.069 153.511V154.415C245.069 154.536 245.164 154.634 245.28 154.634H247.018C247.135 154.634 247.229 154.536 247.229 154.415V153.511C247.229 153.39 247.135 153.293 247.018 153.293Z" fill="#3F3D56"/>
<path d="M251.339 153.293H249.6C249.484 153.293 249.389 153.39 249.389 153.511V154.415C249.389 154.536 249.484 154.634 249.6 154.634H251.339C251.455 154.634 251.55 154.536 251.55 154.415V153.511C251.55 153.39 251.455 153.293 251.339 153.293Z" fill="#3F3D56"/>
<path d="M255.659 153.293H253.921C253.804 153.293 253.71 153.39 253.71 153.511V154.415C253.71 154.536 253.804 154.634 253.921 154.634H255.659C255.775 154.634 255.87 154.536 255.87 154.415V153.511C255.87 153.39 255.775 153.293 255.659 153.293Z" fill="#3F3D56"/>
<path d="M226.713 155.974H209.854C209.737 155.974 209.643 156.072 209.643 156.193V157.097C209.643 157.218 209.737 157.315 209.854 157.315H226.713C226.829 157.315 226.924 157.218 226.924 157.097V156.193C226.924 156.072 226.829 155.974 226.713 155.974Z" fill="#3F3D56"/>
<path d="M272.351 260.124L269.02 254.586L268.354 257.75C268.238 258.304 268.121 258.868 268.013 259.426C267.067 258.59 266.06 257.817 265.075 257.075C262.051 254.805 259.028 252.531 256.007 250.255L256.953 255.931C257.536 259.426 258.146 262.993 259.588 266.189C259.748 266.551 259.921 266.908 260.107 267.257H274.165C274.278 266.933 274.357 266.597 274.399 266.256C274.402 266.234 274.403 266.211 274.403 266.189C274.623 264.021 273.465 261.978 272.351 260.124Z" fill="#F0F0F0"/>
<path d="M82.258 260.124L78.927 254.586L78.2617 257.75C78.1451 258.304 78.0284 258.868 77.9204 259.426C76.9743 258.59 75.9676 257.817 74.9827 257.075C71.9585 254.805 68.9357 252.531 65.9143 250.255L66.8604 255.931C67.4437 259.426 68.0529 262.993 69.4958 266.189C69.6557 266.551 69.8285 266.908 70.0144 267.257H84.0726C84.1857 266.933 84.2639 266.597 84.3059 266.256C84.3094 266.234 84.3108 266.211 84.3101 266.189C84.5306 264.021 83.3726 261.978 82.258 260.124Z" fill="#F0F0F0"/>
<path d="M349.486 267.863L230.354 268C230.217 268 230.086 267.944 229.99 267.844C229.893 267.744 229.839 267.609 229.839 267.468C229.839 267.327 229.893 267.191 229.99 267.091C230.086 266.992 230.217 266.936 230.354 266.936L349.486 266.798C349.622 266.798 349.753 266.854 349.849 266.954C349.946 267.054 350 267.189 350 267.33C350 267.472 349.946 267.607 349.849 267.707C349.753 267.807 349.622 267.863 349.486 267.863Z" fill="#CACACA"/>
<path d="M274.544 47.9808H164.237C164.122 47.9782 164.013 47.9292 163.933 47.8444C163.852 47.7596 163.807 47.6457 163.807 47.527C163.807 47.4084 163.852 47.2945 163.933 47.2096C164.013 47.1248 164.122 47.0758 164.237 47.0732H274.544C274.658 47.0758 274.767 47.1248 274.848 47.2096C274.928 47.2945 274.973 47.4084 274.973 47.527C274.973 47.6457 274.928 47.7596 274.848 47.8444C274.767 47.9292 274.658 47.9782 274.544 47.9808Z" fill="#CACACA"/>
<path d="M171.745 44.7561C173.165 44.7561 174.316 43.5388 174.316 42.0372C174.316 40.5357 173.165 39.3184 171.745 39.3184C170.326 39.3184 169.175 40.5357 169.175 42.0372C169.175 43.5388 170.326 44.7561 171.745 44.7561Z" fill="#3F3D56"/>
<path d="M180.626 44.7561C182.046 44.7561 183.197 43.5388 183.197 42.0372C183.197 40.5357 182.046 39.3184 180.626 39.3184C179.206 39.3184 178.055 40.5357 178.055 42.0372C178.055 43.5388 179.206 44.7561 180.626 44.7561Z" fill="#3F3D56"/>
<path d="M189.507 44.7561C190.927 44.7561 192.078 43.5388 192.078 42.0372C192.078 40.5357 190.927 39.3184 189.507 39.3184C188.087 39.3184 186.936 40.5357 186.936 42.0372C186.936 43.5388 188.087 44.7561 189.507 44.7561Z" fill="#3F3D56"/>
<path d="M269.197 39.9923H262.888C262.763 39.9949 262.644 40.0481 262.556 40.1405C262.469 40.2328 262.42 40.3571 262.42 40.4865C262.42 40.6158 262.469 40.7401 262.556 40.8324C262.644 40.9248 262.763 40.978 262.888 40.9806H269.197C269.322 40.978 269.441 40.9248 269.528 40.8324C269.616 40.7401 269.665 40.6158 269.665 40.4865C269.665 40.3571 269.616 40.2328 269.528 40.1405C269.441 40.0481 269.322 39.9949 269.197 39.9923Z" fill="#3F3D56"/>
<path d="M269.197 41.8472H262.888C262.763 41.8498 262.644 41.903 262.556 41.9954C262.469 42.0878 262.42 42.212 262.42 42.3414C262.42 42.4708 262.469 42.595 262.556 42.6874C262.644 42.7798 262.763 42.833 262.888 42.8356H269.197C269.322 42.833 269.441 42.7798 269.528 42.6874C269.616 42.595 269.665 42.4708 269.665 42.3414C269.665 42.212 269.616 42.0878 269.528 41.9954C269.441 41.903 269.322 41.8498 269.197 41.8472Z" fill="#3F3D56"/>
<path d="M269.197 43.6998H262.888C262.763 43.7023 262.644 43.7555 262.556 43.8479C262.469 43.9403 262.42 44.0646 262.42 44.1939C262.42 44.3233 262.469 44.4475 262.556 44.5399C262.644 44.6323 262.763 44.6855 262.888 44.6881H269.197C269.322 44.6855 269.441 44.6323 269.528 44.5399C269.616 44.4475 269.665 44.3233 269.665 44.1939C269.665 44.0646 269.616 43.9403 269.528 43.8479C269.441 43.7555 269.322 43.7023 269.197 43.6998Z" fill="#3F3D56"/>
<path d="M228.296 72.7056H214.513C213.478 72.7056 212.638 73.5739 212.638 74.645C212.638 75.716 213.478 76.5843 214.513 76.5843H228.296C229.331 76.5843 230.171 75.716 230.171 74.645C230.171 73.5739 229.331 72.7056 228.296 72.7056Z" fill="#6C63FF"/>
<path d="M237.2 80.463H205.609C204.573 80.463 203.734 81.3313 203.734 82.4023C203.734 83.4734 204.573 84.3417 205.609 84.3417H237.2C238.236 84.3417 239.075 83.4734 239.075 82.4023C239.075 81.3313 238.236 80.463 237.2 80.463Z" fill="#E6E6E6"/>
<path d="M237.2 88.2204H205.609C204.573 88.2204 203.734 89.0886 203.734 90.1597C203.734 91.2308 204.573 92.099 205.609 92.099H237.2C238.236 92.099 239.075 91.2308 239.075 90.1597C239.075 89.0886 238.236 88.2204 237.2 88.2204Z" fill="#E6E6E6"/>
<path d="M175.512 117.983C175.515 119.581 175.24 121.166 174.7 122.663H162.582C162.031 122.662 161.503 122.435 161.113 122.032C160.724 121.629 160.505 121.083 160.504 120.513V104.744C161.181 104.631 161.866 104.574 162.552 104.574C164.254 104.574 165.939 104.921 167.512 105.595C169.084 106.269 170.513 107.256 171.717 108.501C172.92 109.746 173.875 111.225 174.526 112.852C175.177 114.478 175.513 116.222 175.512 117.983Z" fill="#E6E6E6"/>
<path d="M151.603 130.45C151.421 135.881 140.257 150.532 134.386 152.633C133.388 152.99 132.805 153.187 132.805 153.187L130.761 152.548L106.015 144.802C101.682 147.439 88.7553 148.78 78.149 149.45C69.7071 149.982 62.7298 150.089 62.7298 150.089C60.2394 169.685 55.3313 188.429 47.0515 205.986L37.1149 204.198L46.5022 138.799C46.7049 137.387 47.3043 136.067 48.2258 135.005C49.1474 133.942 50.3505 133.183 51.6857 132.821L119.213 114.547C119.213 114.547 122.937 113.85 130.792 117.77C143.722 124.224 151.732 126.499 151.603 130.45Z" fill="#2F2E41"/>
<path d="M128.382 253.85L123.336 256.57L110.793 237.728L118.242 233.713L128.382 253.85Z" fill="#A0616A"/>
<path d="M131.303 259.201L115.785 267.565L115.683 267.362C114.848 265.705 114.684 263.772 115.227 261.99C115.769 260.208 116.974 258.721 118.576 257.858L118.576 257.857L120.29 254.105L126.699 253.479L128.054 252.749L131.303 259.201Z" fill="#2F2E41"/>
<path d="M138.699 129.399C140.964 134.302 137.608 152.632 133.339 157.302L132.206 158.099L131.823 158.306C129.263 167.266 101.785 193.474 101.785 193.474C111.066 205.707 116.851 220.746 120.541 237.467L112.296 241.408L82.0858 194.75C81.2946 193.528 80.8794 192.086 80.895 190.616C80.9105 189.145 81.3561 187.713 82.173 186.509L94.4975 168.347L114.58 128.103C128.93 127.645 137.049 125.834 138.699 129.399Z" fill="#2F2E41"/>
<path d="M150.908 132.357C107.536 125.534 103.584 119.397 103.16 119.506L102.783 119.603L109.067 108.615L111.372 105.798L109.599 104.487L110.303 99.0416C110.851 96.8356 111.295 94.2375 111.059 93.8896C110.57 93.3298 109.482 92.3117 109.471 92.3015L109.331 92.1706L110.964 88.2276L113.152 56.702L118.792 45.0695L130.433 37.9298L140.694 38.0583L149.711 46.7111C153.539 48.6163 156.653 51.7751 158.57 55.6975C160.486 59.62 161.098 64.087 160.31 68.4058L155.73 93.4347L154.045 106.335L156.794 109.179L155.084 110.949L154.067 116.976L155.108 123.801C155.923 130.003 152.302 130.373 152.034 130.45C152.019 130.455 151.232 132.585 151.199 132.585C151.115 132.585 151.108 132.389 150.908 132.357Z" fill="#6C63FF"/>
<path d="M148.631 157.242C149.126 156.741 149.51 156.134 149.754 155.464C149.998 154.794 150.097 154.076 150.044 153.362C149.991 152.648 149.787 151.954 149.447 151.331C149.107 150.707 148.639 150.167 148.076 149.751L152.834 133.049L144.469 135.692L141.234 151.147C140.62 152.172 140.391 153.395 140.59 154.583C140.79 155.771 141.404 156.842 142.316 157.594C143.227 158.345 144.374 158.724 145.538 158.659C146.702 158.594 147.802 158.09 148.631 157.242V157.242Z" fill="#A0616A"/>
<path d="M149.403 145.653L140.362 141.458L147.615 110.3L134.109 76.3823C133.441 74.7057 133.139 72.8977 133.222 71.0865C133.306 69.2753 133.774 67.5055 134.594 65.9026C135.413 64.2997 136.564 62.903 137.963 61.8118C139.363 60.7206 140.978 59.9615 142.693 59.5885C145.792 58.9185 149.021 59.5475 151.672 61.3375C154.323 63.1276 156.179 65.9325 156.834 69.1369L165.048 109.572L149.403 145.653Z" fill="#6C63FF"/>
<path d="M113.705 26.6359L117.01 12.4166C117.123 11.9302 117.419 11.5104 117.831 11.2491C118.244 10.9878 118.739 10.9064 119.21 11.0229L122.205 11.768C122.675 11.8855 123.081 12.1912 123.334 12.6179C123.586 13.0446 123.665 13.5575 123.552 14.0442L120.248 28.2635C120.134 28.7498 119.839 29.1697 119.426 29.431C119.014 29.6923 118.518 29.7737 118.048 29.6572L115.052 28.9121C114.582 28.7946 114.176 28.4889 113.924 28.0622C113.671 27.6355 113.592 27.1225 113.705 26.6359Z" fill="#3F3D56"/>
<path d="M119.392 11.8353C119.138 11.7726 118.871 11.8164 118.649 11.9572C118.427 12.098 118.267 12.3243 118.206 12.5864L114.901 26.8057C114.841 27.0679 114.883 27.3443 115.019 27.5743C115.155 27.8042 115.374 27.9689 115.627 28.0323L118.623 28.7774C118.876 28.8401 119.144 28.7963 119.366 28.6555C119.588 28.5147 119.747 28.2884 119.808 28.0264L123.113 13.807C123.174 13.5448 123.132 13.2684 122.995 13.0384C122.859 12.8085 122.641 12.6438 122.387 12.5804L119.392 11.8353Z" fill="#6C63FF"/>
<path d="M133.251 35.6031C141.354 35.6031 147.922 28.8079 147.922 20.4255C147.922 12.0432 141.354 5.24792 133.251 5.24792C125.149 5.24792 118.581 12.0432 118.581 20.4255C118.581 28.8079 125.149 35.6031 133.251 35.6031Z" fill="#A0616A"/>
<path d="M140.018 30.5738L140.546 27.4996C140.871 25.461 140.534 23.3685 139.587 21.5493C138.64 19.7301 137.137 18.2868 135.314 17.4451L134.86 17.2183L135.234 17.0118C135.352 16.9462 135.445 16.8396 135.496 16.7105C135.547 16.5815 135.552 16.4382 135.511 16.3054C135.471 16.1727 135.386 16.0589 135.273 15.9838C135.159 15.9087 135.024 15.877 134.891 15.8942L134.467 15.9488C134.178 15.9854 133.884 15.9347 133.623 15.8029C133.361 15.6712 133.141 15.4638 132.991 15.206C132.84 14.9481 132.765 14.6507 132.774 14.3497C132.783 14.0486 132.877 13.7567 133.042 13.5091C131.578 14.1369 130.015 14.4845 128.431 14.535C126.137 14.5172 124.145 13.3607 123.354 11.5886C123.162 11.148 123.044 10.6766 123.004 10.1949C120.582 11.1824 119.276 14.1426 119.262 14.1736L118.546 15.827L118.853 14.0431C118.862 13.9888 119.799 8.58599 121.159 5.23402C122.621 1.62999 128.705 -0.269586 137.846 0.0309308C146.774 0.32119 148.755 10.8526 148.925 11.8716C151.461 14.3964 150.539 19.1768 149.759 21.8134C148.496 26.0833 146.003 30.332 144.629 30.5557C144.506 30.5796 144.379 30.5653 144.264 30.5146C144.149 30.4639 144.051 30.3791 143.982 30.2709C143.845 30.0447 143.662 29.8513 143.447 29.7034C143.232 29.5556 142.989 29.4568 142.734 29.4134C141.624 29.2502 140.478 30.1916 140.467 30.201L140.018 30.5738Z" fill="#2F2E41"/>
<path d="M119.646 267.863L0.514509 268C0.378337 268 0.24788 267.943 0.151732 267.844C0.0555829 267.744 0.00158691 267.609 0.00158691 267.468C0.00158691 267.327 0.0555829 267.192 0.151732 267.092C0.24788 266.992 0.378337 266.936 0.514509 266.936L119.646 266.798C119.783 266.798 119.914 266.854 120.01 266.954C120.107 267.054 120.161 267.189 120.161 267.33C120.161 267.472 120.107 267.607 120.01 267.707C119.914 267.807 119.783 267.863 119.646 267.863Z" fill="#CACACA"/>
</g>
<defs>
<clipPath id="clip0_23_2">
<rect width="350" height="268" fill="white"/>
</clipPath>
</defs>
</svg>
