<svg width="544" height="398" viewBox="0 0 544 398" fill="none" xmlns="http://www.w3.org/2000/svg">
<g clip-path="url(#clip0_185_283)">
<path d="M316.879 70.1627C327.075 70.1627 335.34 61.8486 335.34 51.5926C335.34 41.3366 327.075 33.0225 316.879 33.0225C306.684 33.0225 298.418 41.3366 298.418 51.5926C298.418 61.8486 306.684 70.1627 316.879 70.1627Z" fill="#F2F2F2"/>
<path d="M460.084 345.765C487.524 324.741 500.63 289.412 492.425 255.711C492.221 254.873 492.006 254.038 491.779 253.204C486.34 233.2 472.882 214.187 453.269 207.795C436.8 202.428 418.824 206.555 401.643 204.421C367.916 200.231 341.768 172.78 323.37 144.039C304.972 115.297 290.832 83.1253 266.384 59.3807C226.087 20.2417 160.351 11.815 110.388 37.2916C60.425 62.7682 28.599 119.29 29.9563 175.621C31.3137 231.953 64.5579 285.809 112.837 314.384C130.572 324.881 151.085 332.317 171.5 329.715C189.214 327.457 205.308 317.883 222.939 315.04C250.657 310.571 278.199 323.178 302.174 337.869C326.148 352.56 349.306 369.973 376.55 376.783C403.003 383.396 435.777 364.388 460.084 345.765Z" fill="#F2F2F2"/>
<path d="M420.66 38.4746C420.058 38.0712 419.45 37.6886 418.848 37.2992C401.461 26.1127 382.824 17.025 363.323 10.2237L358.801 72.9709H330.136V1.0641C328.332 0.688535 326.513 0.333836 324.695 0V72.9709H290.63C271.877 72.9709 253.892 65.4771 240.632 52.1381C227.371 38.799 219.922 20.7074 219.922 1.84313V1.84307C218.096 2.2395 216.285 2.66375 214.473 3.11582V72.9709H186.728L182.42 13.1378C162.38 20.8691 143.355 31.0361 125.768 43.4126C125.464 43.6212 125.159 43.8368 124.862 44.0454C123.334 45.1235 121.827 46.2223 120.327 47.3351V286.716H202.097L200.652 266.582L192.701 156.033H352.821L344.87 266.582L343.425 286.716H424.29V40.8949C423.087 40.0742 421.877 39.2674 420.66 38.4746ZM214.473 137.777H191.388L187.122 78.4514H214.473V137.777ZM324.695 137.777H285.922V136.601C285.922 136.036 285.811 135.477 285.596 134.955C285.381 134.433 285.065 133.959 284.668 133.56C284.27 133.16 283.798 132.844 283.279 132.628C282.76 132.413 282.204 132.302 281.642 132.303H264.786C264.225 132.303 263.669 132.414 263.15 132.63C262.632 132.846 262.161 133.162 261.764 133.562C261.367 133.961 261.053 134.435 260.838 134.956C260.623 135.478 260.513 136.037 260.513 136.601V137.777H219.922V78.4514H324.695V137.777ZM330.136 137.777V78.4514H358.407L354.141 137.777H330.136Z" fill="#3F3D56"/>
<path d="M0 302.045C6.00629 309.204 12.5028 315.932 19.4419 322.18L524.558 322.875C531.497 316.628 537.994 309.9 544 302.741L0 302.045Z" fill="#3F3D56"/>
<path d="M342.536 237.574V297.18C342.536 297.94 342.836 298.668 343.37 299.205C343.904 299.742 344.628 300.044 345.383 300.045H433.193C433.948 300.044 434.672 299.742 435.206 299.205C435.74 298.668 436.041 297.94 436.041 297.18V237.574C436.039 236.815 435.739 236.087 435.205 235.551C434.671 235.015 433.948 234.713 433.193 234.712H345.383C344.629 234.713 343.906 235.015 343.372 235.551C342.838 236.087 342.537 236.815 342.536 237.574Z" fill="#3F3D56"/>
<path d="M344.596 238.315V296.445C344.596 296.85 344.757 297.24 345.042 297.526C345.328 297.813 345.714 297.975 346.118 297.976H432.462C432.866 297.975 433.253 297.813 433.538 297.526C433.823 297.24 433.984 296.85 433.984 296.445V238.315C433.984 237.909 433.824 237.519 433.539 237.232C433.253 236.944 432.866 236.782 432.462 236.781H346.118C345.714 236.782 345.327 236.944 345.041 237.232C344.756 237.519 344.596 237.909 344.596 238.315Z" fill="#25221D"/>
<path d="M340.699 308.805C340.86 309.008 341.064 309.171 341.297 309.283C341.53 309.395 341.785 309.453 342.043 309.452H436.066C436.324 309.451 436.577 309.393 436.809 309.282C437.041 309.17 437.246 309.008 437.408 308.807C437.57 308.607 437.685 308.372 437.746 308.12C437.806 307.869 437.81 307.607 437.758 307.354L436.298 300.38C436.238 300.096 436.107 299.831 435.919 299.61C435.731 299.39 435.491 299.22 435.221 299.116C435.025 299.039 434.817 298.999 434.607 299H343.497C343.286 298.999 343.078 299.039 342.883 299.116C342.612 299.22 342.372 299.39 342.184 299.61C341.996 299.831 341.866 300.096 341.805 300.38L340.346 307.354C340.294 307.607 340.299 307.869 340.36 308.12C340.421 308.371 340.537 308.605 340.699 308.805Z" fill="#2F2E41"/>
<path d="M431.381 302.003H433.601C433.788 302.003 433.939 301.851 433.939 301.664V300.595C433.939 300.407 433.788 300.255 433.601 300.255H431.381C431.194 300.255 431.043 300.407 431.043 300.595V301.664C431.043 301.851 431.194 302.003 431.381 302.003Z" fill="#3F3D56"/>
<path d="M425.589 302.003H427.81C427.996 302.003 428.147 301.851 428.147 301.664V300.595C428.147 300.407 427.996 300.255 427.81 300.255H425.589C425.403 300.255 425.252 300.407 425.252 300.595V301.664C425.252 301.851 425.403 302.003 425.589 302.003Z" fill="#3F3D56"/>
<path d="M419.797 302.003H422.018C422.204 302.003 422.355 301.851 422.355 301.664V300.595C422.355 300.407 422.204 300.255 422.018 300.255H419.797C419.611 300.255 419.46 300.407 419.46 300.595V301.664C419.46 301.851 419.611 302.003 419.797 302.003Z" fill="#3F3D56"/>
<path d="M414.006 302.003H416.226C416.413 302.003 416.564 301.851 416.564 301.664V300.595C416.564 300.407 416.413 300.255 416.226 300.255H414.006C413.819 300.255 413.668 300.407 413.668 300.595V301.664C413.668 301.851 413.819 302.003 414.006 302.003Z" fill="#3F3D56"/>
<path d="M408.214 302.003H410.434C410.621 302.003 410.772 301.851 410.772 301.664V300.595C410.772 300.407 410.621 300.255 410.434 300.255H408.214C408.027 300.255 407.876 300.407 407.876 300.595V301.664C407.876 301.851 408.027 302.003 408.214 302.003Z" fill="#3F3D56"/>
<path d="M402.422 302.003H404.643C404.829 302.003 404.98 301.851 404.98 301.664V300.595C404.98 300.407 404.829 300.255 404.643 300.255H402.422C402.236 300.255 402.085 300.407 402.085 300.595V301.664C402.085 301.851 402.236 302.003 402.422 302.003Z" fill="#3F3D56"/>
<path d="M396.63 302.003H398.851C399.037 302.003 399.188 301.851 399.188 301.664V300.595C399.188 300.407 399.037 300.255 398.851 300.255H396.63C396.444 300.255 396.293 300.407 396.293 300.595V301.664C396.293 301.851 396.444 302.003 396.63 302.003Z" fill="#3F3D56"/>
<path d="M390.839 302.003H393.059C393.246 302.003 393.397 301.851 393.397 301.664V300.595C393.397 300.407 393.246 300.255 393.059 300.255H390.839C390.652 300.255 390.501 300.407 390.501 300.595V301.664C390.501 301.851 390.652 302.003 390.839 302.003Z" fill="#3F3D56"/>
<path d="M385.047 302.003H387.267C387.454 302.003 387.605 301.851 387.605 301.664V300.595C387.605 300.407 387.454 300.255 387.267 300.255H385.047C384.86 300.255 384.709 300.407 384.709 300.595V301.664C384.709 301.851 384.86 302.003 385.047 302.003Z" fill="#3F3D56"/>
<path d="M379.255 302.003H381.475C381.662 302.003 381.813 301.851 381.813 301.664V300.595C381.813 300.407 381.662 300.255 381.475 300.255H379.255C379.068 300.255 378.917 300.407 378.917 300.595V301.664C378.917 301.851 379.068 302.003 379.255 302.003Z" fill="#3F3D56"/>
<path d="M373.463 302.003H375.684C375.87 302.003 376.021 301.851 376.021 301.664V300.595C376.021 300.407 375.87 300.255 375.684 300.255H373.463C373.277 300.255 373.126 300.407 373.126 300.595V301.664C373.126 301.851 373.277 302.003 373.463 302.003Z" fill="#3F3D56"/>
<path d="M367.671 302.003H369.892C370.078 302.003 370.229 301.851 370.229 301.664V300.595C370.229 300.407 370.078 300.255 369.892 300.255H367.671C367.485 300.255 367.334 300.407 367.334 300.595V301.664C367.334 301.851 367.485 302.003 367.671 302.003Z" fill="#3F3D56"/>
<path d="M361.88 302.003H364.1C364.287 302.003 364.438 301.851 364.438 301.664V300.595C364.438 300.407 364.287 300.255 364.1 300.255H361.88C361.693 300.255 361.542 300.407 361.542 300.595V301.664C361.542 301.851 361.693 302.003 361.88 302.003Z" fill="#3F3D56"/>
<path d="M356.088 302.003H358.308C358.495 302.003 358.646 301.851 358.646 301.664V300.595C358.646 300.407 358.495 300.255 358.308 300.255H356.088C355.901 300.255 355.75 300.407 355.75 300.595V301.664C355.75 301.851 355.901 302.003 356.088 302.003Z" fill="#3F3D56"/>
<path d="M350.296 302.003H352.517C352.703 302.003 352.854 301.851 352.854 301.664V300.595C352.854 300.407 352.703 300.255 352.517 300.255H350.296C350.11 300.255 349.959 300.407 349.959 300.595V301.664C349.959 301.851 350.11 302.003 350.296 302.003Z" fill="#3F3D56"/>
<path d="M344.504 302.003H346.725C346.911 302.003 347.062 301.851 347.062 301.664V300.595C347.062 300.407 346.911 300.255 346.725 300.255H344.504C344.318 300.255 344.167 300.407 344.167 300.595V301.664C344.167 301.851 344.318 302.003 344.504 302.003Z" fill="#3F3D56"/>
<path d="M431.449 304.916H433.67C433.856 304.916 434.007 304.764 434.007 304.577V303.508C434.007 303.32 433.856 303.168 433.67 303.168H431.449C431.263 303.168 431.111 303.32 431.111 303.508V304.577C431.111 304.764 431.263 304.916 431.449 304.916Z" fill="#3F3D56"/>
<path d="M425.657 304.916H427.878C428.065 304.916 428.216 304.764 428.216 304.577V303.508C428.216 303.32 428.065 303.168 427.878 303.168H425.657C425.471 303.168 425.32 303.32 425.32 303.508V304.577C425.32 304.764 425.471 304.916 425.657 304.916Z" fill="#3F3D56"/>
<path d="M419.865 304.916H422.086C422.273 304.916 422.424 304.764 422.424 304.577V303.508C422.424 303.32 422.273 303.168 422.086 303.168H419.865C419.679 303.168 419.528 303.32 419.528 303.508V304.577C419.528 304.764 419.679 304.916 419.865 304.916Z" fill="#3F3D56"/>
<path d="M414.074 304.916H416.295C416.481 304.916 416.632 304.764 416.632 304.577V303.508C416.632 303.32 416.481 303.168 416.295 303.168H414.074C413.888 303.168 413.736 303.32 413.736 303.508V304.577C413.736 304.764 413.888 304.916 414.074 304.916Z" fill="#3F3D56"/>
<path d="M408.282 304.916H410.503C410.689 304.916 410.84 304.764 410.84 304.577V303.508C410.84 303.32 410.689 303.168 410.503 303.168H408.282C408.096 303.168 407.944 303.32 407.944 303.508V304.577C407.944 304.764 408.096 304.916 408.282 304.916Z" fill="#3F3D56"/>
<path d="M402.49 304.916H404.711C404.898 304.916 405.049 304.764 405.049 304.577V303.508C405.049 303.32 404.898 303.168 404.711 303.168H402.49C402.304 303.168 402.153 303.32 402.153 303.508V304.577C402.153 304.764 402.304 304.916 402.49 304.916Z" fill="#3F3D56"/>
<path d="M396.698 304.916H398.919C399.106 304.916 399.257 304.764 399.257 304.577V303.508C399.257 303.32 399.106 303.168 398.919 303.168H396.698C396.512 303.168 396.361 303.32 396.361 303.508V304.577C396.361 304.764 396.512 304.916 396.698 304.916Z" fill="#3F3D56"/>
<path d="M390.907 304.916H393.128C393.314 304.916 393.465 304.764 393.465 304.577V303.508C393.465 303.32 393.314 303.168 393.128 303.168H390.907C390.721 303.168 390.569 303.32 390.569 303.508V304.577C390.569 304.764 390.721 304.916 390.907 304.916Z" fill="#3F3D56"/>
<path d="M385.115 304.916H387.336C387.522 304.916 387.673 304.764 387.673 304.577V303.508C387.673 303.32 387.522 303.168 387.336 303.168H385.115C384.929 303.168 384.777 303.32 384.777 303.508V304.577C384.777 304.764 384.929 304.916 385.115 304.916Z" fill="#3F3D56"/>
<path d="M379.323 304.916H381.544C381.731 304.916 381.882 304.764 381.882 304.577V303.508C381.882 303.32 381.731 303.168 381.544 303.168H379.323C379.137 303.168 378.986 303.32 378.986 303.508V304.577C378.986 304.764 379.137 304.916 379.323 304.916Z" fill="#3F3D56"/>
<path d="M373.532 304.916H375.752C375.939 304.916 376.09 304.764 376.09 304.577V303.508C376.09 303.32 375.939 303.168 375.752 303.168H373.532C373.345 303.168 373.194 303.32 373.194 303.508V304.577C373.194 304.764 373.345 304.916 373.532 304.916Z" fill="#3F3D56"/>
<path d="M367.74 304.916H369.961C370.147 304.916 370.298 304.764 370.298 304.577V303.508C370.298 303.32 370.147 303.168 369.961 303.168H367.74C367.554 303.168 367.402 303.32 367.402 303.508V304.577C367.402 304.764 367.554 304.916 367.74 304.916Z" fill="#3F3D56"/>
<path d="M361.948 304.916H364.169C364.355 304.916 364.506 304.764 364.506 304.577V303.508C364.506 303.32 364.355 303.168 364.169 303.168H361.948C361.762 303.168 361.61 303.32 361.61 303.508V304.577C361.61 304.764 361.762 304.916 361.948 304.916Z" fill="#3F3D56"/>
<path d="M356.156 304.916H358.377C358.564 304.916 358.715 304.764 358.715 304.577V303.508C358.715 303.32 358.564 303.168 358.377 303.168H356.156C355.97 303.168 355.819 303.32 355.819 303.508V304.577C355.819 304.764 355.97 304.916 356.156 304.916Z" fill="#3F3D56"/>
<path d="M350.364 304.916H352.585C352.772 304.916 352.923 304.764 352.923 304.577V303.508C352.923 303.32 352.772 303.168 352.585 303.168H350.364C350.178 303.168 350.027 303.32 350.027 303.508V304.577C350.027 304.764 350.178 304.916 350.364 304.916Z" fill="#3F3D56"/>
<path d="M344.572 304.916H346.793C346.98 304.916 347.131 304.764 347.131 304.577V303.508C347.131 303.32 346.98 303.168 346.793 303.168H344.572C344.386 303.168 344.235 303.32 344.235 303.508V304.577C344.235 304.764 344.386 304.916 344.572 304.916Z" fill="#3F3D56"/>
<path d="M383.378 308.412H405.87C406.056 308.412 406.207 308.26 406.207 308.072V307.004C406.207 306.816 406.056 306.664 405.87 306.664H383.378C383.191 306.664 383.04 306.816 383.04 307.004V308.072C383.04 308.26 383.191 308.412 383.378 308.412Z" fill="#3F3D56"/>
<path d="M359.548 249.498H357.582C356.986 249.498 356.502 249.984 356.502 250.584C356.502 251.184 356.986 251.67 357.582 251.67H359.548C360.144 251.67 360.627 251.184 360.627 250.584C360.627 249.984 360.144 249.498 359.548 249.498Z" fill="white"/>
<path d="M382.034 249.498H380.068C379.472 249.498 378.989 249.984 378.989 250.584C378.989 251.184 379.472 251.67 380.068 251.67H382.034C382.63 251.67 383.114 251.184 383.114 250.584C383.114 249.984 382.63 249.498 382.034 249.498Z" fill="white"/>
<path d="M388.405 249.498H386.439C385.843 249.498 385.36 249.984 385.36 250.584C385.36 251.184 385.843 251.67 386.439 251.67H388.405C389.001 251.67 389.485 251.184 389.485 250.584C389.485 249.984 389.001 249.498 388.405 249.498Z" fill="white"/>
<path d="M375.918 249.317H363.698C363.102 249.317 362.619 249.803 362.619 250.403C362.619 251.003 363.102 251.489 363.698 251.489H375.918C376.514 251.489 376.997 251.003 376.997 250.403C376.997 249.803 376.514 249.317 375.918 249.317Z" fill="white"/>
<path d="M405.899 249.317H393.679C393.083 249.317 392.6 249.803 392.6 250.403C392.6 251.003 393.083 251.489 393.679 251.489H405.899C406.495 251.489 406.978 251.003 406.978 250.403C406.978 249.803 406.495 249.317 405.899 249.317Z" fill="white"/>
<path d="M365.544 254.399H363.578C362.982 254.399 362.499 254.885 362.499 255.485C362.499 256.085 362.982 256.571 363.578 256.571H365.544C366.141 256.571 366.624 256.085 366.624 255.485C366.624 254.885 366.141 254.399 365.544 254.399Z" fill="white"/>
<path d="M388.03 254.399H386.064C385.468 254.399 384.985 254.885 384.985 255.485C384.985 256.085 385.468 256.571 386.064 256.571H388.03C388.626 256.571 389.11 256.085 389.11 255.485C389.11 254.885 388.626 254.399 388.03 254.399Z" fill="white"/>
<path d="M394.401 254.399H392.435C391.839 254.399 391.356 254.885 391.356 255.485C391.356 256.085 391.839 256.571 392.435 256.571H394.401C394.997 256.571 395.481 256.085 395.481 255.485C395.481 254.885 394.997 254.399 394.401 254.399Z" fill="white"/>
<path d="M381.914 254.218H369.695C369.098 254.218 368.615 254.704 368.615 255.304C368.615 255.903 369.098 256.39 369.695 256.39H381.914C382.51 256.39 382.993 255.903 382.993 255.304C382.993 254.704 382.51 254.218 381.914 254.218Z" fill="white"/>
<path d="M411.896 254.218H399.676C399.08 254.218 398.597 254.704 398.597 255.304C398.597 255.903 399.08 256.39 399.676 256.39H411.896C412.492 256.39 412.975 255.903 412.975 255.304C412.975 254.704 412.492 254.218 411.896 254.218Z" fill="white"/>
<path d="M371.541 259.3H369.574C368.978 259.3 368.495 259.786 368.495 260.386C368.495 260.985 368.978 261.471 369.574 261.471H371.541C372.137 261.471 372.62 260.985 372.62 260.386C372.62 259.786 372.137 259.3 371.541 259.3Z" fill="white"/>
<path d="M394.027 259.3H392.061C391.465 259.3 390.981 259.786 390.981 260.386C390.981 260.985 391.465 261.471 392.061 261.471H394.027C394.623 261.471 395.106 260.985 395.106 260.386C395.106 259.786 394.623 259.3 394.027 259.3Z" fill="white"/>
<path d="M400.398 259.3H398.432C397.836 259.3 397.353 259.786 397.353 260.386C397.353 260.985 397.836 261.471 398.432 261.471H400.398C400.994 261.471 401.477 260.985 401.477 260.386C401.477 259.786 400.994 259.3 400.398 259.3Z" fill="white"/>
<path d="M387.91 259.119H375.691C375.095 259.119 374.611 259.605 374.611 260.205C374.611 260.804 375.095 261.291 375.691 261.291H387.91C388.506 261.291 388.99 260.804 388.99 260.205C388.99 259.605 388.506 259.119 387.91 259.119Z" fill="white"/>
<path d="M417.892 259.119H405.672C405.076 259.119 404.593 259.605 404.593 260.205C404.593 260.804 405.076 261.291 405.672 261.291H417.892C418.488 261.291 418.971 260.804 418.971 260.205C418.971 259.605 418.488 259.119 417.892 259.119Z" fill="white"/>
<path d="M377.537 264.201H375.571C374.974 264.201 374.491 264.687 374.491 265.287C374.491 265.886 374.974 266.372 375.571 266.372H377.537C378.133 266.372 378.616 265.886 378.616 265.287C378.616 264.687 378.133 264.201 377.537 264.201Z" fill="white"/>
<path d="M400.023 264.201H398.057C397.461 264.201 396.978 264.687 396.978 265.287C396.978 265.886 397.461 266.372 398.057 266.372H400.023C400.619 266.372 401.102 265.886 401.102 265.287C401.102 264.687 400.619 264.201 400.023 264.201Z" fill="white"/>
<path d="M406.394 264.201H404.428C403.832 264.201 403.349 264.687 403.349 265.287C403.349 265.886 403.832 266.372 404.428 266.372H406.394C406.99 266.372 407.473 265.886 407.473 265.287C407.473 264.687 406.99 264.201 406.394 264.201Z" fill="white"/>
<path d="M393.907 264.02H381.687C381.091 264.02 380.608 264.506 380.608 265.106C380.608 265.705 381.091 266.191 381.687 266.191H393.907C394.503 266.191 394.986 265.705 394.986 265.106C394.986 264.506 394.503 264.02 393.907 264.02Z" fill="white"/>
<path d="M382.034 283.689H380.068C379.472 283.689 378.989 284.175 378.989 284.775C378.989 285.374 379.472 285.86 380.068 285.86H382.034C382.63 285.86 383.114 285.374 383.114 284.775C383.114 284.175 382.63 283.689 382.034 283.689Z" fill="white"/>
<path d="M388.405 283.689H386.439C385.843 283.689 385.36 284.175 385.36 284.775C385.36 285.374 385.843 285.86 386.439 285.86H388.405C389.001 285.86 389.485 285.374 389.485 284.775C389.485 284.175 389.001 283.689 388.405 283.689Z" fill="white"/>
<path d="M405.899 283.87H393.679C393.083 283.87 392.6 284.356 392.6 284.956C392.6 285.555 393.083 286.041 393.679 286.041H405.899C406.495 286.041 406.978 285.555 406.978 284.956C406.978 284.356 406.495 283.87 405.899 283.87Z" fill="white"/>
<path d="M359.548 283.689H357.582C356.986 283.689 356.502 284.175 356.502 284.775C356.502 285.374 356.986 285.86 357.582 285.86H359.548C360.144 285.86 360.627 285.374 360.627 284.775C360.627 284.175 360.144 283.689 359.548 283.689Z" fill="white"/>
<path d="M375.918 283.87H363.698C363.102 283.87 362.619 284.356 362.619 284.956C362.619 285.555 363.102 286.041 363.698 286.041H375.918C376.514 286.041 376.997 285.555 376.997 284.956C376.997 284.356 376.514 283.87 375.918 283.87Z" fill="white"/>
<path d="M365.544 278.788H363.578C362.982 278.788 362.499 279.274 362.499 279.874C362.499 280.473 362.982 280.96 363.578 280.96H365.544C366.141 280.96 366.624 280.473 366.624 279.874C366.624 279.274 366.141 278.788 365.544 278.788Z" fill="white"/>
<path d="M388.03 278.788H386.064C385.468 278.788 384.985 279.274 384.985 279.874C384.985 280.473 385.468 280.96 386.064 280.96H388.03C388.626 280.96 389.11 280.473 389.11 279.874C389.11 279.274 388.626 278.788 388.03 278.788Z" fill="white"/>
<path d="M394.401 278.788H392.435C391.839 278.788 391.356 279.274 391.356 279.874C391.356 280.473 391.839 280.96 392.435 280.96H394.401C394.997 280.96 395.481 280.473 395.481 279.874C395.481 279.274 394.997 278.788 394.401 278.788Z" fill="white"/>
<path d="M381.914 278.969H369.695C369.098 278.969 368.615 279.455 368.615 280.055C368.615 280.654 369.098 281.141 369.695 281.141H381.914C382.51 281.141 382.993 280.654 382.993 280.055C382.993 279.455 382.51 278.969 381.914 278.969Z" fill="white"/>
<path d="M371.541 273.887H369.574C368.978 273.887 368.495 274.373 368.495 274.973C368.495 275.573 368.978 276.059 369.574 276.059H371.541C372.137 276.059 372.62 275.573 372.62 274.973C372.62 274.373 372.137 273.887 371.541 273.887Z" fill="white"/>
<path d="M394.027 273.887H392.061C391.465 273.887 390.981 274.373 390.981 274.973C390.981 275.573 391.465 276.059 392.061 276.059H394.027C394.623 276.059 395.106 275.573 395.106 274.973C395.106 274.373 394.623 273.887 394.027 273.887Z" fill="white"/>
<path d="M400.398 273.887H398.432C397.836 273.887 397.353 274.373 397.353 274.973C397.353 275.573 397.836 276.059 398.432 276.059H400.398C400.994 276.059 401.477 275.573 401.477 274.973C401.477 274.373 400.994 273.887 400.398 273.887Z" fill="white"/>
<path d="M387.91 274.068H375.691C375.095 274.068 374.611 274.554 374.611 275.154C374.611 275.754 375.095 276.24 375.691 276.24H387.91C388.506 276.24 388.99 275.754 388.99 275.154C388.99 274.554 388.506 274.068 387.91 274.068Z" fill="white"/>
<path d="M377.537 268.986H375.571C374.974 268.986 374.491 269.472 374.491 270.072C374.491 270.672 374.974 271.158 375.571 271.158H377.537C378.133 271.158 378.616 270.672 378.616 270.072C378.616 269.472 378.133 268.986 377.537 268.986Z" fill="white"/>
<path d="M400.023 268.986H398.057C397.461 268.986 396.978 269.472 396.978 270.072C396.978 270.672 397.461 271.158 398.057 271.158H400.023C400.619 271.158 401.102 270.672 401.102 270.072C401.102 269.472 400.619 268.986 400.023 268.986Z" fill="white"/>
<path d="M406.394 268.986H404.428C403.832 268.986 403.349 269.472 403.349 270.072C403.349 270.672 403.832 271.158 404.428 271.158H406.394C406.99 271.158 407.473 270.672 407.473 270.072C407.473 269.472 406.99 268.986 406.394 268.986Z" fill="white"/>
<path d="M393.907 269.167H381.687C381.091 269.167 380.608 269.653 380.608 270.253C380.608 270.853 381.091 271.339 381.687 271.339H393.907C394.503 271.339 394.986 270.853 394.986 270.253C394.986 269.653 394.503 269.167 393.907 269.167Z" fill="white"/>
<path d="M349.095 341.126L339.865 326.45L368.836 303.218L380.794 289.892C382.347 288.16 384.325 286.87 386.53 286.148C388.735 285.427 391.09 285.3 393.358 285.781C395.627 286.261 397.731 287.333 399.459 288.887C401.187 290.442 402.48 292.426 403.207 294.641C404.285 297.922 404.053 301.497 402.561 304.61C401.068 307.723 398.432 310.131 395.208 311.326L376.299 318.333L349.095 341.126Z" fill="#FFB6B6"/>
<path d="M132.533 234.715V306.044H182.209V234.715C182.21 234.202 182.047 233.702 181.745 233.289C181.442 232.876 181.016 232.571 180.529 232.42C180.299 232.343 180.059 232.306 179.817 232.308H134.932C134.617 232.308 134.306 232.37 134.015 232.49C133.724 232.611 133.459 232.788 133.236 233.012C133.014 233.235 132.837 233.5 132.716 233.793C132.595 234.085 132.533 234.398 132.533 234.715ZM151.919 259.224C151.932 257.818 152.497 256.474 153.49 255.484C154.483 254.494 155.824 253.939 157.222 253.939C158.62 253.939 159.962 254.494 160.955 255.484C161.948 256.474 162.512 257.818 162.525 259.224V267.5C162.518 268.91 161.956 270.26 160.962 271.255C159.969 272.249 158.624 272.808 157.222 272.808C155.82 272.808 154.476 272.249 153.482 271.255C152.488 270.26 151.926 268.91 151.919 267.5V259.224Z" fill="#2F2E41"/>
<path d="M132.38 303.763V310.642C132.381 310.998 132.522 311.339 132.772 311.592C133.022 311.845 133.361 311.988 133.715 311.991H181.027C181.381 311.989 181.721 311.846 181.971 311.593C182.221 311.34 182.361 310.998 182.361 310.642V303.763H132.38Z" fill="#3F3D56"/>
<path d="M54.3848 127.248V257.485C54.3861 259.145 55.0421 260.736 56.2087 261.91C57.3754 263.083 58.9574 263.743 60.6073 263.745H252.468C254.118 263.743 255.7 263.083 256.867 261.91C258.033 260.736 258.689 259.145 258.691 257.485V127.248C258.687 125.589 258.03 124 256.863 122.828C255.697 121.656 254.117 120.997 252.468 120.995H60.6073C58.9588 120.997 57.3783 121.656 56.2121 122.828C55.0458 124 54.3887 125.589 54.3848 127.248Z" fill="#3F3D56"/>
<path d="M58.8857 128.868V255.879C58.8873 256.765 59.2381 257.615 59.8614 258.242C60.4848 258.869 61.3298 259.222 62.2113 259.224H250.871C251.753 259.222 252.598 258.869 253.221 258.242C253.844 257.615 254.195 256.765 254.197 255.879V128.868C254.197 127.98 253.846 127.129 253.223 126.5C252.6 125.872 251.754 125.518 250.871 125.516H62.2113C61.3287 125.518 60.4829 125.872 59.8595 126.5C59.236 127.129 58.8858 127.98 58.8857 128.868Z" fill="white"/>
<path d="M93.898 311.525C94.09 311.767 94.3341 311.962 94.6119 312.096C94.8897 312.23 95.194 312.298 95.502 312.297H207.742C208.049 312.296 208.352 312.227 208.629 312.094C208.906 311.961 209.15 311.768 209.344 311.528C209.537 311.288 209.675 311.008 209.747 310.708C209.819 310.408 209.824 310.095 209.761 309.793L208.019 301.468C207.947 301.128 207.791 300.813 207.567 300.549C207.342 300.285 207.055 300.082 206.733 299.959C206.499 299.867 206.251 299.819 206 299.82H97.2374C96.9866 299.819 96.738 299.867 96.5045 299.959C96.182 300.082 95.8954 300.285 95.6708 300.549C95.4462 300.813 95.2907 301.128 95.2185 301.468L93.4762 309.793C93.4142 310.095 93.4199 310.407 93.4929 310.707C93.5658 311.006 93.7042 311.286 93.898 311.525Z" fill="#2F2E41"/>
<path d="M244.749 143.012H68.2203C68.0368 143.008 67.8622 142.932 67.7339 142.8C67.6055 142.668 67.5337 142.491 67.5337 142.306C67.5337 142.121 67.6055 141.944 67.7339 141.812C67.8622 141.68 68.0368 141.604 68.2203 141.6H244.749C244.932 141.604 245.107 141.68 245.235 141.812C245.363 141.944 245.435 142.121 245.435 142.306C245.435 142.491 245.363 142.668 245.235 142.8C245.107 142.932 244.932 143.008 244.749 143.012Z" fill="#3F3D56"/>
<path d="M80.2366 137.994C82.5088 137.994 84.3507 136.1 84.3507 133.764C84.3507 131.427 82.5088 129.533 80.2366 129.533C77.9645 129.533 76.1226 131.427 76.1226 133.764C76.1226 136.1 77.9645 137.994 80.2366 137.994Z" fill="#3F3D56"/>
<path d="M94.449 137.994C96.7212 137.994 98.5631 136.1 98.5631 133.764C98.5631 131.427 96.7212 129.533 94.449 129.533C92.1769 129.533 90.335 131.427 90.335 133.764C90.335 136.1 92.1769 137.994 94.449 137.994Z" fill="#3F3D56"/>
<path d="M108.661 137.994C110.934 137.994 112.775 136.1 112.775 133.764C112.775 131.427 110.934 129.533 108.661 129.533C106.389 129.533 104.547 131.427 104.547 133.764C104.547 136.1 106.389 137.994 108.661 137.994Z" fill="#3F3D56"/>
<path d="M236.19 130.579H226.096C225.896 130.584 225.707 130.667 225.567 130.81C225.428 130.954 225.35 131.147 225.35 131.347C225.35 131.548 225.428 131.741 225.567 131.885C225.707 132.028 225.896 132.111 226.096 132.116H236.19C236.391 132.113 236.583 132.031 236.724 131.887C236.865 131.743 236.944 131.549 236.944 131.347C236.944 131.146 236.865 130.952 236.724 130.808C236.583 130.664 236.391 130.582 236.19 130.579Z" fill="#3F3D56"/>
<path d="M236.19 133.465H226.096C225.896 133.47 225.706 133.553 225.567 133.696C225.427 133.84 225.349 134.033 225.349 134.234C225.349 134.435 225.427 134.628 225.567 134.771C225.706 134.915 225.896 134.998 226.096 135.002H236.19C236.391 135 236.583 134.918 236.725 134.774C236.866 134.63 236.945 134.436 236.945 134.234C236.945 134.032 236.866 133.838 236.725 133.694C236.583 133.55 236.391 133.468 236.19 133.465Z" fill="#3F3D56"/>
<path d="M236.19 136.352H226.096C225.896 136.356 225.707 136.439 225.567 136.583C225.428 136.727 225.35 136.919 225.35 137.12C225.35 137.321 225.428 137.514 225.567 137.657C225.707 137.801 225.896 137.884 226.096 137.889H236.19C236.391 137.886 236.583 137.804 236.724 137.66C236.865 137.516 236.944 137.322 236.944 137.12C236.944 136.918 236.865 136.724 236.724 136.58C236.583 136.437 236.391 136.354 236.19 136.352Z" fill="#3F3D56"/>
<path d="M479.546 306.782C479.85 307.674 480.428 308.446 481.196 308.987C481.964 309.529 482.883 309.811 483.82 309.794L502.137 309.32C503.081 309.301 503.994 308.976 504.74 308.392C505.485 307.808 506.022 306.998 506.272 306.081L508.864 278.201C509.783 278.62 510.784 278.827 511.794 278.806C512.671 278.784 513.535 278.589 514.336 278.23C515.138 277.872 515.862 277.359 516.467 276.72C517.071 276.08 517.544 275.327 517.86 274.504C518.175 273.68 518.326 272.803 518.304 271.92C518.282 271.038 518.087 270.169 517.731 269.363C517.375 268.556 516.865 267.828 516.229 267.22C515.594 266.612 514.845 266.136 514.027 265.819C513.208 265.502 512.335 265.35 511.459 265.372C511.055 265.37 510.653 265.413 510.258 265.497C509.829 265.03 509.308 264.659 508.727 264.407C508.147 264.155 507.52 264.028 506.888 264.035L478.714 264.767C478.48 264.775 478.248 264.804 478.019 264.853C477.401 264.969 476.815 265.217 476.3 265.58C475.785 265.943 475.354 266.412 475.035 266.957C474.715 267.501 474.516 268.108 474.449 268.737C474.383 269.366 474.451 270.001 474.65 270.601L479.546 306.782ZM509.395 276.308L511.24 269.664C511.449 268.896 511.454 268.087 511.254 267.317C511.343 267.317 511.422 267.274 511.512 267.274C512.776 267.247 514 267.727 514.914 268.606C515.828 269.486 516.357 270.694 516.387 271.966C516.417 273.238 515.944 274.47 515.072 275.392C514.2 276.314 513 276.85 511.735 276.883C510.918 276.909 510.109 276.71 509.395 276.308Z" fill="#2F2E41"/>
<path d="M478.019 264.853C478.619 268.306 485.368 270.733 493.483 270.311C500.945 269.965 507.046 267.33 508.164 264.206C507.75 264.083 507.32 264.025 506.888 264.035L478.714 264.767C478.48 264.775 478.248 264.804 478.019 264.853Z" fill="#3F3D56"/>
<path d="M494.97 291.461C495.007 291.452 495.042 291.436 495.074 291.415L499.052 288.796C499.1 288.765 499.139 288.722 499.167 288.671C499.194 288.62 499.208 288.563 499.208 288.506C499.208 288.448 499.194 288.391 499.167 288.34C499.139 288.289 499.1 288.246 499.052 288.215L494.918 285.491C494.88 285.465 494.837 285.448 494.792 285.439C494.748 285.431 494.702 285.431 494.657 285.44C494.613 285.449 494.57 285.467 494.533 285.493C494.495 285.519 494.463 285.552 494.438 285.59C494.413 285.628 494.396 285.671 494.387 285.716C494.379 285.761 494.379 285.807 494.389 285.852C494.398 285.897 494.416 285.939 494.442 285.977C494.468 286.015 494.501 286.047 494.539 286.072L498.231 288.505L494.696 290.833C494.627 290.878 494.577 290.946 494.553 291.025C494.53 291.104 494.535 291.189 494.568 291.264C494.601 291.34 494.66 291.401 494.733 291.437C494.806 291.473 494.89 291.482 494.97 291.461H494.97Z" fill="#25221D"/>
<path d="M488.687 291.753C488.754 291.736 488.814 291.699 488.86 291.648C488.906 291.596 488.936 291.532 488.945 291.463C488.954 291.395 488.943 291.325 488.913 291.262C488.882 291.2 488.834 291.149 488.774 291.114L485.108 289L488.652 286.352C488.688 286.325 488.719 286.29 488.742 286.251C488.765 286.212 488.781 286.169 488.787 286.124C488.794 286.078 488.792 286.032 488.781 285.988C488.77 285.944 488.75 285.902 488.723 285.866C488.696 285.829 488.662 285.798 488.623 285.775C488.584 285.751 488.541 285.736 488.496 285.729C488.451 285.722 488.405 285.725 488.361 285.736C488.317 285.747 488.276 285.767 488.24 285.794L484.272 288.759C484.226 288.793 484.189 288.838 484.165 288.891C484.141 288.943 484.13 289 484.133 289.058C484.136 289.116 484.154 289.172 484.184 289.221C484.214 289.27 484.256 289.31 484.306 289.339L488.43 291.717C488.508 291.762 488.6 291.775 488.687 291.753Z" fill="#25221D"/>
<path d="M494.574 293.756C494.607 293.748 494.639 293.735 494.669 293.716C494.707 293.693 494.741 293.661 494.768 293.624C494.795 293.588 494.814 293.546 494.825 293.501C494.836 293.457 494.838 293.411 494.831 293.366C494.824 293.321 494.808 293.277 494.784 293.238L489.146 283.913C489.098 283.834 489.021 283.778 488.932 283.756C488.843 283.735 488.749 283.749 488.671 283.797C488.593 283.845 488.536 283.923 488.515 284.012C488.493 284.102 488.508 284.196 488.555 284.275L494.194 293.6C494.232 293.664 494.29 293.713 494.358 293.741C494.427 293.769 494.502 293.775 494.574 293.756Z" fill="#25221D"/>
<path d="M177.577 181.403H147.023C145.777 181.403 144.767 182.419 144.767 183.673V186.676C144.767 187.93 145.777 188.946 147.023 188.946H177.577C178.823 188.946 179.833 187.93 179.833 186.676V183.673C179.833 182.419 178.823 181.403 177.577 181.403Z" fill="#25221D"/>
<path d="M195.386 196.489H129.214C127.968 196.489 126.958 197.505 126.958 198.759V201.762C126.958 203.016 127.968 204.032 129.214 204.032H195.386C196.632 204.032 197.643 203.016 197.643 201.762V198.759C197.643 197.505 196.632 196.489 195.386 196.489Z" fill="#E6E6E6"/>
<path d="M195.386 211.575H129.214C127.968 211.575 126.958 212.592 126.958 213.845V216.848C126.958 218.102 127.968 219.118 129.214 219.118H195.386C196.632 219.118 197.643 218.102 197.643 216.848V213.845C197.643 212.592 196.632 211.575 195.386 211.575Z" fill="#E6E6E6"/>
<path d="M200.995 262.093L201.145 262.569L201.153 262.585L205.664 276.382L210.854 292.282L220.618 322.161L220.713 326.802V326.818L221.439 364.155L219.427 369.217L221.691 377.516C221.691 377.516 220.65 364.971 215.066 372.175C211.903 376.269 208.204 380.458 205.167 384.385C209.592 386.186 214.088 387.816 218.654 389.273C219.64 389.59 220.634 389.892 221.628 390.193C221.841 390.257 222.054 390.32 222.267 390.383C237.405 394.887 253.054 397.417 268.833 397.913C269.653 397.937 270.457 397.952 271.238 397.968C271.514 397.976 271.782 397.984 272.051 397.984C272.934 397.992 273.809 398 274.693 398C276.475 398 278.25 397.974 280.017 397.921C293.093 397.55 306.093 395.781 318.798 392.645C318.711 387.369 318.474 381.204 318.135 374.619C317.977 371.39 314.436 367.891 314.223 364.511C314.073 361.972 317.252 359.584 317.086 357.005C316.014 341.13 314.673 347.224 313.679 335.982C313.576 334.879 313.482 333.824 313.395 332.816C312.756 325.596 312.314 321.082 312.314 321.082L316.558 294.178L323.222 251.937L322.71 251.089L322.134 250.803L286.981 233.301L285.072 228.382C284.516 226.964 283.551 225.747 282.302 224.886C281.052 224.025 279.575 223.56 278.061 223.55L254.904 223.455C253.702 223.449 252.516 223.732 251.445 224.28C250.374 224.828 249.448 225.625 248.744 226.604L242.474 235.34L200.995 262.093Z" fill="#3F3D56"/>
<path d="M225.958 315.512L220.713 326.802L217.132 334.514L210.973 366.956L207.889 370.248L205.246 358.592L177.592 364.769C176.685 359.699 177.35 364.94 176.79 359.379C176.947 359.22 177.113 359.061 177.279 358.903C177.72 358.49 178.091 358.101 178.083 357.728C177.768 338.544 178.714 305.896 186.617 286.117C187.855 282.887 189.487 279.825 191.475 277.001C191.633 276.786 191.783 276.572 191.933 276.358C195.577 271.225 197.88 266.171 201.145 262.577V262.569C201.165 262.552 201.184 262.534 201.2 262.513C201.212 262.507 201.223 262.499 201.232 262.49L223.663 250.525L224.625 277.723L225.311 297.272L225.958 315.512Z" fill="#3F3D56"/>
<path d="M306.84 318.719L313.392 332.82L315.679 337.731L321.837 370.169L324.911 373.454L327.559 361.801L328.803 361.544L351.245 356.869L357.786 377.766C359.26 375.295 359.841 372.387 359.43 369.535C359.019 366.683 357.642 364.062 355.531 362.113C355.084 361.707 354.712 361.311 354.723 360.936C355.095 338.372 353.723 297.171 341.332 280.214C337.397 274.832 335.036 269.472 331.6 265.727C331.59 265.717 331.59 265.706 331.579 265.706L323.219 251.937L322.709 251.091L322.135 250.802L306.84 318.719Z" fill="#3F3D56"/>
<path d="M267.151 216.825C284.165 216.825 297.958 202.951 297.958 185.836C297.958 168.72 284.165 154.846 267.151 154.846C250.137 154.846 236.344 168.72 236.344 185.836C236.344 202.951 250.137 216.825 267.151 216.825Z" fill="#FFB6B6"/>
<path d="M308.791 164.189C308.552 163.933 308.264 163.727 307.944 163.585C307.625 163.443 307.28 163.367 306.931 163.362L307.394 162.068C307.545 161.661 307.586 161.22 307.512 160.791C307.438 160.363 307.253 159.962 306.974 159.629C306.696 159.297 306.334 159.044 305.927 158.899C305.519 158.753 305.081 158.718 304.656 158.799L302.969 159.126L303.128 157.992C303.189 157.57 303.14 157.139 302.985 156.742C302.83 156.345 302.575 155.995 302.245 155.727C301.915 155.459 301.522 155.282 301.103 155.213C300.684 155.145 300.255 155.187 299.858 155.336C299.496 155.479 299.107 155.539 298.72 155.511C298.332 155.483 297.955 155.369 297.618 155.176C297.278 154.989 296.984 154.729 296.755 154.416C296.525 154.102 296.367 153.742 296.29 153.36L295.703 150.509L295.64 150.356C292.778 145.557 287.274 142.066 280.54 140.786C274.546 139.638 268.399 140.223 262.474 140.772C260.124 140.995 257.469 141.245 255.256 142.608C253.376 143.777 251.785 146.113 252.11 148.471C246.268 146.67 240.004 150.266 236.9 154.8C233.222 160.197 232.62 166.957 232.523 172.243C232.26 184.748 234.826 194.979 240.128 202.657C240.516 203.213 240.612 204.375 241.38 204.764L241.221 204.507C242.078 204.938 242.949 205.634 242.624 206.378C241.691 208.52 247.893 213.256 252.262 214.821C260.234 217.679 270.833 217.436 278.286 216.407L278.549 214.633C281.239 214.265 283.133 213.562 283.665 212.463C284.606 211.656 285.408 210.933 286.106 210.266L286.113 210.259C286.127 210.245 286.154 210.224 286.168 210.21C289.535 206.962 290.317 205.112 290.669 202.295C291.008 199.534 290.406 196.731 289.791 194.207C302.748 196.224 284.689 180.325 296.76 177.251C296.899 177.208 297.04 177.173 297.182 177.146C297.535 177.063 297.887 176.979 298.226 176.882C299.859 176.436 301.423 175.764 302.872 174.886C306.246 172.82 307.359 170.08 309.102 166.992C309.353 166.552 309.458 166.044 309.403 165.539C309.347 165.035 309.132 164.562 308.791 164.189Z" fill="#2F2E41"/>
<path d="M376.111 320.925C376.104 322.142 376.091 323.846 376.035 325.953C376.028 326.246 376.021 326.545 376.015 326.851C375.925 330.725 375.835 333.972 375.69 337.582C375.683 337.832 375.676 338.076 375.662 338.326C375.468 343.362 375.164 349.225 374.639 358.509C373.664 375.66 371.963 360.867 370.255 366.883C370.172 367.182 370.082 367.537 369.999 367.954C369.741 369.468 369.305 370.946 368.7 372.357C367.794 372.899 366.861 373.421 365.941 373.942C363.321 375.41 360.659 376.822 357.976 378.164C356.469 378.915 354.955 379.652 353.434 380.362C353.192 380.473 352.957 380.584 352.722 380.689C344.933 384.313 336.905 387.394 328.696 389.911C327.092 390.398 325.495 390.871 323.877 391.309C322.19 391.782 320.503 392.227 318.795 392.644C306.091 395.781 293.091 397.551 280.015 397.923C278.252 397.978 276.475 397.999 274.691 397.999C273.806 397.999 272.935 397.992 272.05 397.985C271.781 397.985 271.511 397.978 271.241 397.972C270.46 397.951 269.651 397.937 268.835 397.916C253.057 397.421 237.407 394.889 222.27 390.384L221.627 390.196C220.631 389.89 219.643 389.591 218.654 389.271C214.091 387.817 209.595 386.19 205.165 384.389C201.784 383.019 198.442 381.549 195.14 379.979C195.11 379.971 195.082 379.957 195.057 379.937C194.366 379.618 193.667 379.284 192.976 378.943C192.886 378.894 192.789 378.846 192.692 378.797C190.113 377.531 187.562 376.205 185.039 374.819C182.916 369.915 179.929 368.977 178.076 364.664C177.537 363.383 177.147 362.044 176.915 360.672C176.915 360.658 176.908 360.645 176.908 360.624C177.102 363.211 176.085 356.033 176.901 360.596C176.894 360.512 176.887 360.422 176.88 360.318C176.86 360.067 176.832 359.761 176.79 359.379C174.419 336.087 174.571 309.449 173.541 287.5C173.472 286.081 173.4 284.722 173.327 283.424C173.306 282.993 173.278 282.569 173.25 282.151C173.299 282.026 173.354 281.894 173.416 281.769C173.43 281.733 173.446 281.698 173.465 281.665C173.485 281.621 173.508 281.58 173.534 281.539C173.548 281.519 173.569 281.491 173.582 281.47C173.592 281.446 173.604 281.423 173.617 281.4C173.679 281.303 173.748 281.199 173.824 281.101C173.859 281.06 173.887 281.025 173.921 280.99C173.945 280.954 173.973 280.922 174.004 280.893C174.025 280.859 174.051 280.829 174.08 280.802C174.108 280.774 174.135 280.74 174.17 280.705C174.185 280.683 174.204 280.664 174.225 280.649C174.28 280.586 174.34 280.528 174.405 280.475C174.652 280.247 174.915 280.038 175.193 279.849C175.29 279.787 175.394 279.724 175.491 279.655C176.187 279.235 176.921 278.881 177.682 278.598C177.945 278.5 178.208 278.41 178.491 278.312C178.595 278.285 178.692 278.25 178.795 278.215C178.948 278.166 179.1 278.118 179.259 278.083C180.047 277.846 180.897 277.645 181.817 277.457C181.927 277.436 182.045 277.415 182.163 277.387C182.328 277.353 182.501 277.325 182.674 277.297C182.909 277.255 183.151 277.213 183.393 277.172C185.447 276.845 187.777 276.601 190.349 276.442C190.591 276.428 190.833 276.414 191.075 276.4C191.358 276.386 191.641 276.372 191.932 276.358C192.174 276.344 192.423 276.337 192.672 276.33C192.914 276.316 193.163 276.309 193.418 276.302C194.117 276.282 194.836 276.261 195.569 276.247C197.657 276.205 199.855 276.219 202.164 276.268C203.236 276.295 204.329 276.323 205.449 276.372C205.525 276.372 205.594 276.379 205.663 276.379C206.638 276.414 207.62 276.455 208.629 276.511C209.334 276.546 210.046 276.581 210.758 276.622C211.429 276.664 212.107 276.706 212.791 276.754C213.323 276.782 213.856 276.824 214.395 276.859C214.851 276.894 215.308 276.928 215.764 276.956L216.386 276.998C216.725 277.026 217.064 277.047 217.41 277.081C218.17 277.144 218.931 277.207 219.705 277.269C220.472 277.339 221.254 277.408 222.035 277.478C222.816 277.547 223.604 277.624 224.393 277.7C224.476 277.707 224.552 277.714 224.628 277.721C225.347 277.798 226.066 277.867 226.792 277.944C226.958 277.958 227.131 277.972 227.296 277.992C227.989 278.062 228.694 278.144 229.393 278.219C229.607 278.242 229.82 278.265 230.035 278.288C230.583 278.348 231.122 278.4 231.673 278.465C232.399 278.549 233.139 278.625 233.858 278.723C234.418 278.785 234.978 278.848 235.538 278.917C236.416 279.022 237.308 279.133 238.2 279.251C238.538 279.293 238.877 279.335 239.216 279.383C241.76 279.703 244.332 280.058 246.946 280.427C250.907 280.99 254.931 281.602 258.983 282.263C263.041 282.923 267.123 283.621 271.227 284.356C272.264 284.544 273.302 284.732 274.346 284.926C274.816 285.017 275.286 285.107 275.756 285.198C276.558 285.344 277.36 285.497 278.162 285.65C278.964 285.803 279.766 285.956 280.568 286.116C281.522 286.304 282.483 286.491 283.437 286.679C289.722 287.931 295.972 289.266 302.07 290.664C303.073 290.894 304.075 291.13 305.071 291.36C307.062 291.826 309.035 292.299 310.989 292.779C311.529 292.904 312.061 293.036 312.593 293.168C313.921 293.502 315.248 293.836 316.555 294.176L316.783 294.239C317.744 294.476 318.684 294.719 319.625 294.969C321.844 295.554 324.027 296.145 326.172 296.743C327.596 297.139 329.005 297.54 330.397 297.946C332.478 298.551 334.517 299.163 336.502 299.782C336.992 299.935 337.483 300.088 337.967 300.234C339.419 300.686 340.85 301.145 342.24 301.604C343.346 301.966 344.425 302.335 345.49 302.703C346.554 303.072 347.598 303.44 348.622 303.809C349.278 304.045 349.928 304.296 350.578 304.532C351.512 304.88 352.431 305.228 353.33 305.576C353.607 305.68 353.876 305.791 354.146 305.895C354.319 305.972 354.485 306.035 354.651 306.104C354.976 306.236 355.307 306.361 355.625 306.494C355.95 306.619 356.268 306.751 356.586 306.89C356.898 307.015 357.216 307.147 357.52 307.28C357.831 307.405 358.135 307.537 358.439 307.676C358.695 307.78 358.944 307.892 359.186 308.003C359.677 308.218 360.168 308.434 360.645 308.657C360.88 308.768 361.115 308.872 361.35 308.983L361.889 309.234C361.965 309.276 362.042 309.31 362.118 309.345C362.29 309.429 362.47 309.519 362.643 309.602C363.044 309.79 363.438 309.992 363.825 310.18C364.344 310.444 364.849 310.708 365.333 310.966C365.823 311.23 366.3 311.494 366.757 311.752C366.833 311.793 366.902 311.835 366.978 311.877C367.082 311.932 367.185 311.995 367.289 312.051C367.642 312.252 367.981 312.461 368.319 312.663C368.983 313.073 369.612 313.476 370.2 313.88C370.331 313.97 370.456 314.06 370.587 314.144C371.023 314.457 371.438 314.763 371.825 315.076C371.825 315.083 371.825 315.083 371.832 315.083C371.963 315.18 372.087 315.285 372.212 315.382C372.316 315.479 372.426 315.563 372.53 315.66C372.889 315.973 373.221 316.272 373.526 316.578C373.628 316.673 373.724 316.772 373.816 316.877C373.856 316.911 373.893 316.948 373.927 316.989C374.065 317.128 374.189 317.267 374.307 317.406C374.325 317.425 374.341 317.446 374.355 317.468C374.521 317.663 374.673 317.858 374.818 318.053C374.888 318.15 374.964 318.247 375.026 318.345C375.109 318.463 375.192 318.588 375.261 318.706C375.323 318.804 375.378 318.908 375.434 319.006C375.58 319.256 375.705 319.519 375.807 319.791C375.885 319.976 375.947 320.167 375.994 320.362C376.046 320.546 376.085 320.735 376.111 320.925Z" fill="#2F2E41"/>
<path opacity="0.2" d="M376.111 320.925C376.104 322.142 376.09 323.846 376.035 325.953C376.028 326.246 376.014 326.545 376.007 326.851C375.938 329.806 375.834 333.458 375.689 337.582C375.682 337.832 375.675 338.076 375.662 338.326C375.468 343.362 375.164 349.225 374.638 358.509C373.663 375.66 371.963 360.867 370.255 366.883C365.512 363.948 360.313 360.874 354.754 357.717C353.751 357.146 352.74 356.574 351.719 355.999C340.601 349.76 328.184 343.222 315.22 336.748C314.709 336.49 314.19 336.233 313.678 335.982C283.983 321.217 251.571 306.855 225.312 297.271C220.244 295.421 215.404 293.752 210.855 292.285C201.272 289.204 192.989 287.048 186.615 286.116C179.977 285.142 175.393 285.49 173.54 287.5C173.471 286.081 173.4 284.722 173.326 283.424C173.298 282.993 173.271 282.569 173.243 282.151C173.286 282.037 173.341 281.928 173.395 281.817C173.403 281.801 173.408 281.785 173.416 281.769C173.429 281.733 173.445 281.698 173.464 281.665C173.485 281.621 173.508 281.58 173.534 281.539C173.556 281.49 173.584 281.443 173.617 281.4C173.679 281.303 173.748 281.199 173.824 281.101C173.88 281.028 173.94 280.959 174.004 280.893C174.025 280.859 174.051 280.829 174.08 280.802C174.107 280.774 174.135 280.74 174.17 280.705C174.184 280.683 174.203 280.664 174.225 280.649C174.28 280.586 174.34 280.528 174.405 280.475C174.651 280.247 174.915 280.038 175.193 279.849C175.29 279.787 175.393 279.724 175.49 279.655C176.187 279.235 176.921 278.881 177.682 278.598C177.945 278.5 178.207 278.41 178.491 278.312C178.595 278.285 178.691 278.25 178.795 278.215C178.947 278.166 179.099 278.118 179.258 278.083C180.046 277.846 180.897 277.645 181.816 277.457C182.093 277.401 182.383 277.346 182.674 277.297C182.909 277.255 183.151 277.213 183.393 277.172C185.446 276.845 187.776 276.601 190.348 276.441C190.59 276.428 190.832 276.414 191.074 276.4C191.358 276.386 191.641 276.372 191.931 276.358C192.173 276.344 192.422 276.337 192.671 276.33C192.913 276.316 193.162 276.309 193.418 276.302C194.116 276.282 194.835 276.261 195.568 276.247C197.656 276.212 199.855 276.226 202.164 276.275C203.236 276.295 204.328 276.33 205.448 276.379C205.517 276.379 205.593 276.386 205.662 276.386C206.637 276.414 207.626 276.462 208.629 276.511C209.334 276.546 210.046 276.581 210.758 276.622C211.429 276.664 212.106 276.706 212.791 276.754C213.323 276.782 213.855 276.824 214.395 276.859C214.851 276.894 215.307 276.928 215.764 276.956C216.31 276.998 216.856 277.04 217.409 277.081C218.17 277.144 218.93 277.206 219.705 277.269C220.472 277.339 221.253 277.408 222.035 277.478C222.816 277.547 223.604 277.624 224.392 277.7C224.475 277.707 224.551 277.714 224.627 277.721C225.346 277.798 226.065 277.867 226.791 277.944C230.815 278.354 234.957 278.834 239.216 279.383C241.76 279.71 244.337 280.06 246.945 280.434C250.907 280.997 254.931 281.609 258.983 282.263C263.041 282.923 267.122 283.621 271.227 284.356C272.264 284.544 273.301 284.732 274.345 284.926C275.617 285.163 276.89 285.404 278.162 285.65C278.964 285.803 279.766 285.956 280.568 286.116C281.522 286.304 282.483 286.491 283.437 286.679C289.722 287.931 295.972 289.266 302.07 290.664C303.072 290.894 304.075 291.13 305.071 291.36C307.062 291.826 309.035 292.299 310.989 292.779C311.528 292.911 312.061 293.043 312.593 293.175C313.927 293.509 315.248 293.843 316.555 294.176V294.183C316.631 294.197 316.707 294.218 316.783 294.239C317.737 294.483 318.684 294.726 319.624 294.976C321.844 295.561 324.026 296.149 326.172 296.743C327.596 297.146 329.007 297.543 330.396 297.946C332.477 298.558 334.517 299.17 336.501 299.782C336.992 299.935 337.483 300.088 337.967 300.234C339.419 300.693 340.843 301.15 342.24 301.604C343.346 301.966 344.425 302.335 345.489 302.703C346.554 303.072 347.598 303.44 348.621 303.809C349.285 304.046 349.935 304.289 350.578 304.525C351.518 304.873 352.431 305.221 353.33 305.576C353.606 305.68 353.876 305.791 354.145 305.896C354.65 306.09 355.141 306.292 355.625 306.494C355.95 306.619 356.268 306.751 356.586 306.89C356.897 307.015 357.215 307.147 357.519 307.28C357.831 307.405 358.135 307.537 358.439 307.676C358.695 307.78 358.944 307.892 359.186 308.003C359.677 308.218 360.168 308.434 360.645 308.657C360.88 308.768 361.115 308.872 361.35 308.983L361.889 309.234C361.965 309.276 362.041 309.31 362.117 309.345C362.705 309.623 363.272 309.902 363.825 310.18C364.344 310.444 364.848 310.708 365.332 310.966C365.906 311.272 366.452 311.571 366.978 311.877C367.081 311.932 367.185 311.995 367.289 312.051C367.641 312.252 367.98 312.461 368.319 312.663C368.983 313.073 369.612 313.476 370.2 313.88C370.78 314.283 371.32 314.68 371.824 315.076C371.824 315.083 371.824 315.083 371.831 315.083C372.073 315.278 372.308 315.472 372.53 315.66C372.889 315.973 373.221 316.272 373.525 316.578C373.627 316.673 373.724 316.772 373.816 316.877C373.856 316.911 373.893 316.948 373.926 316.989C374.071 317.149 374.217 317.308 374.355 317.468C374.521 317.663 374.673 317.858 374.818 318.053C374.887 318.15 374.963 318.247 375.026 318.345C375.109 318.463 375.191 318.588 375.261 318.706C375.323 318.804 375.378 318.908 375.433 319.005C375.58 319.256 375.705 319.519 375.807 319.791C375.882 319.977 375.945 320.167 375.993 320.362C376.046 320.546 376.085 320.735 376.111 320.925Z" fill="black"/>
<path d="M473.305 86H466.18L466.227 82.3203H473.305C475.742 82.3203 477.773 81.8125 479.398 80.7969C481.023 79.7656 482.242 78.3281 483.055 76.4844C483.883 74.625 484.297 72.4531 484.297 69.9688V67.8828C484.297 65.9297 484.062 64.1953 483.594 62.6797C483.125 61.1484 482.438 59.8594 481.531 58.8125C480.625 57.75 479.516 56.9453 478.203 56.3984C476.906 55.8516 475.414 55.5781 473.727 55.5781H466.039V51.875H473.727C475.961 51.875 478 52.25 479.844 53C481.688 53.7344 483.273 54.8047 484.602 56.2109C485.945 57.6016 486.977 59.2891 487.695 61.2734C488.414 63.2422 488.773 65.4609 488.773 67.9297V69.9688C488.773 72.4375 488.414 74.6641 487.695 76.6484C486.977 78.6172 485.938 80.2969 484.578 81.6875C483.234 83.0781 481.609 84.1484 479.703 84.8984C477.812 85.6328 475.68 86 473.305 86ZM468.594 51.875V86H464.07V51.875H468.594ZM517.25 82.3203V86H499.18V82.3203H517.25ZM500.094 51.875V86H495.57V51.875H500.094ZM514.859 66.5469V70.2266H499.18V66.5469H514.859ZM517.016 51.875V55.5781H499.18V51.875H517.016Z" fill="white"/>
<path d="M466.18 86L465.18 85.9873L465.167 87H466.18V86ZM466.227 82.3203V81.3203H465.239L465.227 82.3076L466.227 82.3203ZM479.398 80.7969L479.928 81.6449L479.934 81.6412L479.398 80.7969ZM483.055 76.4844L482.141 76.0775L482.14 76.0811L483.055 76.4844ZM483.594 62.6797L482.638 62.9724L482.638 62.9752L483.594 62.6797ZM481.531 58.8125L480.77 59.4615L480.775 59.467L481.531 58.8125ZM478.203 56.3984L477.815 57.3199L477.819 57.3215L478.203 56.3984ZM466.039 55.5781H465.039V56.5781H466.039V55.5781ZM466.039 51.875V50.875H465.039V51.875H466.039ZM479.844 53L479.467 53.9263L479.474 53.929L479.844 53ZM484.602 56.2109L483.875 56.8976L483.882 56.9058L484.602 56.2109ZM487.695 61.2734L486.755 61.614L486.756 61.6164L487.695 61.2734ZM487.695 76.6484L488.635 76.9914L488.636 76.989L487.695 76.6484ZM484.578 81.6875L483.863 80.9885L483.859 80.9926L484.578 81.6875ZM479.703 84.8984L480.065 85.8306L480.069 85.829L479.703 84.8984ZM468.594 51.875H469.594V50.875H468.594V51.875ZM468.594 86V87H469.594V86H468.594ZM464.07 86H463.07V87H464.07V86ZM464.07 51.875V50.875H463.07V51.875H464.07ZM473.305 85H466.18V87H473.305V85ZM467.18 86.0127L467.226 82.333L465.227 82.3076L465.18 85.9873L467.18 86.0127ZM466.227 83.3203H473.305V81.3203H466.227V83.3203ZM473.305 83.3203C475.879 83.3203 478.107 82.7835 479.928 81.6449L478.868 79.9489C477.44 80.8415 475.605 81.3203 473.305 81.3203V83.3203ZM479.934 81.6412C481.735 80.4986 483.081 78.9038 483.97 76.8876L482.14 76.0811C481.403 77.7525 480.312 79.0326 478.863 79.9525L479.934 81.6412ZM483.968 76.8912C484.864 74.8788 485.297 72.5631 485.297 69.9688H483.297C483.297 72.3432 482.901 74.3712 482.141 76.0775L483.968 76.8912ZM485.297 69.9688V67.8828H483.297V69.9688H485.297ZM485.297 67.8828C485.297 65.8517 485.053 64.0147 484.549 62.3842L482.638 62.9752C483.072 64.376 483.297 66.0077 483.297 67.8828H485.297ZM484.55 62.387C484.047 60.7432 483.298 59.3254 482.287 58.158L480.775 59.467C481.577 60.3933 482.203 61.5537 482.638 62.9724L484.55 62.387ZM482.292 58.1636C481.282 56.9791 480.043 56.0816 478.588 55.4754L477.819 57.3215C478.989 57.809 479.968 58.5209 480.77 59.4614L482.292 58.1636ZM478.592 55.477C477.15 54.869 475.522 54.5781 473.727 54.5781V56.5781C475.307 56.5781 476.663 56.8341 477.815 57.3199L478.592 55.477ZM473.727 54.5781H466.039V56.5781H473.727V54.5781ZM467.039 55.5781V51.875H465.039V55.5781H467.039ZM466.039 52.875H473.727V50.875H466.039V52.875ZM473.727 52.875C475.848 52.875 477.757 53.2306 479.467 53.9263L480.221 52.0737C478.243 51.2694 476.074 50.875 473.727 50.875V52.875ZM479.474 53.929C481.186 54.611 482.649 55.5999 483.875 56.8976L485.329 55.5243C483.898 54.0095 482.189 52.8578 480.214 52.071L479.474 53.929ZM483.882 56.9058C485.12 58.1863 486.08 59.7497 486.755 61.614L488.636 60.9329C487.873 58.8284 486.771 57.0169 485.321 55.5161L483.882 56.9058ZM486.756 61.6164C487.428 63.4576 487.773 65.5576 487.773 67.9297H489.773C489.773 65.3643 489.4 63.0268 488.635 60.9305L486.756 61.6164ZM487.773 67.9297V69.9688H489.773V67.9297H487.773ZM487.773 69.9688C487.773 72.3407 487.428 74.4495 486.755 76.3079L488.636 76.989C489.4 74.8786 489.773 72.5343 489.773 69.9688H487.773ZM486.756 76.3055C486.082 78.1515 485.116 79.707 483.863 80.9885L485.293 82.3865C486.759 80.8867 487.871 79.0829 488.635 76.9914L486.756 76.3055ZM483.859 80.9926C482.621 82.2743 481.118 83.2671 479.337 83.9679L480.069 85.829C482.101 85.0298 483.848 83.882 485.297 82.3824L483.859 80.9926ZM479.341 83.9663C477.584 84.6489 475.577 85 473.305 85V87C475.783 87 478.041 86.6168 480.065 85.8306L479.341 83.9663ZM467.594 51.875V86H469.594V51.875H467.594ZM468.594 85H464.07V87H468.594V85ZM465.07 86V51.875H463.07V86H465.07ZM464.07 52.875H468.594V50.875H464.07V52.875ZM517.25 82.3203H518.25V81.3203H517.25V82.3203ZM517.25 86V87H518.25V86H517.25ZM499.18 86H498.18V87H499.18V86ZM499.18 82.3203V81.3203H498.18V82.3203H499.18ZM500.094 51.875H501.094V50.875H500.094V51.875ZM500.094 86V87H501.094V86H500.094ZM495.57 86H494.57V87H495.57V86ZM495.57 51.875V50.875H494.57V51.875H495.57ZM514.859 66.5469H515.859V65.5469H514.859V66.5469ZM514.859 70.2266V71.2266H515.859V70.2266H514.859ZM499.18 70.2266H498.18V71.2266H499.18V70.2266ZM499.18 66.5469V65.5469H498.18V66.5469H499.18ZM517.016 51.875H518.016V50.875H517.016V51.875ZM517.016 55.5781V56.5781H518.016V55.5781H517.016ZM499.18 55.5781H498.18V56.5781H499.18V55.5781ZM499.18 51.875V50.875H498.18V51.875H499.18ZM516.25 82.3203V86H518.25V82.3203H516.25ZM517.25 85H499.18V87H517.25V85ZM500.18 86V82.3203H498.18V86H500.18ZM499.18 83.3203H517.25V81.3203H499.18V83.3203ZM499.094 51.875V86H501.094V51.875H499.094ZM500.094 85H495.57V87H500.094V85ZM496.57 86V51.875H494.57V86H496.57ZM495.57 52.875H500.094V50.875H495.57V52.875ZM513.859 66.5469V70.2266H515.859V66.5469H513.859ZM514.859 69.2266H499.18V71.2266H514.859V69.2266ZM500.18 70.2266V66.5469H498.18V70.2266H500.18ZM499.18 67.5469H514.859V65.5469H499.18V67.5469ZM516.016 51.875V55.5781H518.016V51.875H516.016ZM517.016 54.5781H499.18V56.5781H517.016V54.5781ZM500.18 55.5781V51.875H498.18V55.5781H500.18ZM499.18 52.875H517.016V50.875H499.18V52.875Z" fill="#FFEFEF"/>
</g>
<defs>
<clipPath id="clip0_185_283">
<rect width="544" height="398" fill="white"/>
</clipPath>
</defs>
</svg>
