<svg width="40" height="20" viewBox="0 0 41 33" fill="none" xmlns="http://www.w3.org/2000/svg">
<path d="M28.7 0.299438H12.3C5.5432 0.299438 0.0369 7.56895 0 16.5244V16.6382C0.0205485 20.936 1.32485 25.049 3.62874 28.0809C5.93263 31.1129 9.0494 32.8181 12.3 32.8252H28.7C31.9584 32.8181 35.0819 31.1046 37.3871 28.0598C39.6923 25.0149 40.9913 20.8867 41 16.5786V16.5298C40.9692 7.57708 35.4589 0.299438 28.7 0.299438ZM12.3 24.6938C8.96465 24.6938 6.15 20.9723 6.15 16.5623C6.15 12.1524 8.96465 8.43088 12.3 8.43088C15.6353 8.43088 18.45 12.1524 18.45 16.5623C18.45 20.9723 15.6353 24.6938 12.3 24.6938Z" fill="#FAFAFA"/>
</svg>
