<svg width="393" height="404" viewBox="0 0 393 404" fill="none" xmlns="http://www.w3.org/2000/svg">
<path d="M385.483 292.915C355.391 421.396 223.339 403.101 87.8418 403.101C-47.6554 403.101 5.53149 258.019 38.599 174.48C76.8986 77.723 148.767 0 284.264 0C419.761 0 393.691 228.939 385.483 292.915Z" fill="#FFA6EB"/>
<g clip-path="url(#clip0_165_3)">
<path d="M334.277 325.45L334.777 313.624C339.988 310.694 345.8 309.146 351.708 309.115C343.577 316.11 344.593 329.594 339.079 339C337.339 341.92 334.995 344.391 332.224 346.228C329.452 348.066 326.323 349.224 323.068 349.616L316.263 354C315.329 348.523 315.535 342.898 316.866 337.513C318.198 332.128 320.623 327.11 323.975 322.806C325.878 320.411 328.06 318.278 330.47 316.457C332.1 320.978 334.277 325.45 334.277 325.45Z" fill="#F2F2F2"/>
<path d="M100.647 220.32C100.198 219.889 99.8435 219.359 99.6097 218.767C99.3759 218.176 99.2681 217.538 99.2941 216.898C99.32 216.258 99.4789 215.632 99.7597 215.064C100.041 214.495 100.436 213.999 100.919 213.609L96.2571 198.834L103.683 200.933L106.972 214.642C107.541 215.539 107.777 216.624 107.636 217.692C107.495 218.76 106.987 219.737 106.207 220.437C105.427 221.137 104.431 221.511 103.406 221.49C102.381 221.469 101.4 221.052 100.647 220.32V220.32Z" fill="#A0616A"/>
<path d="M114.106 140.044C115.338 140.787 122.629 138.945 124.052 139.469C123.266 144.515 127.535 142.621 122.9 149.247C118.264 155.873 108.928 175.739 106.807 183.163C104.686 190.588 106.785 201.051 106.468 204.57C106.314 206.609 106.324 208.658 106.496 210.695C103.992 210.662 101.523 211.209 98.9795 210.859C96.2669 202.784 94.443 191.289 93.2045 184.936C91.9661 178.583 91.9208 181.27 92.4888 178.093C93.0568 174.916 93.1943 177.225 92.5976 174.186C92.001 171.147 94.4141 167.329 96.6438 165.151C97.6051 162.242 98.8476 159.53 99.7993 156.651C106.774 150.249 107.232 146.552 114.106 140.044Z" fill="#6C63FF"/>
<path d="M316.743 345.806H310.581L307.649 320.8H316.744L316.743 345.806Z" fill="#FFB6B6"/>
<path d="M318.314 352.09L298.446 352.089V351.825C298.446 349.667 299.261 347.598 300.711 346.072C302.161 344.546 304.128 343.689 306.179 343.689H306.18L309.809 340.792L316.58 343.689L318.315 343.689L318.314 352.09Z" fill="#2F2E41"/>
<path d="M288.115 345.806H281.954L279.022 320.8H288.116L288.115 345.806Z" fill="#FFB6B6"/>
<path d="M289.687 352.09L269.818 352.089V351.825C269.819 349.667 270.633 347.598 272.084 346.072C273.534 344.546 275.501 343.689 277.552 343.689H277.552L281.182 340.792L287.953 343.689L289.687 343.689L289.687 352.09Z" fill="#2F2E41"/>
<path d="M285.448 209.095L325.528 210.149C333.14 214.499 333.256 223.914 330.762 235.092C330.762 235.092 331.604 241.736 329.92 243.508C328.236 245.28 327.394 245.28 328.236 248.38C329.078 251.481 324.629 256.545 325.17 257.113C325.71 257.682 326.973 260.782 326.973 260.782L322.763 286.029C322.763 286.029 319.816 329.879 318.974 330.765C318.132 331.651 317.29 330.765 318.132 332.98C318.974 335.195 319.816 334.309 318.974 335.195C318.228 336.041 317.526 336.928 316.869 337.852H306.691C306.691 337.852 305.923 333.423 305.923 332.98C305.923 332.537 305.081 329.879 305.081 329.437C305.081 328.994 305.826 328.211 305.826 328.211C306.083 327.31 306.257 326.386 306.344 325.45C306.344 324.564 308.87 290.459 308.87 290.459L303.819 246.166L291.61 289.573C291.61 289.573 291.61 327.665 290.768 328.551C289.926 329.437 289.926 328.994 290.347 330.765C290.768 332.537 292.452 332.094 291.189 333.423C289.926 334.752 289.505 332.537 289.926 334.752L290.347 336.966L277.717 337.156C277.717 337.156 276.033 333.423 276.875 332.094C277.717 330.765 277.667 331.128 276.639 328.953C275.612 326.779 275.191 326.336 275.612 325.893C276.033 325.45 276.033 323.094 276.033 323.094L278.138 280.714C278.138 280.714 278.559 235.978 278.559 234.649C278.591 233.966 278.471 233.284 278.209 232.657V230.853L279.822 224.462L285.448 209.095Z" fill="#2F2E41"/>
<path d="M309.525 121.412C316.403 121.412 321.978 115.546 321.978 108.31C321.978 101.074 316.403 95.2075 309.525 95.2075C302.647 95.2075 297.072 101.074 297.072 108.31C297.072 115.546 302.647 121.412 309.525 121.412Z" fill="#FFB6B6"/>
<path d="M303.298 130.071C300.616 131.749 299.011 134.833 298.089 137.97C296.384 143.779 295.357 149.785 295.032 155.854L294.059 174.027L282.008 212.721C292.452 222.019 331.712 214.834 331.712 214.834C331.712 214.834 332.917 214.411 331.712 213.143C330.506 211.875 329.333 212.999 330.538 211.731C331.743 210.463 330.913 211.875 330.511 210.607C330.109 209.339 330.511 210.185 330.913 209.762C331.314 209.339 327.803 205.536 327.803 205.536L331.017 183.325L335.034 138.524C330.213 132.185 320.518 128.447 320.518 128.447L318.013 123.703L305.488 124.758L303.298 130.071Z" fill="#3F3D56"/>
<path d="M301.59 100.62C302.072 100.624 302.552 100.691 303.018 100.817C303.938 101.05 304.872 101.215 305.813 101.311C308.696 101.596 311.405 102.89 313.507 104.985C315.61 107.08 316.984 109.856 317.411 112.869C318.134 112.205 319.781 110.984 321.13 112.119C321.151 112.137 321.163 112.146 321.21 112.123C322.107 111.675 323.698 106.169 323.746 101.321C323.772 98.7474 323.386 95.4614 321.408 94.4209L321.304 94.366L321.277 94.2469C321.145 93.668 319.668 92.68 317.102 91.9109C312.438 90.5133 305.624 90.3113 301.709 94.3179C301.413 95.6686 300.312 96.0387 299.338 96.3664C298.26 96.729 297.329 97.042 297.183 98.4334C297.06 100.413 297.069 102.4 297.209 104.379C297.574 103.168 298.292 102.108 299.259 101.349C299.948 100.861 300.761 100.607 301.59 100.62Z" fill="#2F2E41"/>
<path d="M278.412 173.015L298.754 159.308L288.508 144.979L278.391 158.072L246.869 160.106C246.04 159.244 244.99 158.654 243.848 158.409C242.706 158.163 241.52 158.273 240.436 158.724C239.352 159.175 238.416 159.948 237.742 160.949C237.069 161.95 236.686 163.136 236.642 164.362C236.598 165.587 236.894 166.8 237.493 167.852C238.093 168.904 238.97 169.75 240.019 170.286C241.067 170.822 242.241 171.026 243.398 170.872C244.554 170.719 245.644 170.214 246.532 169.421L278.412 173.015Z" fill="#FFB6B6"/>
<path d="M317.634 140.177C318.815 147.694 296.519 162.049 296.519 162.049C296.519 160.285 283.212 173.605 282.611 172.142C280.904 167.983 279.704 158.132 277.318 156.555C275.954 155.654 285.534 147.183 285.534 147.183C285.534 147.183 290.549 141.868 297.13 135.163C298.957 133.231 301.219 131.817 303.705 131.053C306.191 130.288 308.821 130.198 311.349 130.79C311.349 130.79 316.453 132.659 317.634 140.177Z" fill="#3F3D56"/>
<path d="M294.967 226.49C294.976 234.535 293.696 242.523 291.18 250.12C291.065 250.473 290.944 250.821 290.824 251.174C285.674 265.89 276.095 278.432 263.545 286.891C262.688 287.471 261.821 288.025 260.939 288.562C250.913 294.678 239.562 297.985 227.974 298.166C227.593 298.172 227.212 298.177 226.831 298.177C226.34 298.177 225.854 298.172 225.368 298.161C213.764 297.918 202.414 294.546 192.403 288.367C191.521 287.824 190.652 287.26 189.797 286.675C175.864 277.172 165.704 262.647 161.224 245.824C156.744 229.002 158.252 211.037 165.464 195.301C165.624 194.948 165.789 194.6 165.96 194.247C171.64 182.387 180.338 172.419 191.086 165.455C201.834 158.49 214.209 154.803 226.831 154.803C239.454 154.803 251.829 158.49 262.576 165.455C273.324 172.419 282.023 182.387 287.703 194.247C287.873 194.6 288.038 194.948 288.199 195.301C292.669 205.024 294.983 215.689 294.967 226.49Z" fill="#F2F2F2"/>
<path d="M273.885 250.12V251.174H279.987V250.12H273.885ZM261.681 250.12V251.174H267.783V250.12H261.681ZM249.477 250.12V251.174H255.579V250.12H249.477ZM237.272 250.12V251.174H243.374V250.12H237.272ZM225.068 250.12V251.174H231.17V250.12H225.068ZM212.863 250.12V251.174H218.966V250.12H212.863ZM200.659 250.12V251.174H206.761V250.12H200.659ZM188.46 250.12V251.174H194.557V250.12H188.46ZM176.255 250.12V251.174H182.357V250.12H176.255ZM164.051 250.12V251.174H170.153V250.12H164.051ZM291.18 250.12H286.09V251.174H290.824L291.18 250.12Z" fill="#E6E6E6"/>
<path d="M286.09 242.741V243.795H292.192V242.741H286.09ZM273.885 242.741V243.795H279.987V242.741H273.885ZM261.681 242.741V243.795H267.783V242.741H261.681ZM249.477 242.741V243.795H255.579V242.741H249.477ZM237.272 242.741V243.795H243.374V242.741H237.272ZM225.068 242.741V243.795H231.17V242.741H225.068ZM212.863 242.741V243.795H218.966V242.741H212.863ZM200.659 242.741V243.795H206.761V242.741H200.659ZM188.46 242.741V243.795H194.557V242.741H188.46ZM176.255 242.741V243.795H182.357V242.741H176.255ZM164.051 242.741V243.795H170.153V242.741H164.051Z" fill="#E6E6E6"/>
<path d="M286.09 227.454V228.509H292.192V227.454H286.09ZM273.885 227.454V228.509H279.987V227.454H273.885ZM261.681 227.454V228.509H267.783V227.454H261.681ZM249.477 227.454V228.509H255.579V227.454H249.477ZM237.272 227.454V228.509H243.374V227.454H237.272ZM225.068 227.454V228.509H231.17V227.454H225.068ZM212.863 227.454V228.509H218.966V227.454H212.863ZM200.659 227.454V228.509H206.761V227.454H200.659ZM188.46 227.454V228.509H194.557V227.454H188.46ZM176.255 227.454V228.509H182.357V227.454H176.255ZM164.051 227.454V228.509H170.153V227.454H164.051Z" fill="#E6E6E6"/>
<path d="M286.09 216.912V217.966H292.192V216.912H286.09ZM273.885 216.912V217.966H279.987V216.912H273.885ZM261.681 216.912V217.966H267.783V216.912H261.681ZM249.477 216.912V217.966H255.579V216.912H249.477ZM237.272 216.912V217.966H243.374V216.912H237.272ZM225.068 216.912V217.966H231.17V216.912H225.068ZM212.863 216.912V217.966H218.966V216.912H212.863ZM200.659 216.912V217.966H206.761V216.912H200.659ZM188.46 216.912V217.966H194.557V216.912H188.46ZM176.255 216.912V217.966H182.357V216.912H176.255ZM164.051 216.912V217.966H170.153V216.912H164.051Z" fill="#E6E6E6"/>
<path d="M287.703 194.246H286.09V195.301H288.199C288.039 194.948 287.873 194.6 287.703 194.246ZM273.885 194.246V195.301H279.987V194.246H273.885ZM261.681 194.246V195.301H267.783V194.246H261.681ZM249.477 194.246V195.301H255.579V194.246H249.477ZM237.272 194.246V195.301H243.374V194.246H237.272ZM225.068 194.246V195.301H231.17V194.246H225.068ZM212.863 194.246V195.301H218.966V194.246H212.863ZM200.659 194.246V195.301H206.761V194.246H200.659ZM188.46 194.246V195.301H194.557V194.246H188.46ZM176.255 194.246V195.301H182.357V194.246H176.255ZM165.96 194.246C165.789 194.6 165.624 194.948 165.464 195.301H170.153V194.246H165.96Z" fill="#E6E6E6"/>
<path d="M263.545 197.799V286.891C262.688 287.471 261.821 288.025 260.939 288.562V197.799H263.545Z" fill="#3F3D56"/>
<path d="M227.974 227.317V298.166C227.593 298.172 227.212 298.177 226.831 298.177C226.34 298.177 225.854 298.172 225.368 298.161V227.317H227.974Z" fill="#3F3D56"/>
<path d="M192.403 197.799V288.367C191.521 287.824 190.652 287.26 189.797 286.675V197.799H192.403Z" fill="#3F3D56"/>
<path d="M64.7462 319.06L63.7524 304.518C57.2427 301.094 50.037 299.394 42.761 299.565C52.9973 307.89 52.1774 324.528 59.2666 335.915C61.5035 339.448 64.4675 342.407 67.939 344.571C71.4104 346.736 75.3004 348.051 79.3205 348.419L87.8395 353.575C88.814 346.798 88.3806 339.88 86.5691 333.297C84.7576 326.713 81.6111 320.621 77.3464 315.441C74.9266 312.559 72.1715 310.01 69.1461 307.853C67.284 313.478 64.7462 319.06 64.7462 319.06Z" fill="#F2F2F2"/>
<path d="M261.901 204.878C267.159 204.878 271.42 200.394 271.42 194.863C271.42 189.332 267.159 184.848 261.901 184.848C256.644 184.848 252.382 189.332 252.382 194.863C252.382 200.394 256.644 204.878 261.901 204.878Z" fill="#6C63FF"/>
<path d="M266.788 190.689C266.645 190.546 266.454 190.465 266.256 190.465C266.058 190.465 265.868 190.546 265.725 190.689C263.705 192.384 261.891 194.334 260.323 196.494C259.938 195.711 259.554 194.927 259.169 194.144C258.724 193.239 257.427 194.038 257.871 194.942C258.434 196.088 258.997 197.234 259.56 198.38C259.628 198.497 259.723 198.594 259.837 198.661C259.95 198.728 260.078 198.763 260.209 198.763C260.339 198.763 260.467 198.728 260.581 198.661C260.694 198.594 260.79 198.497 260.857 198.38C262.528 195.904 264.525 193.691 266.788 191.807C266.928 191.659 267.006 191.458 267.006 191.248C267.006 191.039 266.928 190.838 266.788 190.689Z" fill="white"/>
<path d="M226.831 234.397C232.088 234.397 236.35 229.913 236.35 224.381C236.35 218.85 232.088 214.366 226.831 214.366C221.574 214.366 217.312 218.85 217.312 224.381C217.312 229.913 221.574 234.397 226.831 234.397Z" fill="#6C63FF"/>
<path d="M231.718 220.207C231.575 220.064 231.384 219.984 231.186 219.984C230.988 219.984 230.798 220.064 230.655 220.207C228.635 221.902 226.821 223.852 225.253 226.012C224.868 225.229 224.484 224.445 224.099 223.662C223.654 222.758 222.357 223.556 222.801 224.46C223.364 225.606 223.927 226.752 224.49 227.898C224.558 228.015 224.653 228.112 224.767 228.179C224.88 228.246 225.008 228.281 225.139 228.281C225.269 228.281 225.397 228.246 225.511 228.179C225.624 228.112 225.72 228.015 225.787 227.898C227.458 225.422 229.455 223.21 231.718 221.326C231.858 221.177 231.936 220.976 231.936 220.767C231.936 220.557 231.858 220.356 231.718 220.207Z" fill="white"/>
<path d="M191.26 206.987C196.517 206.987 200.779 202.503 200.779 196.972C200.779 191.44 196.517 186.957 191.26 186.957C186.003 186.957 181.741 191.44 181.741 196.972C181.741 202.503 186.003 206.987 191.26 206.987Z" fill="#6C63FF"/>
<path d="M196.147 192.798C196.004 192.654 195.813 192.574 195.615 192.574C195.417 192.574 195.227 192.654 195.084 192.798C193.064 194.493 191.25 196.442 189.682 198.603C189.297 197.819 188.912 197.036 188.528 196.252C188.083 195.348 186.786 196.147 187.23 197.05C187.793 198.196 188.356 199.342 188.919 200.488C188.987 200.605 189.082 200.702 189.196 200.769C189.309 200.836 189.437 200.871 189.568 200.871C189.698 200.871 189.826 200.836 189.94 200.769C190.053 200.702 190.149 200.605 190.216 200.488C191.887 198.013 193.884 195.8 196.147 193.916C196.287 193.767 196.365 193.566 196.365 193.357C196.365 193.147 196.287 192.947 196.147 192.798Z" fill="white"/>
<path d="M327.771 189.85L334.038 165.304L317.292 161.969L318.193 178.817L296.19 202.653C295.025 202.603 293.872 202.911 292.87 203.538C291.868 204.166 291.062 205.087 290.549 206.188C290.037 207.29 289.839 208.525 289.982 209.742C290.125 210.959 290.601 212.107 291.353 213.044C292.105 213.982 293.099 214.669 294.216 215.022C295.332 215.375 296.522 215.378 297.641 215.032C298.759 214.686 299.757 214.005 300.514 213.072C301.271 212.139 301.753 210.994 301.903 209.778L327.771 189.85Z" fill="#FFB6B6"/>
<path d="M335.752 137.784C341.436 142.505 334.14 168.914 334.14 168.914C333.011 167.61 331.698 186.885 330.317 186.229C326.393 184.364 319.201 177.931 316.429 178.456C314.843 178.755 316.504 165.706 316.504 165.706C316.504 165.706 316.81 158.223 317.384 148.604C317.498 145.882 318.266 143.234 319.614 140.907C320.963 138.581 322.849 136.651 325.098 135.297C325.098 135.297 330.067 133.063 335.752 137.784Z" fill="#3F3D56"/>
<path d="M139.423 192.891L146.312 225.238L102.165 222.349L114.17 190.581L139.423 192.891Z" fill="#A0616A"/>
<path d="M132.072 342.183L137.031 342.183L139.39 322.058H132.071L132.072 342.183Z" fill="#A0616A"/>
<path d="M130.392 339.61L138.232 339.117V342.651L145.685 348.067C146.053 348.334 146.33 348.718 146.476 349.163C146.622 349.608 146.629 350.091 146.496 350.54C146.362 350.989 146.096 351.382 145.736 351.661C145.376 351.94 144.94 352.09 144.493 352.09H135.16L133.551 348.595L132.923 352.09H129.404L130.392 339.61Z" fill="#2F2E41"/>
<path d="M85.2012 339.587L90.0479 340.693L96.4086 321.552L89.2558 319.92L85.2012 339.587Z" fill="#A0616A"/>
<path d="M84.0789 336.698L91.8392 337.965L91.1271 341.419L97.3195 348.373C97.6254 348.717 97.8189 349.154 97.8718 349.622C97.9247 350.089 97.8343 350.562 97.6136 350.971C97.393 351.381 97.0537 351.705 96.6453 351.898C96.2369 352.09 95.7809 352.14 95.3437 352.04L86.2229 349.958L85.3551 346.183L84.0369 349.459L80.598 348.674L84.0789 336.698Z" fill="#2F2E41"/>
<path d="M147.439 252.287C143.959 272.411 143.089 281.1 143.089 281.1C143.089 281.1 145.699 284.301 143.959 286.132C142.219 287.963 143.959 291.619 143.959 291.619L140.046 335.984L136.896 335.447L129.309 334.164L126.572 333.698L128.312 292.08C128.312 292.08 126.572 288.418 127.442 287.502C128.312 286.587 126.572 281.1 126.572 281.1L124.399 237.65L110.92 285.216C110.92 285.216 112.228 287.047 110.92 288.418C109.618 289.788 107.012 296.652 107.012 296.652L98.9967 326.16L98.3162 328.666L94.1359 327.843L89.5862 326.943L88.7501 326.779L87.2627 326.482L86.3051 326.293L85.9794 326.232L84.4045 325.92L84.8809 323.695L85.1288 322.524L91.9096 290.837L92.0652 290.106L92.2305 289.333C92.2305 289.333 91.3604 287.047 92.6631 285.672C93.0442 285.252 93.3225 284.742 93.4741 284.184C93.6257 283.626 93.646 283.038 93.5332 282.47C93.4905 282.422 93.4515 282.371 93.4165 282.317C93.2626 282.095 93.1565 281.84 93.1054 281.57C92.9887 280.997 93.0908 280.194 93.9706 279.269C94.2184 278.992 94.4264 278.678 94.588 278.338C95.9101 275.704 96.576 270.125 96.576 270.125C96.576 270.125 97.7524 225.933 101.602 219.183C101.806 218.83 105.893 212.055 106.107 211.917C110.453 209.176 144.308 212.962 144.308 212.962C144.308 212.962 146.359 218.758 146.451 219.362C146.952 222.752 150.39 235.216 147.439 252.287Z" fill="#2F2E41"/>
<path d="M137.152 145.842C137.152 145.842 137.885 141.841 130.845 134.435C127.119 133.128 120.662 133.89 118.423 134.435C108.071 148.812 109.925 146.275 107.23 154.308C106.531 156.391 106.182 158.392 106.492 160.026C107.735 166.561 109.751 200.106 109.337 201.848C108.923 203.591 106.025 205.769 108.923 205.769C111.822 205.769 149.201 205.081 148.373 203.774C147.545 202.467 137.152 145.842 137.152 145.842Z" fill="#6C63FF"/>
<path d="M181.546 198.999C180.978 199.23 180.369 199.327 179.762 199.284C179.154 199.241 178.563 199.058 178.031 198.749C177.498 198.44 177.036 198.011 176.677 197.493C176.319 196.976 176.072 196.382 175.956 195.753L161.306 193.564L166.399 187.503L179.53 190.512C180.547 190.375 181.576 190.636 182.422 191.245C183.268 191.853 183.873 192.767 184.121 193.813C184.37 194.859 184.245 195.965 183.77 196.921C183.295 197.876 182.504 198.616 181.546 198.999L181.546 198.999Z" fill="#A0616A"/>
<path d="M119.565 143.267C120.746 142.437 122.088 142.047 123.168 140.94C127.111 143.927 127.402 139.063 130.975 146.38C134.549 153.698 147.296 171.341 152.669 176.646C158.043 181.951 167.882 184.634 170.735 186.501C172.402 187.553 174.149 188.457 175.96 189.202C174.816 191.546 174.182 194.115 172.752 196.356C164.671 195.314 154.077 191.912 148.119 190.249C142.161 188.586 144.427 189.825 141.977 187.875C139.527 185.925 141.553 186.824 138.701 186.033C135.849 185.241 133.674 181.267 132.815 178.197C130.767 175.996 129.012 173.617 126.987 171.438C124.646 162.017 122.042 152.64 119.565 143.267Z" fill="#6C63FF"/>
<path d="M128.816 128.859C135.438 128.859 140.806 123.211 140.806 116.244C140.806 109.276 135.438 103.628 128.816 103.628C122.194 103.628 116.825 109.276 116.825 116.244C116.825 123.211 122.194 128.859 128.816 128.859Z" fill="#A0616A"/>
<path d="M136.827 139.304C136.258 138.45 132.009 129.983 130.746 126.781C130.616 127.474 130.534 128.176 130.501 128.882L130.488 129.145L130.24 129.179C129.867 129.229 121.048 130.355 116.458 124.88C113.739 121.637 113.123 116.772 114.623 110.418C114.35 110.362 114.089 110.256 113.85 110.105C113.454 109.816 113.121 109.44 112.877 109.002C112.633 108.564 112.482 108.075 112.436 107.57L112.182 107.641C104.017 103.461 111.051 91.2328 118.509 97.3125C119.163 97.1587 119.845 97.1999 120.478 97.4315C121.089 97.6929 121.621 98.1232 122.018 98.6768C122.415 99.2305 122.662 99.8868 122.733 100.576C126.586 98.4439 131.686 98.7909 134.324 100.391C135.428 101.061 136.062 101.905 136.175 102.846C139.29 103.029 142.641 106.222 142.641 110.745V111.06H142.341C141.088 111.088 139.866 111.474 138.805 112.177C137.744 112.88 136.885 113.874 136.32 115.051C135.554 116.507 135.174 118.154 135.222 119.817C135.27 121.481 135.742 123.1 136.591 124.505C137.514 125.996 138.144 127.665 138.444 129.416C138.744 131.166 138.709 132.963 138.339 134.698L137.214 139.885L136.827 139.304Z" fill="#2F2E41"/>
<path d="M171.618 352.194C171.618 352.277 171.603 352.359 171.573 352.435C171.543 352.511 171.499 352.58 171.444 352.638C171.388 352.697 171.322 352.743 171.25 352.774C171.178 352.806 171.1 352.822 171.022 352.822H30.5962C30.4381 352.822 30.2864 352.756 30.1746 352.638C30.0628 352.52 30 352.361 30 352.194C30 352.028 30.0628 351.868 30.1746 351.751C30.2864 351.633 30.4381 351.567 30.5962 351.567H171.022C171.1 351.567 171.178 351.583 171.25 351.614C171.322 351.646 171.388 351.692 171.444 351.75C171.499 351.809 171.543 351.878 171.573 351.954C171.603 352.03 171.618 352.112 171.618 352.194Z" fill="#CCCCCC"/>
<path d="M363 352.194C363 352.277 362.985 352.359 362.955 352.435C362.925 352.511 362.881 352.58 362.826 352.638C362.77 352.697 362.705 352.743 362.632 352.774C362.56 352.806 362.482 352.822 362.404 352.822H221.978C221.82 352.822 221.669 352.756 221.557 352.638C221.445 352.52 221.382 352.361 221.382 352.194C221.382 352.028 221.445 351.868 221.557 351.751C221.669 351.633 221.82 351.567 221.978 351.567H362.404C362.482 351.567 362.56 351.583 362.632 351.614C362.705 351.646 362.77 351.692 362.826 351.75C362.881 351.809 362.925 351.878 362.955 351.954C362.985 352.03 363 352.112 363 352.194Z" fill="#CCCCCC"/>
<path d="M190.964 306.988C193.895 306.988 196.27 304.489 196.27 301.406C196.27 298.323 193.895 295.824 190.964 295.824C188.034 295.824 185.659 298.323 185.659 301.406C185.659 304.489 188.034 306.988 190.964 306.988Z" fill="#E6E6E6"/>
<path d="M226.535 312.787C229.466 312.787 231.841 310.287 231.841 307.204C231.841 304.121 229.466 301.622 226.535 301.622C223.605 301.622 221.23 304.121 221.23 307.204C221.23 310.287 223.605 312.787 226.535 312.787Z" fill="#E6E6E6"/>
<path d="M262.106 305.934C265.037 305.934 267.412 303.435 267.412 300.352C267.412 297.269 265.037 294.769 262.106 294.769C259.176 294.769 256.801 297.269 256.801 300.352C256.801 303.435 259.176 305.934 262.106 305.934Z" fill="#E6E6E6"/>
</g>
<defs>
<clipPath id="clip0_165_3">
<rect width="333" height="263" fill="white" transform="translate(30 91)"/>
</clipPath>
</defs>
</svg>
