<svg width="393" height="404" viewBox="0 0 393 404" fill="none" xmlns="http://www.w3.org/2000/svg">
<path d="M7.51651 292.915C37.609 421.396 169.661 403.101 305.158 403.101C440.655 403.101 387.469 258.019 354.401 174.48C316.101 77.723 244.233 0 108.736 0C-26.761 0 -0.690521 228.939 7.51651 292.915Z" fill="#FB9F15"/>
<path d="M210.603 345.661L210.877 338.28C213.734 336.45 216.921 335.484 220.161 335.465C215.702 339.831 216.259 348.248 213.236 354.12C212.281 355.943 210.997 357.485 209.477 358.632C207.957 359.779 206.241 360.502 204.456 360.747L200.724 363.483C200.212 360.064 200.325 356.553 201.055 353.192C201.785 349.83 203.115 346.698 204.953 344.011C205.997 342.516 207.193 341.185 208.515 340.048C209.409 342.87 210.603 345.661 210.603 345.661Z" fill="#F2F2F2"/>
<path d="M260.08 364.279C260.08 364.374 260.065 364.468 260.035 364.555C260.005 364.643 259.96 364.722 259.904 364.789C259.848 364.856 259.782 364.91 259.709 364.946C259.635 364.982 259.557 365 259.478 365H97.4317C97.272 365 97.1188 364.924 97.0059 364.789C96.893 364.654 96.8296 364.47 96.8296 364.279C96.8296 364.088 96.893 363.904 97.0059 363.769C97.1188 363.634 97.272 363.558 97.4317 363.558H259.478C259.557 363.558 259.635 363.576 259.709 363.612C259.782 363.648 259.848 363.701 259.904 363.768C259.96 363.835 260.004 363.915 260.035 364.003C260.065 364.09 260.08 364.184 260.08 364.279Z" fill="#CCCCCC"/>
<path d="M311.468 156.713H246.847C244.85 156.71 242.936 155.759 241.524 154.068C240.112 152.376 239.317 150.083 239.315 147.692V105.539C239.317 103.147 240.112 100.854 241.524 99.1632C242.936 97.4721 244.85 96.5209 246.847 96.5183H311.468C313.465 96.5209 315.38 97.4721 316.792 99.1632C318.204 100.854 318.998 103.147 319 105.539V147.692C318.998 150.083 318.204 152.376 316.792 154.068C315.38 155.759 313.465 156.71 311.468 156.713Z" fill="#F2F2F2"/>
<path d="M212.81 156.713H148.189C146.193 156.71 144.278 155.759 142.866 154.068C141.454 152.376 140.66 150.083 140.657 147.692V105.539C140.66 103.147 141.454 100.854 142.866 99.1632C144.278 97.4721 146.193 96.5209 148.189 96.5183H212.81C214.807 96.5209 216.722 97.4721 218.134 99.1632C219.546 100.854 220.34 103.147 220.342 105.539V147.692C220.34 150.083 219.546 152.376 218.134 154.068C216.722 155.759 214.807 156.71 212.81 156.713Z" fill="#F2F2F2"/>
<path d="M114.153 156.713H49.532C47.535 156.71 45.6205 155.759 44.2085 154.068C42.7965 152.376 42.0022 150.083 42 147.692V105.539C42.0022 103.147 42.7965 100.854 44.2086 99.1632C45.6206 97.4721 47.5351 96.5209 49.532 96.5183H114.153C116.15 96.5209 118.064 97.4721 119.476 99.1632C120.888 100.854 121.683 103.147 121.685 105.539V147.692C121.683 150.083 120.888 152.376 119.476 154.068C118.064 155.759 116.15 156.71 114.153 156.713Z" fill="#F2F2F2"/>
<path d="M212.81 157.319H148.19C146.058 157.316 144.015 156.3 142.508 154.496C141.002 152.691 140.154 150.244 140.152 147.692V105.539C140.154 102.986 141.002 100.54 142.509 98.7349C144.015 96.9302 146.059 95.9151 148.19 95.9122H212.81C214.942 95.9151 216.985 96.9302 218.491 98.7349C219.998 100.54 220.846 102.986 220.848 105.539V147.692C220.846 150.244 219.998 152.691 218.492 154.496C216.985 156.3 214.942 157.316 212.81 157.319ZM148.19 97.1241C146.327 97.1266 144.541 98.0139 143.224 99.5914C141.907 101.169 141.166 103.308 141.163 105.539V147.692C141.166 149.923 141.906 152.061 143.224 153.639C144.541 155.217 146.327 156.104 148.19 156.107H212.81C214.673 156.104 216.459 155.217 217.776 153.639C219.094 152.061 219.834 149.923 219.837 147.692V105.539C219.834 103.308 219.093 101.169 217.776 99.5914C216.459 98.0139 214.673 97.1266 212.81 97.1241H148.19Z" fill="#1A1B1D"/>
<path d="M94.0522 97.8946H93.7909V89.3116C93.7909 87.9941 93.3539 86.7306 92.5761 85.799C91.7982 84.8674 90.7432 84.344 89.6432 84.344H74.4598C73.9151 84.344 73.3758 84.4725 72.8725 84.7221C72.3693 84.9717 71.9121 85.3376 71.5269 85.7989C71.1417 86.2602 70.8362 86.8078 70.6278 87.4105C70.4193 88.0132 70.312 88.6592 70.312 89.3115V136.399C70.312 137.716 70.749 138.98 71.5268 139.911C72.3047 140.843 73.3597 141.366 74.4597 141.366H89.643C90.1877 141.366 90.727 141.238 91.2303 140.988C91.7335 140.739 92.1907 140.373 92.5759 139.911C92.961 139.45 93.2665 138.902 93.475 138.3C93.6834 137.697 93.7907 137.051 93.7907 136.399V104.004H94.052L94.0522 97.8946Z" fill="#E6E6E6"/>
<path d="M92.945 88.9789V136.731C92.9449 137.73 92.6136 138.688 92.0239 139.395C91.4342 140.101 90.6344 140.498 89.8003 140.498H74.3054C73.4711 140.499 72.6708 140.102 72.0807 139.395C71.4906 138.689 71.1589 137.731 71.1587 136.731V88.9789C71.1589 87.9797 71.4906 87.0214 72.0807 86.315C72.6708 85.6086 73.471 85.2118 74.3053 85.2119H76.1849C76.0926 85.4837 76.0575 85.7786 76.0826 86.0704C76.1078 86.3623 76.1924 86.6424 76.329 86.8859C76.4657 87.1295 76.6502 87.3291 76.8663 87.4673C77.0825 87.6054 77.3237 87.6779 77.5687 87.6783H86.4026C86.6476 87.6779 86.8888 87.6054 87.1049 87.4673C87.3211 87.3291 87.5056 87.1295 87.6422 86.8859C87.7789 86.6424 87.8635 86.3623 87.8886 86.0704C87.9137 85.7786 87.8786 85.4837 87.7863 85.2119H89.7997C90.6338 85.2121 91.4336 85.6089 92.0234 86.3152C92.6132 87.0214 92.9447 87.9793 92.945 88.9782V88.9789Z" fill="white"/>
<path d="M89.3481 130.254H75.0382C74.5235 130.253 74.0301 130.008 73.6661 129.572C73.3022 129.136 73.0975 128.545 73.0969 127.929V103.819C73.0996 101.004 74.0343 98.3056 75.6961 96.3153C77.3579 94.325 79.611 93.2055 81.9611 93.2023H89.3481C89.8628 93.203 90.3562 93.4481 90.7201 93.884C91.084 94.3198 91.2887 94.9108 91.2893 95.5272V127.929C91.2887 128.545 91.084 129.136 90.7201 129.572C90.3562 130.008 89.8628 130.253 89.3481 130.254Z" fill="#F2F2F2"/>
<path d="M74.1809 136.058C74.7498 136.058 75.2111 135.505 75.2111 134.824C75.2111 134.142 74.7498 133.59 74.1809 133.59C73.6119 133.59 73.1506 134.142 73.1506 134.824C73.1506 135.505 73.6119 136.058 74.1809 136.058Z" fill="#E6E6E6"/>
<path d="M185.977 116.595H174.599C174.538 116.595 174.477 116.606 174.418 116.629C174.295 116.675 174.187 116.767 174.11 116.891C174.033 117.016 173.992 117.167 173.992 117.322V138.85H186.585V117.322C186.585 117.226 186.569 117.132 186.538 117.043C186.508 116.955 186.463 116.875 186.407 116.808C186.35 116.74 186.283 116.687 186.209 116.65C186.136 116.614 186.057 116.595 185.977 116.595ZM181.671 127.217C181.671 127.566 181.575 127.905 181.397 128.182C181.228 128.451 180.992 128.649 180.723 128.749C180.455 128.849 180.167 128.845 179.9 128.738C179.633 128.632 179.401 128.427 179.237 128.154C179.072 127.881 178.983 127.553 178.982 127.217V124.719C178.985 124.294 179.129 123.889 179.38 123.59C179.632 123.291 179.972 123.124 180.326 123.124C180.681 123.124 181.021 123.291 181.273 123.59C181.524 123.889 181.667 124.294 181.671 124.719V127.217Z" fill="#2F2E41"/>
<path d="M173.954 138.161V140.237C173.954 140.345 173.989 140.448 174.053 140.524C174.116 140.601 174.202 140.644 174.292 140.644H186.285C186.375 140.643 186.461 140.6 186.524 140.524C186.588 140.448 186.623 140.345 186.624 140.237V138.161H173.954Z" fill="#3F3D56"/>
<path d="M204.818 83H156.183C155.765 83.0006 155.364 83.1996 155.068 83.5533C154.773 83.907 154.606 84.3866 154.605 84.8871V124.194C154.606 124.695 154.772 125.175 155.068 125.529C155.363 125.884 155.764 126.083 156.183 126.083H204.818C205.236 126.083 205.637 125.884 205.933 125.529C206.228 125.175 206.395 124.695 206.395 124.194V84.8871C206.394 84.3866 206.227 83.907 205.932 83.5533C205.636 83.1996 205.235 83.0006 204.818 83Z" fill="#3F3D56"/>
<path d="M204.411 84.3644H156.587C156.364 84.365 156.149 84.4718 155.991 84.6615C155.833 84.8512 155.744 85.1082 155.744 85.3761V123.709C155.745 123.977 155.834 124.233 155.992 124.422C156.15 124.612 156.364 124.718 156.587 124.719H204.411C204.634 124.718 204.849 124.612 205.007 124.422C205.165 124.233 205.254 123.977 205.254 123.709V85.3761C205.254 85.1082 205.165 84.8512 205.007 84.6615C204.849 84.4718 204.635 84.365 204.411 84.3644Z" fill="#1A1B1D"/>
<path d="M195.609 140.611L195.168 138.098C195.149 137.996 195.11 137.9 195.053 137.821C194.996 137.741 194.923 137.68 194.842 137.643C194.782 137.615 194.719 137.601 194.656 137.601H167.085C167.022 137.601 166.959 137.615 166.9 137.643C166.818 137.68 166.745 137.741 166.688 137.821C166.631 137.9 166.592 137.996 166.574 138.098L166.132 140.611C166.116 140.702 166.117 140.796 166.136 140.887C166.154 140.977 166.189 141.062 166.238 141.134C166.287 141.207 166.349 141.265 166.419 141.305C166.489 141.345 166.566 141.366 166.644 141.366H195.096C195.174 141.367 195.251 141.346 195.321 141.306C195.392 141.265 195.454 141.206 195.502 141.133C195.551 141.061 195.586 140.977 195.605 140.886C195.623 140.796 195.625 140.702 195.609 140.611Z" fill="#2F2E41"/>
<path d="M168.027 138.053H167.424C167.349 138.053 167.288 138.126 167.288 138.217V138.519C167.288 138.61 167.349 138.683 167.424 138.683H168.027C168.103 138.683 168.164 138.61 168.164 138.519V138.217C168.164 138.126 168.103 138.053 168.027 138.053Z" fill="#3F3D56"/>
<path d="M169.78 138.053H169.177C169.101 138.053 169.04 138.126 169.04 138.217V138.519C169.04 138.61 169.101 138.683 169.177 138.683H169.78C169.855 138.683 169.917 138.61 169.917 138.519V138.217C169.917 138.126 169.855 138.053 169.78 138.053Z" fill="#3F3D56"/>
<path d="M171.533 138.053H170.929C170.854 138.053 170.793 138.126 170.793 138.217V138.519C170.793 138.61 170.854 138.683 170.929 138.683H171.533C171.608 138.683 171.669 138.61 171.669 138.519V138.217C171.669 138.126 171.608 138.053 171.533 138.053Z" fill="#3F3D56"/>
<path d="M173.285 138.053H172.682C172.607 138.053 172.545 138.126 172.545 138.217V138.519C172.545 138.61 172.607 138.683 172.682 138.683H173.285C173.361 138.683 173.422 138.61 173.422 138.519V138.217C173.422 138.126 173.361 138.053 173.285 138.053Z" fill="#3F3D56"/>
<path d="M175.038 138.053H174.435C174.359 138.053 174.298 138.126 174.298 138.217V138.519C174.298 138.61 174.359 138.683 174.435 138.683H175.038C175.113 138.683 175.174 138.61 175.174 138.519V138.217C175.174 138.126 175.113 138.053 175.038 138.053Z" fill="#3F3D56"/>
<path d="M176.79 138.053H176.187C176.112 138.053 176.051 138.126 176.051 138.217V138.519C176.051 138.61 176.112 138.683 176.187 138.683H176.79C176.866 138.683 176.927 138.61 176.927 138.519V138.217C176.927 138.126 176.866 138.053 176.79 138.053Z" fill="#3F3D56"/>
<path d="M178.543 138.053H177.94C177.864 138.053 177.803 138.126 177.803 138.217V138.519C177.803 138.61 177.864 138.683 177.94 138.683H178.543C178.618 138.683 178.68 138.61 178.68 138.519V138.217C178.68 138.126 178.618 138.053 178.543 138.053Z" fill="#3F3D56"/>
<path d="M180.296 138.053H179.692C179.617 138.053 179.556 138.126 179.556 138.217V138.519C179.556 138.61 179.617 138.683 179.692 138.683H180.296C180.371 138.683 180.432 138.61 180.432 138.519V138.217C180.432 138.126 180.371 138.053 180.296 138.053Z" fill="#3F3D56"/>
<path d="M182.048 138.053H181.445C181.37 138.053 181.309 138.126 181.309 138.217V138.519C181.309 138.61 181.37 138.683 181.445 138.683H182.048C182.124 138.683 182.185 138.61 182.185 138.519V138.217C182.185 138.126 182.124 138.053 182.048 138.053Z" fill="#3F3D56"/>
<path d="M183.801 138.053H183.198C183.122 138.053 183.061 138.126 183.061 138.217V138.519C183.061 138.61 183.122 138.683 183.198 138.683H183.801C183.876 138.683 183.937 138.61 183.937 138.519V138.217C183.937 138.126 183.876 138.053 183.801 138.053Z" fill="#3F3D56"/>
<path d="M185.554 138.053H184.95C184.875 138.053 184.814 138.126 184.814 138.217V138.519C184.814 138.61 184.875 138.683 184.95 138.683H185.554C185.629 138.683 185.69 138.61 185.69 138.519V138.217C185.69 138.126 185.629 138.053 185.554 138.053Z" fill="#3F3D56"/>
<path d="M187.306 138.053H186.703C186.628 138.053 186.566 138.126 186.566 138.217V138.519C186.566 138.61 186.628 138.683 186.703 138.683H187.306C187.382 138.683 187.443 138.61 187.443 138.519V138.217C187.443 138.126 187.382 138.053 187.306 138.053Z" fill="#3F3D56"/>
<path d="M189.059 138.053H188.455C188.38 138.053 188.319 138.126 188.319 138.217V138.519C188.319 138.61 188.38 138.683 188.455 138.683H189.059C189.134 138.683 189.195 138.61 189.195 138.519V138.217C189.195 138.126 189.134 138.053 189.059 138.053Z" fill="#3F3D56"/>
<path d="M190.811 138.053H190.208C190.133 138.053 190.072 138.126 190.072 138.217V138.519C190.072 138.61 190.133 138.683 190.208 138.683H190.811C190.887 138.683 190.948 138.61 190.948 138.519V138.217C190.948 138.126 190.887 138.053 190.811 138.053Z" fill="#3F3D56"/>
<path d="M192.564 138.053H191.961C191.885 138.053 191.824 138.126 191.824 138.217V138.519C191.824 138.61 191.885 138.683 191.961 138.683H192.564C192.639 138.683 192.701 138.61 192.701 138.519V138.217C192.701 138.126 192.639 138.053 192.564 138.053Z" fill="#3F3D56"/>
<path d="M194.316 138.053H193.713C193.638 138.053 193.577 138.126 193.577 138.217V138.519C193.577 138.61 193.638 138.683 193.713 138.683H194.316C194.392 138.683 194.453 138.61 194.453 138.519V138.217C194.453 138.126 194.392 138.053 194.316 138.053Z" fill="#3F3D56"/>
<path d="M168.007 139.103H167.403C167.328 139.103 167.267 139.176 167.267 139.266V139.569C167.267 139.659 167.328 139.732 167.403 139.732H168.007C168.082 139.732 168.143 139.659 168.143 139.569V139.266C168.143 139.176 168.082 139.103 168.007 139.103Z" fill="#3F3D56"/>
<path d="M169.759 139.103H169.156C169.081 139.103 169.02 139.176 169.02 139.266V139.569C169.02 139.659 169.081 139.732 169.156 139.732H169.759C169.835 139.732 169.896 139.659 169.896 139.569V139.266C169.896 139.176 169.835 139.103 169.759 139.103Z" fill="#3F3D56"/>
<path d="M171.512 139.103H170.908C170.833 139.103 170.772 139.176 170.772 139.266V139.569C170.772 139.659 170.833 139.732 170.908 139.732H171.512C171.587 139.732 171.648 139.659 171.648 139.569V139.266C171.648 139.176 171.587 139.103 171.512 139.103Z" fill="#3F3D56"/>
<path d="M173.264 139.103H172.661C172.586 139.103 172.525 139.176 172.525 139.266V139.569C172.525 139.659 172.586 139.732 172.661 139.732H173.264C173.34 139.732 173.401 139.659 173.401 139.569V139.266C173.401 139.176 173.34 139.103 173.264 139.103Z" fill="#3F3D56"/>
<path d="M175.017 139.103H174.414C174.338 139.103 174.277 139.176 174.277 139.266V139.569C174.277 139.659 174.338 139.732 174.414 139.732H175.017C175.093 139.732 175.154 139.659 175.154 139.569V139.266C175.154 139.176 175.093 139.103 175.017 139.103Z" fill="#3F3D56"/>
<path d="M176.77 139.103H176.167C176.091 139.103 176.03 139.176 176.03 139.266V139.569C176.03 139.659 176.091 139.732 176.167 139.732H176.77C176.845 139.732 176.906 139.659 176.906 139.569V139.266C176.906 139.176 176.845 139.103 176.77 139.103Z" fill="#3F3D56"/>
<path d="M178.522 139.103H177.919C177.844 139.103 177.782 139.176 177.782 139.266V139.569C177.782 139.659 177.844 139.732 177.919 139.732H178.522C178.598 139.732 178.659 139.659 178.659 139.569V139.266C178.659 139.176 178.598 139.103 178.522 139.103Z" fill="#3F3D56"/>
<path d="M180.275 139.103H179.672C179.596 139.103 179.535 139.176 179.535 139.266V139.569C179.535 139.659 179.596 139.732 179.672 139.732H180.275C180.35 139.732 180.411 139.659 180.411 139.569V139.266C180.411 139.176 180.35 139.103 180.275 139.103Z" fill="#3F3D56"/>
<path d="M182.028 139.103H181.424C181.349 139.103 181.288 139.176 181.288 139.266V139.569C181.288 139.659 181.349 139.732 181.424 139.732H182.028C182.103 139.732 182.164 139.659 182.164 139.569V139.266C182.164 139.176 182.103 139.103 182.028 139.103Z" fill="#3F3D56"/>
<path d="M183.78 139.103H183.177C183.101 139.103 183.04 139.176 183.04 139.266V139.569C183.04 139.659 183.101 139.732 183.177 139.732H183.78C183.855 139.732 183.917 139.659 183.917 139.569V139.266C183.917 139.176 183.855 139.103 183.78 139.103Z" fill="#3F3D56"/>
<path d="M185.533 139.103H184.929C184.854 139.103 184.793 139.176 184.793 139.266V139.569C184.793 139.659 184.854 139.732 184.929 139.732H185.533C185.608 139.732 185.669 139.659 185.669 139.569V139.266C185.669 139.176 185.608 139.103 185.533 139.103Z" fill="#3F3D56"/>
<path d="M187.285 139.103H186.682C186.607 139.103 186.546 139.176 186.546 139.266V139.569C186.546 139.659 186.607 139.732 186.682 139.732H187.285C187.361 139.732 187.422 139.659 187.422 139.569V139.266C187.422 139.176 187.361 139.103 187.285 139.103Z" fill="#3F3D56"/>
<path d="M189.038 139.103H188.435C188.359 139.103 188.298 139.176 188.298 139.266V139.569C188.298 139.659 188.359 139.732 188.435 139.732H189.038C189.114 139.732 189.175 139.659 189.175 139.569V139.266C189.175 139.176 189.114 139.103 189.038 139.103Z" fill="#3F3D56"/>
<path d="M190.791 139.103H190.187C190.112 139.103 190.051 139.176 190.051 139.266V139.569C190.051 139.659 190.112 139.732 190.187 139.732H190.791C190.866 139.732 190.927 139.659 190.927 139.569V139.266C190.927 139.176 190.866 139.103 190.791 139.103Z" fill="#3F3D56"/>
<path d="M192.543 139.103H191.94C191.865 139.103 191.803 139.176 191.803 139.266V139.569C191.803 139.659 191.865 139.732 191.94 139.732H192.543C192.619 139.732 192.68 139.659 192.68 139.569V139.266C192.68 139.176 192.619 139.103 192.543 139.103Z" fill="#3F3D56"/>
<path d="M194.296 139.103H193.693C193.617 139.103 193.556 139.176 193.556 139.266V139.569C193.556 139.659 193.617 139.732 193.693 139.732H194.296C194.371 139.732 194.432 139.659 194.432 139.569V139.266C194.432 139.176 194.371 139.103 194.296 139.103Z" fill="#3F3D56"/>
<path d="M182.553 140.362H175.816C175.741 140.362 175.679 140.435 175.679 140.526V140.828C175.679 140.919 175.741 140.992 175.816 140.992H182.553C182.629 140.992 182.69 140.919 182.69 140.828V140.526C182.69 140.435 182.629 140.362 182.553 140.362Z" fill="#3F3D56"/>
<path d="M202.008 89.6449H157.26C157.213 89.6437 157.169 89.6207 157.136 89.5808C157.104 89.541 157.085 89.4875 157.085 89.4318C157.085 89.376 157.104 89.3225 157.136 89.2827C157.169 89.2428 157.213 89.2198 157.26 89.2186H202.008C202.054 89.2198 202.099 89.2428 202.131 89.2827C202.164 89.3225 202.182 89.376 202.182 89.4318C202.182 89.4875 202.164 89.541 202.131 89.5808C202.099 89.6207 202.054 89.6437 202.008 89.6449Z" fill="#3F3D56"/>
<path d="M160.306 88.1305C160.882 88.1305 161.348 87.5588 161.348 86.8536C161.348 86.1485 160.882 85.5768 160.306 85.5768C159.73 85.5768 159.263 86.1485 159.263 86.8536C159.263 87.5588 159.73 88.1305 160.306 88.1305Z" fill="#3F3D56"/>
<path d="M163.908 88.1305C164.484 88.1305 164.951 87.5588 164.951 86.8536C164.951 86.1485 164.484 85.5768 163.908 85.5768C163.332 85.5768 162.865 86.1485 162.865 86.8536C162.865 87.5588 163.332 88.1305 163.908 88.1305Z" fill="#3F3D56"/>
<path d="M167.511 88.1305C168.087 88.1305 168.554 87.5588 168.554 86.8536C168.554 86.1485 168.087 85.5768 167.511 85.5768C166.935 85.5768 166.468 86.1485 166.468 86.8536C166.468 87.5588 166.935 88.1305 167.511 88.1305Z" fill="#3F3D56"/>
<path d="M199.838 85.8925H197.28C197.229 85.8938 197.181 85.9189 197.146 85.9622C197.11 86.0056 197.09 86.0638 197.09 86.1244C197.09 86.185 197.11 86.2432 197.146 86.2866C197.181 86.3299 197.229 86.355 197.28 86.3563H199.838C199.889 86.3555 199.938 86.3307 199.974 86.2873C200.009 86.2439 200.029 86.1854 200.029 86.1244C200.029 86.0634 200.009 86.0049 199.974 85.9615C199.938 85.9181 199.889 85.8933 199.838 85.8925Z" fill="#3F3D56"/>
<path d="M199.838 86.7637H197.28C197.229 86.7651 197.181 86.7901 197.146 86.8334C197.11 86.8768 197.09 86.935 197.09 86.9956C197.09 87.0562 197.11 87.1144 197.146 87.1578C197.181 87.2011 197.229 87.2262 197.28 87.2276H199.838C199.889 87.2267 199.938 87.2019 199.974 87.1585C200.009 87.1151 200.029 87.0566 200.029 86.9956C200.029 86.9347 200.009 86.8762 199.974 86.8328C199.938 86.7893 199.889 86.7645 199.838 86.7637Z" fill="#3F3D56"/>
<path d="M199.838 87.6348H197.28C197.229 87.6361 197.181 87.6612 197.146 87.7045C197.11 87.7479 197.09 87.8061 197.09 87.8667C197.09 87.9273 197.11 87.9855 197.146 88.0289C197.181 88.0722 197.229 88.0973 197.28 88.0987H199.838C199.889 88.0978 199.938 88.073 199.974 88.0296C200.009 87.9862 200.029 87.9277 200.029 87.8667C200.029 87.8058 200.009 87.7473 199.974 87.7038C199.938 87.6604 199.889 87.6356 199.838 87.6348Z" fill="#3F3D56"/>
<path d="M296.976 111.701H263.524C263.002 111.701 262.501 111.95 262.131 112.393C261.762 112.836 261.554 113.436 261.553 114.062V139.005C261.554 139.631 261.762 140.231 262.131 140.674C262.501 141.117 263.002 141.366 263.524 141.366H296.976C297.499 141.366 298 141.117 298.369 140.674C298.739 140.231 298.947 139.631 298.948 139.005V114.062C298.947 113.436 298.739 112.836 298.369 112.393C298 111.95 297.499 111.701 296.976 111.701Z" fill="#F2F2F2"/>
<path d="M296.976 111.701H263.524C263.002 111.701 262.501 111.95 262.131 112.393C261.762 112.836 261.554 113.436 261.553 114.062V139.005C261.554 139.631 261.762 140.231 262.131 140.674C262.501 141.117 263.002 141.366 263.524 141.366H296.976C297.499 141.366 298 141.117 298.369 140.674C298.739 140.231 298.947 139.631 298.948 139.005V114.062C298.947 113.436 298.739 112.836 298.369 112.393C298 111.95 297.499 111.701 296.976 111.701ZM297.623 129.618C297.615 132.158 296.776 134.592 295.287 136.399C293.798 138.207 291.776 139.243 289.656 139.286C286.262 139.339 291.534 139.359 287.44 139.359C278.079 139.359 268.318 139.252 264.676 139.183C264.197 139.171 263.741 138.935 263.405 138.526C263.069 138.117 262.879 137.566 262.878 136.992V114.063C262.878 113.858 262.946 113.661 263.067 113.515C263.188 113.37 263.353 113.288 263.524 113.287H296.975C297.146 113.287 297.311 113.369 297.433 113.514C297.554 113.659 297.623 113.856 297.623 114.061L297.623 129.618Z" fill="#E6E6E6"/>
<path d="M292.858 97.3373H267.371C267.146 97.3377 266.926 97.4214 266.742 97.577C266.557 97.7327 266.418 97.9527 266.342 98.2069L262.405 111.433C262.347 111.631 262.328 111.842 262.352 112.05C262.376 112.257 262.441 112.455 262.541 112.627C262.642 112.798 262.776 112.938 262.931 113.034C263.086 113.131 263.259 113.182 263.434 113.182L297.615 113.255H297.617C297.798 113.255 297.976 113.201 298.135 113.098C298.295 112.995 298.43 112.847 298.53 112.666C298.629 112.485 298.69 112.278 298.706 112.062C298.722 111.846 298.693 111.629 298.622 111.43L298.562 111.46L298.622 111.43L293.863 98.1308C293.779 97.8952 293.639 97.6943 293.46 97.5533C293.281 97.4122 293.072 97.3371 292.858 97.3373Z" fill="#E6E6E6"/>
<path d="M298.71 111.717C298.71 111.894 298.68 112.07 298.622 112.233L293.863 122.47C293.778 122.705 293.638 122.905 293.46 123.046C293.281 123.187 293.072 123.262 292.858 123.263H267.372C267.146 123.262 266.926 123.179 266.742 123.023C266.557 122.868 266.418 122.648 266.341 122.393L262.406 112.229C262.358 112.067 262.336 111.896 262.344 111.724C262.351 111.552 262.386 111.384 262.448 111.229C262.509 111.073 262.596 110.934 262.702 110.819C262.809 110.704 262.933 110.615 263.069 110.557C263.186 110.506 263.309 110.48 263.433 110.48L267.609 110.471L269.313 110.467L291.738 110.42L293.443 110.417L297.616 110.407H297.617C297.907 110.407 298.185 110.545 298.39 110.791C298.595 111.037 298.71 111.37 298.71 111.717Z" fill="#E6E6E6"/>
<path d="M266.032 130.411C266.538 130.411 273.478 130.919 273.478 131.525C273.478 132.13 266.538 132.603 266.032 132.603C265.79 132.603 265.557 132.488 265.385 132.282C265.214 132.077 265.117 131.798 265.117 131.507C265.117 131.217 265.214 130.938 265.385 130.732C265.557 130.527 265.79 130.411 266.032 130.411Z" fill="#E6E6E6"/>
<path d="M291.271 89.2911H269.781C269.205 89.2919 268.653 89.5663 268.246 90.054C267.839 90.5418 267.61 91.2031 267.609 91.8928V123.263H292.858C293.066 123.263 293.269 123.193 293.443 123.059V91.8928C293.443 91.203 293.214 90.5418 292.806 90.054C292.399 89.5663 291.847 89.2919 291.271 89.2911Z" fill="#F2F2F2"/>
<path d="M283.069 91.4005H271.292C270.767 91.4011 270.265 91.6508 269.894 92.0948C269.523 92.5388 269.314 93.1409 269.313 93.769V123.263H291.738V101.784C291.736 99.0309 290.821 96.3917 289.196 94.4452C287.571 92.4986 285.367 91.4037 283.069 91.4005Z" fill="white"/>
<path d="M287.918 120.643H273.134C273.07 120.643 273.007 120.658 272.949 120.687C272.89 120.716 272.837 120.758 272.792 120.812C272.747 120.865 272.712 120.929 272.687 120.999C272.663 121.069 272.65 121.144 272.65 121.22C272.65 121.296 272.663 121.372 272.687 121.442C272.712 121.512 272.747 121.575 272.792 121.629C272.837 121.683 272.89 121.725 272.949 121.754C273.007 121.783 273.07 121.798 273.134 121.798H287.918C287.981 121.798 288.044 121.783 288.103 121.754C288.161 121.725 288.215 121.683 288.259 121.629C288.304 121.575 288.34 121.512 288.364 121.442C288.389 121.372 288.401 121.296 288.401 121.22C288.401 121.144 288.389 121.069 288.364 120.999C288.34 120.929 288.304 120.865 288.259 120.812C288.215 120.758 288.161 120.716 288.103 120.687C288.044 120.658 287.981 120.643 287.918 120.643Z" fill="#E4E4E4"/>
<path d="M287.918 118.361H273.134C273.006 118.361 272.884 118.422 272.793 118.531C272.703 118.639 272.653 118.786 272.653 118.939C272.653 119.091 272.703 119.238 272.793 119.346C272.884 119.455 273.006 119.516 273.134 119.516H287.918C287.981 119.516 288.044 119.502 288.103 119.473C288.161 119.444 288.215 119.401 288.26 119.348C288.305 119.294 288.34 119.23 288.365 119.16C288.389 119.09 288.401 119.015 288.401 118.939C288.401 118.863 288.389 118.787 288.365 118.717C288.34 118.647 288.305 118.583 288.26 118.529C288.215 118.476 288.161 118.433 288.103 118.404C288.044 118.375 287.981 118.361 287.918 118.361Z" fill="#E4E4E4"/>
<path d="M279.542 116.079H273.134C273.07 116.079 273.007 116.094 272.949 116.123C272.89 116.152 272.837 116.194 272.792 116.248C272.747 116.302 272.712 116.365 272.687 116.435C272.663 116.505 272.65 116.581 272.65 116.657C272.65 116.733 272.663 116.808 272.687 116.878C272.712 116.948 272.747 117.012 272.792 117.065C272.837 117.119 272.89 117.161 272.949 117.19C273.007 117.219 273.07 117.234 273.134 117.234H279.542C279.606 117.234 279.669 117.219 279.727 117.19C279.786 117.161 279.839 117.119 279.884 117.065C279.929 117.012 279.964 116.948 279.989 116.878C280.013 116.808 280.026 116.733 280.026 116.657C280.026 116.581 280.013 116.505 279.989 116.435C279.964 116.365 279.929 116.302 279.884 116.248C279.839 116.194 279.786 116.152 279.727 116.123C279.669 116.094 279.606 116.079 279.542 116.079Z" fill="#E4E4E4"/>
<path d="M287.918 111.3H273.134C273.006 111.3 272.884 111.362 272.793 111.47C272.703 111.578 272.653 111.725 272.653 111.878C272.653 112.031 272.703 112.177 272.793 112.286C272.884 112.394 273.006 112.455 273.134 112.455H287.918C287.981 112.456 288.044 112.441 288.103 112.412C288.161 112.383 288.215 112.34 288.26 112.287C288.305 112.233 288.34 112.169 288.365 112.099C288.389 112.029 288.401 111.954 288.401 111.878C288.401 111.802 288.389 111.726 288.365 111.656C288.34 111.586 288.305 111.522 288.26 111.469C288.215 111.415 288.161 111.372 288.103 111.344C288.044 111.315 287.981 111.3 287.918 111.3Z" fill="#E4E4E4"/>
<path d="M287.918 109.019H273.134C273.07 109.018 273.007 109.033 272.949 109.062C272.89 109.091 272.837 109.134 272.792 109.187C272.747 109.241 272.712 109.304 272.687 109.375C272.663 109.445 272.65 109.52 272.65 109.596C272.65 109.672 272.663 109.747 272.687 109.817C272.712 109.887 272.747 109.951 272.792 110.004C272.837 110.058 272.89 110.101 272.949 110.129C273.007 110.158 273.07 110.173 273.134 110.173H287.918C287.981 110.173 288.044 110.158 288.103 110.129C288.161 110.101 288.215 110.058 288.259 110.004C288.304 109.951 288.34 109.887 288.364 109.817C288.389 109.747 288.401 109.672 288.401 109.596C288.401 109.52 288.389 109.445 288.364 109.375C288.34 109.304 288.304 109.241 288.259 109.187C288.215 109.134 288.161 109.091 288.103 109.062C288.044 109.033 287.981 109.018 287.918 109.019Z" fill="#E4E4E4"/>
<path d="M279.542 106.736H273.134C273.006 106.737 272.884 106.798 272.793 106.906C272.703 107.014 272.653 107.161 272.653 107.314C272.653 107.467 272.703 107.614 272.793 107.722C272.884 107.83 273.006 107.891 273.134 107.892H279.542C279.606 107.892 279.669 107.877 279.727 107.848C279.786 107.819 279.839 107.777 279.884 107.723C279.929 107.669 279.965 107.606 279.989 107.535C280.013 107.465 280.026 107.39 280.026 107.314C280.026 107.238 280.013 107.163 279.989 107.092C279.965 107.022 279.929 106.958 279.884 106.905C279.839 106.851 279.786 106.809 279.727 106.78C279.669 106.751 279.606 106.736 279.542 106.736Z" fill="#E4E4E4"/>
<path d="M287.918 101.957H273.134C273.006 101.957 272.883 102.018 272.793 102.126C272.702 102.234 272.651 102.381 272.651 102.534C272.651 102.688 272.702 102.835 272.793 102.943C272.883 103.051 273.006 103.112 273.134 103.112H287.918C288.046 103.112 288.168 103.051 288.259 102.943C288.349 102.835 288.4 102.688 288.4 102.534C288.4 102.381 288.349 102.234 288.259 102.126C288.168 102.018 288.046 101.957 287.918 101.957Z" fill="#E4E4E4"/>
<path d="M287.918 99.6755H273.134C273.006 99.6755 272.883 99.7364 272.793 99.8447C272.702 99.9531 272.651 100.1 272.651 100.253C272.651 100.406 272.702 100.553 272.793 100.662C272.883 100.77 273.006 100.831 273.134 100.831H287.918C288.046 100.831 288.168 100.77 288.259 100.662C288.349 100.553 288.4 100.406 288.4 100.253C288.4 100.1 288.349 99.9531 288.259 99.8447C288.168 99.7364 288.046 99.6755 287.918 99.6755Z" fill="#E4E4E4"/>
<path d="M279.542 97.3929H273.134C273.006 97.3934 272.884 97.4544 272.793 97.5627C272.703 97.671 272.653 97.8177 272.653 97.9706C272.653 98.1236 272.703 98.2703 272.793 98.3786C272.884 98.4869 273.006 98.5479 273.134 98.5483H279.542C279.606 98.5486 279.669 98.5338 279.727 98.5048C279.786 98.4759 279.839 98.4334 279.884 98.3797C279.929 98.3261 279.965 98.2623 279.989 98.1921C280.013 98.1219 280.026 98.0466 280.026 97.9706C280.026 97.8946 280.013 97.8194 279.989 97.7492C279.965 97.679 279.929 97.6152 279.884 97.5616C279.839 97.5079 279.786 97.4654 279.727 97.4364C279.669 97.4075 279.606 97.3927 279.542 97.3929Z" fill="#E4E4E4"/>
<path d="M195.138 139.224C194.88 139.777 194.727 140.391 194.689 141.023C194.651 141.655 194.729 142.289 194.918 142.881C195.106 143.473 195.401 144.008 195.781 144.449C196.161 144.889 196.617 145.225 197.117 145.431L197.139 160.832L202.711 156.415L201.836 142.467C202.071 141.438 201.981 140.342 201.586 139.386C201.19 138.431 200.516 137.682 199.69 137.282C198.864 136.882 197.945 136.859 197.106 137.217C196.267 137.575 195.567 138.289 195.138 139.224Z" fill="#A0616A"/>
<path d="M156.529 353.573L160.587 355.645L169.189 337.882L163.199 334.825L156.529 353.573Z" fill="#A0616A"/>
<path d="M190.066 358.173L194.477 358.172L196.576 337.793L190.065 337.793L190.066 358.173Z" fill="#A0616A"/>
<path d="M189.911 363.685L203.477 363.684V363.478C203.477 361.801 202.92 360.193 201.93 359.007C200.94 357.821 199.597 357.155 198.196 357.155H198.196L195.718 354.903L191.095 357.155L189.911 357.155L189.911 363.685Z" fill="#2F2E41"/>
<path d="M154.061 357.102L166.541 363.471L166.608 363.282C167.157 361.739 167.172 359.998 166.649 358.442C166.126 356.886 165.109 355.643 163.821 354.985L163.821 354.985L162.278 351.75L157.288 351.651L156.198 351.095L154.061 357.102Z" fill="#2F2E41"/>
<path d="M194.394 237.56L201.098 286.455L199.273 293.741L201.668 298.901L198.152 344.22L199.579 347.983L195.591 350.928H187.477L187.046 309.901L185.042 303.877V300.558L180.961 275.54L180.526 306.609L179.223 309.618L167.553 346.206H158.454L159.158 339.713C157.528 338.725 161.606 335.836 161.997 333.698L160.658 330.088L161.997 323.268L165.083 304.302L161.93 281.814L163.06 267.339L162.472 262.388L162.516 260.787C162.516 260.787 164.072 260.068 162.586 258.274C160.53 244.313 163.06 241.284 163.06 241.284L173.184 234.187L194.394 237.56Z" fill="#2F2E41"/>
<path d="M178.066 173.169C183.144 173.169 187.261 168.238 187.261 162.156C187.261 156.074 183.144 151.144 178.066 151.144C172.988 151.144 168.871 156.074 168.871 162.156C168.871 168.238 172.988 173.169 178.066 173.169Z" fill="#A0616A"/>
<path d="M166.538 141.031C166.581 141.662 166.508 142.297 166.324 142.891C166.141 143.485 165.85 144.024 165.474 144.469C165.098 144.914 164.644 145.255 164.146 145.468C163.648 145.681 163.117 145.76 162.59 145.7L157.247 159.708L153.702 152.925L159.319 140.663C159.461 139.61 159.921 138.656 160.612 137.982C161.302 137.308 162.175 136.961 163.065 137.006C163.955 137.052 164.8 137.486 165.44 138.228C166.08 138.97 166.47 139.967 166.538 141.031Z" fill="#A0616A"/>
<path d="M158.501 187.182L166.165 182.797C166.244 182.751 166.317 182.692 166.381 182.621L171.732 176.677C171.891 176.501 172.099 176.402 172.315 176.4L181.931 176.314C182.065 176.313 182.197 176.349 182.318 176.419C182.438 176.489 182.543 176.592 182.625 176.719L185.551 181.276C185.656 181.438 185.798 181.56 185.96 181.626L193.935 184.87C194.113 184.943 194.267 185.083 194.373 185.27C194.479 185.457 194.532 185.679 194.522 185.905L193.09 221.401C193.084 221.559 193.107 221.716 193.159 221.861L193.844 223.775C193.914 223.97 193.933 224.186 193.897 224.394C193.861 224.602 193.773 224.792 193.644 224.938C193.441 225.168 193.213 225.434 193.065 225.63C192.769 226.022 193.401 229.097 193.496 229.545C193.504 229.583 193.51 229.621 193.514 229.659L193.868 232.838C193.889 233.025 193.866 233.216 193.804 233.389C193.741 233.562 193.64 233.712 193.512 233.821C193.414 233.905 193.332 234.012 193.271 234.135C193.209 234.259 193.17 234.396 193.155 234.539C193.14 234.681 193.15 234.826 193.185 234.964C193.219 235.101 193.277 235.229 193.354 235.339L194.13 236.436C194.237 236.588 194.306 236.773 194.328 236.97L194.514 238.64C194.532 238.805 194.517 238.973 194.47 239.13C194.424 239.286 194.346 239.427 194.244 239.54C194.142 239.654 194.018 239.736 193.884 239.78C193.75 239.824 193.609 239.829 193.473 239.794C188.655 238.549 170.724 234.588 164.147 242.615C164.023 242.769 163.861 242.874 163.686 242.915C163.51 242.955 163.328 242.93 163.164 242.841C163.001 242.753 162.865 242.606 162.774 242.422C162.683 242.237 162.642 242.023 162.656 241.809C162.704 240.942 162.795 240.08 162.93 239.227L163.572 234.358C163.587 234.245 163.586 234.13 163.57 234.017L162.982 229.987C162.952 229.777 162.867 229.582 162.741 229.431L162.544 229.195C162.463 229.099 162.399 228.984 162.356 228.858C162.312 228.732 162.29 228.597 162.29 228.46C162.29 228.324 162.312 228.189 162.356 228.062C162.399 227.936 162.463 227.822 162.544 227.725L163.312 226.806C163.406 226.693 163.477 226.555 163.52 226.403C163.563 226.252 163.576 226.09 163.558 225.932L162.538 216.892C162.536 216.874 162.534 216.856 162.531 216.838L158.022 188.313C157.986 188.087 158.014 187.854 158.101 187.65C158.187 187.445 158.328 187.28 158.501 187.182Z" fill="#3F3D56"/>
<path d="M175.714 172.63C175.674 172.526 175.635 172.422 175.596 172.318C175.611 172.319 175.626 172.321 175.641 172.322L175.714 172.63Z" fill="#2F2E41"/>
<path d="M193.179 200.743L202.744 184.922L207.582 176.218L203.098 150.248L196.64 156.19L197.148 170.671L188.503 185.284L193.179 200.743Z" fill="#3F3D56"/>
<path d="M186.071 152.247C185.934 151.332 185.626 150.466 185.171 149.713C184.942 149.387 184.658 149.122 184.338 148.936C184.017 148.75 183.668 148.648 183.312 148.635C182.956 148.622 182.602 148.699 182.273 148.861C181.944 149.023 181.647 149.267 181.401 149.576C181.545 149.075 181.587 148.541 181.523 148.017C180.852 148.402 180.134 148.658 179.395 148.775L181.027 146.734L172.905 147.628C172.066 147.72 171.16 147.851 170.544 148.614C169.929 149.376 169.894 151.004 170.673 151.43C169.139 150.738 167.379 151.742 166.367 153.424C165.356 155.105 164.983 157.323 164.915 159.475C164.826 162.266 165.261 165.236 166.683 167.291C167.613 168.634 168.881 169.472 169.91 170.68C169.92 170.693 169.931 170.705 169.941 170.717C171.068 172.102 172.481 173.104 174.036 173.623C175.592 174.142 177.234 174.159 178.797 173.672C178.972 173.614 179.146 173.55 179.321 173.49C180.197 173.964 181.287 173.316 181.839 172.262C182.429 171.137 182.545 169.699 182.57 168.329C182.602 166.537 182.51 164.745 182.294 162.972C182.051 160.974 181.831 158.417 183.152 157.414C184.18 156.633 185.457 157.403 186.493 158.168C186.592 156.18 186.45 154.186 186.071 152.247Z" fill="#2F2E41"/>
<path d="M166.464 203.229L160.337 202.699L149.704 187.107L141.811 173.556L143.629 168.048L154.515 145.895L160.221 151.37L154.773 172.799L165.572 185.732L166.464 203.229Z" fill="#3F3D56"/>
<path d="M219.347 107.037C224.865 107.037 229.337 101.681 229.337 95.0728C229.337 88.4651 224.865 83.1084 219.347 83.1084C213.83 83.1084 209.358 88.4651 209.358 95.0728C209.358 101.681 213.83 107.037 219.347 107.037Z" fill="#1A1B1D"/>
<path d="M217.985 101.3C217.812 101.3 217.642 101.252 217.488 101.159C217.333 101.067 217.199 100.933 217.096 100.767L214.37 96.4151C214.283 96.2753 214.219 96.1162 214.182 95.9468C214.146 95.7774 214.138 95.6011 214.159 95.4279C214.179 95.2548 214.228 95.0882 214.302 94.9376C214.377 94.7871 214.475 94.6556 214.592 94.5507C214.709 94.4457 214.842 94.3694 214.983 94.3261C215.125 94.2827 215.272 94.2732 215.416 94.298C215.561 94.3229 215.7 94.3816 215.826 94.4708C215.951 94.5601 216.061 94.6781 216.148 94.8182L217.931 97.6653L222.511 89.4383C222.592 89.2926 222.696 89.1673 222.817 89.0698C222.938 88.9722 223.074 88.9043 223.218 88.8698C223.361 88.8354 223.508 88.8351 223.652 88.8689C223.795 88.9028 223.931 88.9702 224.053 89.0673C224.175 89.1643 224.279 89.2891 224.36 89.4346C224.441 89.58 224.498 89.7432 224.526 89.9148C224.555 90.0864 224.555 90.263 224.526 90.4346C224.498 90.6062 224.441 90.7694 224.36 90.9148L218.909 100.707C218.811 100.884 218.678 101.03 218.523 101.133C218.367 101.236 218.193 101.293 218.016 101.299C218.005 101.3 217.995 101.3 217.985 101.3Z" fill="white"/>
</svg>
