<svg width="393" height="404" viewBox="0 0 393 404" fill="none" xmlns="http://www.w3.org/2000/svg">
<path d="M7.51651 292.915C37.609 421.396 169.661 403.101 305.158 403.101C440.655 403.101 387.469 258.019 354.401 174.48C316.101 77.723 244.233 0 108.736 0C-26.761 0 -0.690521 228.939 7.51651 292.915Z" fill="#FFA6EB"/>
<path d="M204.603 359.661L204.877 352.28C207.734 350.45 210.921 349.484 214.161 349.465C209.702 353.831 210.26 362.248 207.236 368.12C206.282 369.943 204.997 371.485 203.477 372.632C201.957 373.779 200.241 374.502 198.456 374.747L194.724 377.483C194.212 374.064 194.325 370.553 195.055 367.192C195.785 363.83 197.115 360.698 198.953 358.011C199.997 356.516 201.194 355.185 202.515 354.048C203.409 356.87 204.603 359.661 204.603 359.661Z" fill="#F2F2F2"/>
<path d="M254.08 378.279C254.08 378.374 254.065 378.468 254.035 378.555C254.005 378.643 253.96 378.722 253.904 378.789C253.848 378.856 253.782 378.91 253.709 378.946C253.636 378.982 253.557 379 253.478 379H91.4317C91.272 379 91.1189 378.924 91.006 378.789C90.8931 378.654 90.8297 378.47 90.8297 378.279C90.8297 378.088 90.8931 377.904 91.006 377.769C91.1189 377.634 91.272 377.558 91.4317 377.558H253.478C253.557 377.558 253.636 377.576 253.709 377.612C253.782 377.648 253.848 377.701 253.904 377.768C253.96 377.835 254.005 377.915 254.035 378.003C254.065 378.09 254.08 378.184 254.08 378.279Z" fill="#CCCCCC"/>
<path d="M305.468 170.713H240.847C238.85 170.71 236.936 169.759 235.524 168.068C234.112 166.376 233.317 164.083 233.315 161.692V119.539C233.317 117.147 234.112 114.854 235.524 113.163C236.936 111.472 238.85 110.521 240.847 110.518H305.468C307.465 110.521 309.379 111.472 310.791 113.163C312.203 114.854 312.998 117.147 313 119.539V161.692C312.998 164.083 312.204 166.376 310.792 168.068C309.379 169.759 307.465 170.71 305.468 170.713Z" fill="#F2F2F2"/>
<path d="M206.81 170.713H142.19C140.193 170.71 138.278 169.759 136.866 168.068C135.454 166.376 134.66 164.083 134.658 161.692V119.539C134.66 117.147 135.454 114.854 136.866 113.163C138.278 111.472 140.193 110.521 142.19 110.518H206.81C208.807 110.521 210.722 111.472 212.134 113.163C213.546 114.854 214.34 117.147 214.342 119.539V161.692C214.34 164.083 213.546 166.376 212.134 168.068C210.722 169.759 208.807 170.71 206.81 170.713Z" fill="#F2F2F2"/>
<path d="M108.153 170.713H43.532C41.535 170.71 39.6205 169.759 38.2085 168.068C36.7965 166.376 36.0022 164.083 36 161.692V119.539C36.0022 117.147 36.7965 114.854 38.2086 113.163C39.6206 111.472 41.5351 110.521 43.532 110.518H108.153C110.15 110.521 112.064 111.472 113.476 113.163C114.888 114.854 115.683 117.147 115.685 119.539V161.692C115.683 164.083 114.888 166.376 113.476 168.068C112.064 169.759 110.15 170.71 108.153 170.713Z" fill="#F2F2F2"/>
<path d="M206.811 171.319H142.19C140.059 171.316 138.015 170.3 136.509 168.496C135.002 166.691 134.154 164.244 134.152 161.692V119.539C134.154 116.986 135.002 114.54 136.509 112.735C138.016 110.93 140.059 109.915 142.19 109.912H206.811C208.942 109.915 210.985 110.93 212.492 112.735C213.998 114.54 214.846 116.986 214.849 119.539V161.692C214.846 164.244 213.999 166.691 212.492 168.496C210.985 170.3 208.942 171.316 206.811 171.319ZM142.19 111.124C140.327 111.127 138.541 112.014 137.224 113.591C135.907 115.169 135.166 117.308 135.164 119.539V161.692C135.166 163.923 135.907 166.061 137.224 167.639C138.541 169.217 140.327 170.104 142.19 170.107H206.811C208.673 170.104 210.459 169.217 211.776 167.639C213.094 166.061 213.835 163.923 213.837 161.692V119.539C213.834 117.308 213.094 115.169 211.776 113.591C210.459 112.014 208.673 111.127 206.811 111.124H142.19Z" fill="#8395D2"/>
<path d="M88.0522 111.895H87.7909V103.312C87.7909 101.994 87.3539 100.731 86.5761 99.799C85.7982 98.8674 84.7432 98.344 83.6432 98.344H68.4598C67.9151 98.344 67.3758 98.4725 66.8725 98.7221C66.3693 98.9717 65.9121 99.3376 65.5269 99.7989C65.1417 100.26 64.8362 100.808 64.6278 101.41C64.4193 102.013 64.312 102.659 64.312 103.312V150.399C64.312 151.716 64.749 152.98 65.5268 153.911C66.3047 154.843 67.3597 155.366 68.4597 155.366H83.643C84.1877 155.366 84.727 155.238 85.2303 154.988C85.7335 154.739 86.1907 154.373 86.5759 153.911C86.961 153.45 87.2665 152.902 87.475 152.3C87.6834 151.697 87.7907 151.051 87.7907 150.399V118.004H88.052L88.0522 111.895Z" fill="#E6E6E6"/>
<path d="M86.945 102.979V150.731C86.9449 151.73 86.6136 152.688 86.0239 153.395C85.4342 154.101 84.6344 154.498 83.8004 154.498H68.3055C67.4711 154.499 66.6708 154.102 66.0807 153.395C65.4906 152.689 65.159 151.731 65.1587 150.731V102.979C65.159 101.98 65.4906 101.021 66.0807 100.315C66.6708 99.6086 67.471 99.2118 68.3053 99.2119H70.185C70.0927 99.4837 70.0575 99.7786 70.0827 100.07C70.1078 100.362 70.1924 100.642 70.329 100.886C70.4657 101.129 70.6502 101.329 70.8664 101.467C71.0825 101.605 71.3237 101.678 71.5687 101.678H80.4026C80.6476 101.678 80.8888 101.605 81.105 101.467C81.3211 101.329 81.5056 101.129 81.6423 100.886C81.7789 100.642 81.8635 100.362 81.8887 100.07C81.9138 99.7786 81.8787 99.4837 81.7864 99.2119H83.7998C84.6338 99.2121 85.4336 99.6089 86.0234 100.315C86.6132 101.021 86.9447 101.979 86.945 102.978V102.979Z" fill="white"/>
<path d="M83.348 144.254H69.0381C68.5234 144.253 68.03 144.008 67.666 143.572C67.3021 143.136 67.0974 142.545 67.0968 141.929V117.819C67.0995 115.004 68.0342 112.306 69.696 110.315C71.3578 108.325 73.6109 107.205 75.961 107.202H83.348C83.8627 107.203 84.3561 107.448 84.72 107.884C85.0839 108.32 85.2886 108.911 85.2892 109.527V141.929C85.2886 142.545 85.0839 143.136 84.72 143.572C84.3561 144.008 83.8627 144.253 83.348 144.254Z" fill="#F2F2F2"/>
<path d="M68.1809 150.058C68.7498 150.058 69.2111 149.505 69.2111 148.824C69.2111 148.142 68.7498 147.59 68.1809 147.59C67.6119 147.59 67.1506 148.142 67.1506 148.824C67.1506 149.505 67.6119 150.058 68.1809 150.058Z" fill="#E6E6E6"/>
<path d="M179.977 130.595H168.599C168.538 130.595 168.477 130.606 168.418 130.629C168.295 130.675 168.187 130.767 168.11 130.891C168.034 131.016 167.992 131.167 167.993 131.322V152.85H180.585V131.322C180.585 131.226 180.569 131.132 180.539 131.043C180.508 130.955 180.463 130.875 180.407 130.808C180.35 130.74 180.283 130.687 180.209 130.65C180.136 130.614 180.057 130.595 179.977 130.595ZM175.671 141.217C175.671 141.566 175.575 141.905 175.397 142.182C175.228 142.451 174.992 142.649 174.724 142.749C174.455 142.849 174.167 142.845 173.9 142.738C173.634 142.632 173.401 142.427 173.237 142.154C173.072 141.881 172.983 141.553 172.982 141.217V138.719C172.986 138.294 173.129 137.889 173.38 137.59C173.632 137.291 173.972 137.124 174.326 137.124C174.681 137.124 175.021 137.291 175.273 137.59C175.524 137.889 175.667 138.294 175.671 138.719V141.217Z" fill="#2F2E41"/>
<path d="M167.954 152.161V154.237C167.954 154.345 167.99 154.448 168.053 154.524C168.116 154.601 168.202 154.644 168.292 154.644H180.285C180.375 154.643 180.461 154.6 180.524 154.524C180.588 154.448 180.623 154.345 180.624 154.237V152.161H167.954Z" fill="#3F3D56"/>
<path d="M198.817 97H150.182C149.765 97.0006 149.364 97.1996 149.068 97.5533C148.773 97.907 148.606 98.3866 148.605 98.8871V138.194C148.605 138.695 148.772 139.175 149.067 139.529C149.363 139.884 149.764 140.083 150.182 140.083H198.817C199.236 140.083 199.637 139.884 199.932 139.529C200.228 139.175 200.395 138.695 200.395 138.194V98.8871C200.394 98.3866 200.227 97.907 199.932 97.5533C199.636 97.1996 199.235 97.0006 198.817 97Z" fill="#3F3D56"/>
<path d="M198.411 98.3644H150.587C150.364 98.365 150.149 98.4718 149.991 98.6615C149.833 98.8512 149.744 99.1082 149.744 99.3761V137.709C149.745 137.977 149.834 138.233 149.992 138.422C150.15 138.612 150.364 138.718 150.587 138.719H198.411C198.634 138.718 198.849 138.612 199.007 138.422C199.165 138.233 199.254 137.977 199.254 137.709V99.3761C199.254 99.1082 199.165 98.8512 199.007 98.6615C198.849 98.4718 198.635 98.365 198.411 98.3644Z" fill="#8395D2"/>
<path d="M189.609 154.611L189.168 152.098C189.149 151.996 189.11 151.9 189.053 151.821C188.996 151.741 188.923 151.68 188.842 151.643C188.782 151.615 188.719 151.601 188.656 151.601H161.085C161.022 151.601 160.959 151.615 160.9 151.643C160.818 151.68 160.745 151.741 160.688 151.821C160.631 151.9 160.592 151.996 160.574 152.098L160.132 154.611C160.116 154.702 160.117 154.796 160.136 154.887C160.154 154.977 160.189 155.062 160.238 155.134C160.287 155.207 160.349 155.265 160.419 155.305C160.489 155.345 160.566 155.366 160.644 155.366H189.096C189.174 155.367 189.251 155.346 189.321 155.306C189.392 155.265 189.454 155.206 189.502 155.133C189.551 155.061 189.587 154.977 189.605 154.886C189.624 154.796 189.625 154.702 189.609 154.611Z" fill="#2F2E41"/>
<path d="M162.027 152.053H161.424C161.349 152.053 161.288 152.126 161.288 152.217V152.519C161.288 152.61 161.349 152.683 161.424 152.683H162.027C162.103 152.683 162.164 152.61 162.164 152.519V152.217C162.164 152.126 162.103 152.053 162.027 152.053Z" fill="#3F3D56"/>
<path d="M163.78 152.053H163.177C163.101 152.053 163.04 152.126 163.04 152.217V152.519C163.04 152.61 163.101 152.683 163.177 152.683H163.78C163.855 152.683 163.916 152.61 163.916 152.519V152.217C163.916 152.126 163.855 152.053 163.78 152.053Z" fill="#3F3D56"/>
<path d="M165.533 152.053H164.929C164.854 152.053 164.793 152.126 164.793 152.217V152.519C164.793 152.61 164.854 152.683 164.929 152.683H165.533C165.608 152.683 165.669 152.61 165.669 152.519V152.217C165.669 152.126 165.608 152.053 165.533 152.053Z" fill="#3F3D56"/>
<path d="M167.285 152.053H166.682C166.607 152.053 166.545 152.126 166.545 152.217V152.519C166.545 152.61 166.607 152.683 166.682 152.683H167.285C167.361 152.683 167.422 152.61 167.422 152.519V152.217C167.422 152.126 167.361 152.053 167.285 152.053Z" fill="#3F3D56"/>
<path d="M169.038 152.053H168.435C168.359 152.053 168.298 152.126 168.298 152.217V152.519C168.298 152.61 168.359 152.683 168.435 152.683H169.038C169.113 152.683 169.174 152.61 169.174 152.519V152.217C169.174 152.126 169.113 152.053 169.038 152.053Z" fill="#3F3D56"/>
<path d="M170.79 152.053H170.187C170.112 152.053 170.051 152.126 170.051 152.217V152.519C170.051 152.61 170.112 152.683 170.187 152.683H170.79C170.866 152.683 170.927 152.61 170.927 152.519V152.217C170.927 152.126 170.866 152.053 170.79 152.053Z" fill="#3F3D56"/>
<path d="M172.543 152.053H171.94C171.864 152.053 171.803 152.126 171.803 152.217V152.519C171.803 152.61 171.864 152.683 171.94 152.683H172.543C172.618 152.683 172.68 152.61 172.68 152.519V152.217C172.68 152.126 172.618 152.053 172.543 152.053Z" fill="#3F3D56"/>
<path d="M174.296 152.053H173.692C173.617 152.053 173.556 152.126 173.556 152.217V152.519C173.556 152.61 173.617 152.683 173.692 152.683H174.296C174.371 152.683 174.432 152.61 174.432 152.519V152.217C174.432 152.126 174.371 152.053 174.296 152.053Z" fill="#3F3D56"/>
<path d="M176.048 152.053H175.445C175.37 152.053 175.309 152.126 175.309 152.217V152.519C175.309 152.61 175.37 152.683 175.445 152.683H176.048C176.124 152.683 176.185 152.61 176.185 152.519V152.217C176.185 152.126 176.124 152.053 176.048 152.053Z" fill="#3F3D56"/>
<path d="M177.801 152.053H177.198C177.122 152.053 177.061 152.126 177.061 152.217V152.519C177.061 152.61 177.122 152.683 177.198 152.683H177.801C177.876 152.683 177.937 152.61 177.937 152.519V152.217C177.937 152.126 177.876 152.053 177.801 152.053Z" fill="#3F3D56"/>
<path d="M179.554 152.053H178.95C178.875 152.053 178.814 152.126 178.814 152.217V152.519C178.814 152.61 178.875 152.683 178.95 152.683H179.554C179.629 152.683 179.69 152.61 179.69 152.519V152.217C179.69 152.126 179.629 152.053 179.554 152.053Z" fill="#3F3D56"/>
<path d="M181.306 152.053H180.703C180.627 152.053 180.566 152.126 180.566 152.217V152.519C180.566 152.61 180.627 152.683 180.703 152.683H181.306C181.382 152.683 181.443 152.61 181.443 152.519V152.217C181.443 152.126 181.382 152.053 181.306 152.053Z" fill="#3F3D56"/>
<path d="M183.059 152.053H182.455C182.38 152.053 182.319 152.126 182.319 152.217V152.519C182.319 152.61 182.38 152.683 182.455 152.683H183.059C183.134 152.683 183.195 152.61 183.195 152.519V152.217C183.195 152.126 183.134 152.053 183.059 152.053Z" fill="#3F3D56"/>
<path d="M184.811 152.053H184.208C184.133 152.053 184.072 152.126 184.072 152.217V152.519C184.072 152.61 184.133 152.683 184.208 152.683H184.811C184.887 152.683 184.948 152.61 184.948 152.519V152.217C184.948 152.126 184.887 152.053 184.811 152.053Z" fill="#3F3D56"/>
<path d="M186.564 152.053H185.961C185.885 152.053 185.824 152.126 185.824 152.217V152.519C185.824 152.61 185.885 152.683 185.961 152.683H186.564C186.639 152.683 186.7 152.61 186.7 152.519V152.217C186.7 152.126 186.639 152.053 186.564 152.053Z" fill="#3F3D56"/>
<path d="M188.317 152.053H187.713C187.638 152.053 187.577 152.126 187.577 152.217V152.519C187.577 152.61 187.638 152.683 187.713 152.683H188.317C188.392 152.683 188.453 152.61 188.453 152.519V152.217C188.453 152.126 188.392 152.053 188.317 152.053Z" fill="#3F3D56"/>
<path d="M162.007 153.103H161.403C161.328 153.103 161.267 153.176 161.267 153.266V153.569C161.267 153.659 161.328 153.732 161.403 153.732H162.007C162.082 153.732 162.143 153.659 162.143 153.569V153.266C162.143 153.176 162.082 153.103 162.007 153.103Z" fill="#3F3D56"/>
<path d="M163.759 153.103H163.156C163.081 153.103 163.019 153.176 163.019 153.266V153.569C163.019 153.659 163.081 153.732 163.156 153.732H163.759C163.835 153.732 163.896 153.659 163.896 153.569V153.266C163.896 153.176 163.835 153.103 163.759 153.103Z" fill="#3F3D56"/>
<path d="M165.512 153.103H164.909C164.833 153.103 164.772 153.176 164.772 153.266V153.569C164.772 153.659 164.833 153.732 164.909 153.732H165.512C165.587 153.732 165.648 153.659 165.648 153.569V153.266C165.648 153.176 165.587 153.103 165.512 153.103Z" fill="#3F3D56"/>
<path d="M167.265 153.103H166.661C166.586 153.103 166.525 153.176 166.525 153.266V153.569C166.525 153.659 166.586 153.732 166.661 153.732H167.265C167.34 153.732 167.401 153.659 167.401 153.569V153.266C167.401 153.176 167.34 153.103 167.265 153.103Z" fill="#3F3D56"/>
<path d="M169.017 153.103H168.414C168.338 153.103 168.277 153.176 168.277 153.266V153.569C168.277 153.659 168.338 153.732 168.414 153.732H169.017C169.093 153.732 169.154 153.659 169.154 153.569V153.266C169.154 153.176 169.093 153.103 169.017 153.103Z" fill="#3F3D56"/>
<path d="M170.77 153.103H170.166C170.091 153.103 170.03 153.176 170.03 153.266V153.569C170.03 153.659 170.091 153.732 170.166 153.732H170.77C170.845 153.732 170.906 153.659 170.906 153.569V153.266C170.906 153.176 170.845 153.103 170.77 153.103Z" fill="#3F3D56"/>
<path d="M172.522 153.103H171.919C171.844 153.103 171.783 153.176 171.783 153.266V153.569C171.783 153.659 171.844 153.732 171.919 153.732H172.522C172.598 153.732 172.659 153.659 172.659 153.569V153.266C172.659 153.176 172.598 153.103 172.522 153.103Z" fill="#3F3D56"/>
<path d="M174.275 153.103H173.672C173.596 153.103 173.535 153.176 173.535 153.266V153.569C173.535 153.659 173.596 153.732 173.672 153.732H174.275C174.35 153.732 174.411 153.659 174.411 153.569V153.266C174.411 153.176 174.35 153.103 174.275 153.103Z" fill="#3F3D56"/>
<path d="M176.028 153.103H175.424C175.349 153.103 175.288 153.176 175.288 153.266V153.569C175.288 153.659 175.349 153.732 175.424 153.732H176.028C176.103 153.732 176.164 153.659 176.164 153.569V153.266C176.164 153.176 176.103 153.103 176.028 153.103Z" fill="#3F3D56"/>
<path d="M177.78 153.103H177.177C177.101 153.103 177.04 153.176 177.04 153.266V153.569C177.04 153.659 177.101 153.732 177.177 153.732H177.78C177.856 153.732 177.917 153.659 177.917 153.569V153.266C177.917 153.176 177.856 153.103 177.78 153.103Z" fill="#3F3D56"/>
<path d="M179.533 153.103H178.929C178.854 153.103 178.793 153.176 178.793 153.266V153.569C178.793 153.659 178.854 153.732 178.929 153.732H179.533C179.608 153.732 179.669 153.659 179.669 153.569V153.266C179.669 153.176 179.608 153.103 179.533 153.103Z" fill="#3F3D56"/>
<path d="M181.285 153.103H180.682C180.607 153.103 180.546 153.176 180.546 153.266V153.569C180.546 153.659 180.607 153.732 180.682 153.732H181.285C181.361 153.732 181.422 153.659 181.422 153.569V153.266C181.422 153.176 181.361 153.103 181.285 153.103Z" fill="#3F3D56"/>
<path d="M183.038 153.103H182.435C182.359 153.103 182.298 153.176 182.298 153.266V153.569C182.298 153.659 182.359 153.732 182.435 153.732H183.038C183.113 153.732 183.175 153.659 183.175 153.569V153.266C183.175 153.176 183.113 153.103 183.038 153.103Z" fill="#3F3D56"/>
<path d="M184.791 153.103H184.187C184.112 153.103 184.051 153.176 184.051 153.266V153.569C184.051 153.659 184.112 153.732 184.187 153.732H184.791C184.866 153.732 184.927 153.659 184.927 153.569V153.266C184.927 153.176 184.866 153.103 184.791 153.103Z" fill="#3F3D56"/>
<path d="M186.543 153.103H185.94C185.865 153.103 185.803 153.176 185.803 153.266V153.569C185.803 153.659 185.865 153.732 185.94 153.732H186.543C186.619 153.732 186.68 153.659 186.68 153.569V153.266C186.68 153.176 186.619 153.103 186.543 153.103Z" fill="#3F3D56"/>
<path d="M188.296 153.103H187.693C187.617 153.103 187.556 153.176 187.556 153.266V153.569C187.556 153.659 187.617 153.732 187.693 153.732H188.296C188.371 153.732 188.432 153.659 188.432 153.569V153.266C188.432 153.176 188.371 153.103 188.296 153.103Z" fill="#3F3D56"/>
<path d="M176.553 154.362H169.816C169.74 154.362 169.679 154.435 169.679 154.526V154.828C169.679 154.919 169.74 154.992 169.816 154.992H176.553C176.629 154.992 176.69 154.919 176.69 154.828V154.526C176.69 154.435 176.629 154.362 176.553 154.362Z" fill="#3F3D56"/>
<path d="M196.008 103.645H151.259C151.213 103.644 151.169 103.621 151.136 103.581C151.104 103.541 151.085 103.487 151.085 103.432C151.085 103.376 151.104 103.323 151.136 103.283C151.169 103.243 151.213 103.22 151.259 103.219H196.008C196.054 103.22 196.099 103.243 196.131 103.283C196.164 103.323 196.182 103.376 196.182 103.432C196.182 103.487 196.164 103.541 196.131 103.581C196.099 103.621 196.054 103.644 196.008 103.645Z" fill="#3F3D56"/>
<path d="M154.305 102.131C154.881 102.131 155.348 101.559 155.348 100.854C155.348 100.148 154.881 99.5768 154.305 99.5768C153.73 99.5768 153.263 100.148 153.263 100.854C153.263 101.559 153.73 102.131 154.305 102.131Z" fill="#3F3D56"/>
<path d="M157.908 102.131C158.484 102.131 158.951 101.559 158.951 100.854C158.951 100.148 158.484 99.5768 157.908 99.5768C157.332 99.5768 156.865 100.148 156.865 100.854C156.865 101.559 157.332 102.131 157.908 102.131Z" fill="#3F3D56"/>
<path d="M161.511 102.131C162.087 102.131 162.554 101.559 162.554 100.854C162.554 100.148 162.087 99.5768 161.511 99.5768C160.935 99.5768 160.468 100.148 160.468 100.854C160.468 101.559 160.935 102.131 161.511 102.131Z" fill="#3F3D56"/>
<path d="M193.838 99.8925H191.28C191.229 99.8938 191.181 99.9189 191.145 99.9622C191.11 100.006 191.09 100.064 191.09 100.124C191.09 100.185 191.11 100.243 191.145 100.287C191.181 100.33 191.229 100.355 191.28 100.356H193.838C193.889 100.355 193.938 100.331 193.974 100.287C194.009 100.244 194.029 100.185 194.029 100.124C194.029 100.063 194.009 100.005 193.974 99.9615C193.938 99.9181 193.889 99.8933 193.838 99.8925Z" fill="#3F3D56"/>
<path d="M193.838 100.764H191.28C191.229 100.765 191.181 100.79 191.145 100.833C191.11 100.877 191.09 100.935 191.09 100.996C191.09 101.056 191.11 101.114 191.145 101.158C191.181 101.201 191.229 101.226 191.28 101.228H193.838C193.889 101.227 193.938 101.202 193.974 101.158C194.009 101.115 194.029 101.057 194.029 100.996C194.029 100.935 194.009 100.876 193.974 100.833C193.938 100.789 193.889 100.765 193.838 100.764Z" fill="#3F3D56"/>
<path d="M193.838 101.635H191.28C191.229 101.636 191.181 101.661 191.145 101.705C191.11 101.748 191.09 101.806 191.09 101.867C191.09 101.927 191.11 101.986 191.145 102.029C191.181 102.072 191.229 102.097 191.28 102.099H193.838C193.889 102.098 193.938 102.073 193.974 102.03C194.009 101.986 194.029 101.928 194.029 101.867C194.029 101.806 194.009 101.747 193.974 101.704C193.938 101.66 193.889 101.636 193.838 101.635Z" fill="#3F3D56"/>
<path d="M290.976 125.701H257.524C257.002 125.701 256.501 125.95 256.131 126.393C255.762 126.836 255.554 127.436 255.553 128.062V153.005C255.554 153.631 255.762 154.231 256.131 154.674C256.501 155.117 257.002 155.366 257.524 155.366H290.976C291.499 155.366 292 155.117 292.369 154.674C292.739 154.231 292.947 153.631 292.947 153.005V128.062C292.947 127.436 292.739 126.836 292.369 126.393C292 125.95 291.499 125.701 290.976 125.701Z" fill="#F2F2F2"/>
<path d="M290.976 125.701H257.524C257.002 125.701 256.501 125.95 256.131 126.393C255.762 126.836 255.554 127.436 255.553 128.062V153.005C255.554 153.631 255.762 154.231 256.131 154.674C256.501 155.117 257.002 155.366 257.524 155.366H290.976C291.499 155.366 292 155.117 292.369 154.674C292.739 154.231 292.947 153.631 292.947 153.005V128.062C292.947 127.436 292.739 126.836 292.369 126.393C292 125.95 291.499 125.701 290.976 125.701ZM291.623 143.618C291.615 146.158 290.776 148.592 289.287 150.399C287.797 152.207 285.776 153.243 283.656 153.286C280.262 153.339 285.534 153.359 281.44 153.359C272.079 153.359 262.318 153.252 258.676 153.183C258.197 153.171 257.741 152.935 257.404 152.526C257.068 152.117 256.879 151.566 256.877 150.992V128.063C256.878 127.858 256.946 127.661 257.067 127.515C257.188 127.37 257.353 127.288 257.524 127.287H290.975C291.146 127.287 291.311 127.369 291.432 127.514C291.554 127.659 291.622 127.856 291.623 128.061L291.623 143.618Z" fill="#E6E6E6"/>
<path d="M286.858 111.337H261.372C261.146 111.338 260.926 111.421 260.742 111.577C260.558 111.733 260.418 111.953 260.342 112.207L256.406 125.433C256.347 125.631 256.329 125.842 256.352 126.05C256.376 126.257 256.441 126.455 256.542 126.627C256.642 126.798 256.776 126.938 256.931 127.034C257.086 127.131 257.259 127.182 257.434 127.182L291.616 127.255H291.617C291.798 127.255 291.976 127.201 292.135 127.098C292.295 126.995 292.43 126.847 292.53 126.666C292.629 126.485 292.69 126.278 292.706 126.062C292.722 125.846 292.693 125.629 292.622 125.43L292.562 125.46L292.622 125.43L287.863 112.131C287.779 111.895 287.639 111.694 287.46 111.553C287.282 111.412 287.072 111.337 286.858 111.337Z" fill="#E6E6E6"/>
<path d="M292.71 125.717C292.71 125.894 292.68 126.07 292.622 126.233L287.863 136.47C287.779 136.705 287.638 136.905 287.46 137.046C287.281 137.187 287.072 137.262 286.858 137.263H261.372C261.146 137.262 260.926 137.179 260.742 137.023C260.557 136.868 260.418 136.648 260.341 136.393L256.406 126.229C256.358 126.067 256.337 125.896 256.344 125.724C256.351 125.552 256.386 125.384 256.448 125.229C256.509 125.073 256.596 124.934 256.702 124.819C256.809 124.704 256.933 124.615 257.069 124.557C257.186 124.506 257.309 124.48 257.434 124.48L261.609 124.471L263.313 124.467L285.738 124.42L287.443 124.417L291.616 124.407H291.617C291.907 124.407 292.185 124.545 292.39 124.791C292.595 125.037 292.71 125.37 292.71 125.717Z" fill="#E6E6E6"/>
<path d="M260.032 144.411C260.538 144.411 267.478 144.919 267.478 145.525C267.478 146.13 260.538 146.603 260.032 146.603C259.789 146.603 259.557 146.488 259.385 146.282C259.214 146.077 259.117 145.798 259.117 145.507C259.117 145.217 259.214 144.938 259.385 144.732C259.557 144.527 259.789 144.411 260.032 144.411Z" fill="#E6E6E6"/>
<path d="M285.271 103.291H263.781C263.205 103.292 262.653 103.566 262.246 104.054C261.839 104.542 261.61 105.203 261.609 105.893V137.263H286.858C287.066 137.263 287.269 137.193 287.443 137.059V105.893C287.443 105.203 287.214 104.542 286.806 104.054C286.399 103.566 285.847 103.292 285.271 103.291Z" fill="#F2F2F2"/>
<path d="M277.069 105.401H265.292C264.767 105.401 264.265 105.651 263.894 106.095C263.523 106.539 263.314 107.141 263.313 107.769V137.263H285.738V115.784C285.736 113.031 284.821 110.392 283.196 108.445C281.571 106.499 279.367 105.404 277.069 105.401Z" fill="white"/>
<path d="M281.918 134.643H267.134C267.07 134.643 267.007 134.658 266.949 134.687C266.89 134.716 266.837 134.758 266.792 134.812C266.747 134.865 266.711 134.929 266.687 134.999C266.663 135.069 266.65 135.144 266.65 135.22C266.65 135.296 266.663 135.372 266.687 135.442C266.711 135.512 266.747 135.575 266.792 135.629C266.837 135.683 266.89 135.725 266.949 135.754C267.007 135.783 267.07 135.798 267.134 135.798H281.918C281.981 135.798 282.044 135.783 282.103 135.754C282.161 135.725 282.214 135.683 282.259 135.629C282.304 135.575 282.34 135.512 282.364 135.442C282.388 135.372 282.401 135.296 282.401 135.22C282.401 135.144 282.388 135.069 282.364 134.999C282.34 134.929 282.304 134.865 282.259 134.812C282.214 134.758 282.161 134.716 282.103 134.687C282.044 134.658 281.981 134.643 281.918 134.643Z" fill="#E4E4E4"/>
<path d="M281.918 132.361H267.134C267.006 132.361 266.884 132.422 266.793 132.531C266.703 132.639 266.653 132.786 266.653 132.939C266.653 133.091 266.703 133.238 266.793 133.346C266.884 133.455 267.006 133.516 267.134 133.516H281.918C281.981 133.516 282.044 133.502 282.103 133.473C282.161 133.444 282.215 133.401 282.26 133.348C282.305 133.294 282.34 133.23 282.365 133.16C282.389 133.09 282.402 133.015 282.402 132.939C282.402 132.863 282.389 132.787 282.365 132.717C282.34 132.647 282.305 132.583 282.26 132.529C282.215 132.476 282.161 132.433 282.103 132.404C282.044 132.375 281.981 132.361 281.918 132.361Z" fill="#E4E4E4"/>
<path d="M273.542 130.079H267.134C267.07 130.079 267.007 130.094 266.949 130.123C266.89 130.152 266.837 130.194 266.792 130.248C266.747 130.302 266.711 130.365 266.687 130.435C266.663 130.505 266.65 130.581 266.65 130.657C266.65 130.733 266.663 130.808 266.687 130.878C266.711 130.948 266.747 131.012 266.792 131.065C266.837 131.119 266.89 131.161 266.949 131.19C267.007 131.219 267.07 131.234 267.134 131.234H273.542C273.606 131.234 273.668 131.219 273.727 131.19C273.786 131.161 273.839 131.119 273.884 131.065C273.929 131.012 273.964 130.948 273.989 130.878C274.013 130.808 274.026 130.733 274.026 130.657C274.026 130.581 274.013 130.505 273.989 130.435C273.964 130.365 273.929 130.302 273.884 130.248C273.839 130.194 273.786 130.152 273.727 130.123C273.668 130.094 273.606 130.079 273.542 130.079Z" fill="#E4E4E4"/>
<path d="M281.918 125.3H267.134C267.006 125.3 266.884 125.362 266.793 125.47C266.703 125.578 266.653 125.725 266.653 125.878C266.653 126.031 266.703 126.177 266.793 126.286C266.884 126.394 267.006 126.455 267.134 126.455H281.918C281.981 126.456 282.044 126.441 282.103 126.412C282.161 126.383 282.215 126.34 282.26 126.287C282.305 126.233 282.34 126.169 282.365 126.099C282.389 126.029 282.402 125.954 282.402 125.878C282.402 125.802 282.389 125.726 282.365 125.656C282.34 125.586 282.305 125.522 282.26 125.469C282.215 125.415 282.161 125.372 282.103 125.344C282.044 125.315 281.981 125.3 281.918 125.3Z" fill="#E4E4E4"/>
<path d="M281.918 123.019H267.134C267.07 123.018 267.007 123.033 266.949 123.062C266.89 123.091 266.837 123.134 266.792 123.187C266.747 123.241 266.711 123.304 266.687 123.375C266.663 123.445 266.65 123.52 266.65 123.596C266.65 123.672 266.663 123.747 266.687 123.817C266.711 123.887 266.747 123.951 266.792 124.004C266.837 124.058 266.89 124.101 266.949 124.129C267.007 124.158 267.07 124.173 267.134 124.173H281.918C281.981 124.173 282.044 124.158 282.103 124.129C282.161 124.101 282.214 124.058 282.259 124.004C282.304 123.951 282.34 123.887 282.364 123.817C282.388 123.747 282.401 123.672 282.401 123.596C282.401 123.52 282.388 123.445 282.364 123.375C282.34 123.304 282.304 123.241 282.259 123.187C282.214 123.134 282.161 123.091 282.103 123.062C282.044 123.033 281.981 123.018 281.918 123.019Z" fill="#E4E4E4"/>
<path d="M273.542 120.736H267.134C267.006 120.737 266.884 120.798 266.793 120.906C266.703 121.014 266.653 121.161 266.653 121.314C266.653 121.467 266.703 121.614 266.793 121.722C266.884 121.83 267.006 121.891 267.134 121.892H273.542C273.606 121.892 273.669 121.877 273.727 121.848C273.786 121.819 273.839 121.777 273.884 121.723C273.929 121.669 273.965 121.606 273.989 121.535C274.013 121.465 274.026 121.39 274.026 121.314C274.026 121.238 274.013 121.163 273.989 121.092C273.965 121.022 273.929 120.958 273.884 120.905C273.839 120.851 273.786 120.809 273.727 120.78C273.669 120.751 273.606 120.736 273.542 120.736Z" fill="#E4E4E4"/>
<path d="M281.918 115.957H267.134C267.006 115.957 266.883 116.018 266.793 116.126C266.702 116.234 266.651 116.381 266.651 116.534C266.651 116.688 266.702 116.835 266.793 116.943C266.883 117.051 267.006 117.112 267.134 117.112H281.918C282.046 117.112 282.168 117.051 282.259 116.943C282.349 116.835 282.4 116.688 282.4 116.534C282.4 116.381 282.349 116.234 282.259 116.126C282.168 116.018 282.046 115.957 281.918 115.957Z" fill="#E4E4E4"/>
<path d="M281.918 113.676H267.134C267.006 113.676 266.883 113.736 266.793 113.845C266.702 113.953 266.651 114.1 266.651 114.253C266.651 114.406 266.702 114.553 266.793 114.662C266.883 114.77 267.006 114.831 267.134 114.831H281.918C282.046 114.831 282.168 114.77 282.259 114.662C282.349 114.553 282.4 114.406 282.4 114.253C282.4 114.1 282.349 113.953 282.259 113.845C282.168 113.736 282.046 113.676 281.918 113.676Z" fill="#E4E4E4"/>
<path d="M273.542 111.393H267.134C267.006 111.393 266.884 111.454 266.793 111.563C266.703 111.671 266.653 111.818 266.653 111.971C266.653 112.124 266.703 112.27 266.793 112.379C266.884 112.487 267.006 112.548 267.134 112.548H273.542C273.606 112.549 273.669 112.534 273.727 112.505C273.786 112.476 273.839 112.433 273.884 112.38C273.929 112.326 273.965 112.262 273.989 112.192C274.013 112.122 274.026 112.047 274.026 111.971C274.026 111.895 274.013 111.819 273.989 111.749C273.965 111.679 273.929 111.615 273.884 111.562C273.839 111.508 273.786 111.465 273.727 111.436C273.669 111.408 273.606 111.393 273.542 111.393Z" fill="#E4E4E4"/>
<path d="M189.138 153.224C188.88 153.777 188.727 154.391 188.689 155.023C188.651 155.655 188.729 156.289 188.918 156.881C189.106 157.473 189.401 158.008 189.781 158.449C190.161 158.889 190.617 159.225 191.117 159.431L191.139 174.832L196.711 170.415L195.836 156.467C196.071 155.438 195.981 154.342 195.586 153.386C195.19 152.431 194.516 151.682 193.69 151.282C192.864 150.882 191.945 150.859 191.106 151.217C190.267 151.575 189.567 152.289 189.138 153.224Z" fill="#A0616A"/>
<path d="M150.529 367.573L154.587 369.645L163.189 351.882L157.2 348.825L150.529 367.573Z" fill="#A0616A"/>
<path d="M184.066 372.173L188.477 372.172L190.576 351.793L184.065 351.793L184.066 372.173Z" fill="#A0616A"/>
<path d="M183.911 377.685L197.477 377.684V377.478C197.477 375.801 196.92 374.193 195.93 373.007C194.94 371.821 193.597 371.155 192.196 371.155H192.196L189.718 368.903L185.095 371.155L183.911 371.155L183.911 377.685Z" fill="#2F2E41"/>
<path d="M148.061 371.102L160.541 377.471L160.608 377.282C161.157 375.739 161.172 373.998 160.649 372.442C160.126 370.886 159.109 369.643 157.821 368.985L157.821 368.985L156.278 365.75L151.288 365.651L150.198 365.095L148.061 371.102Z" fill="#2F2E41"/>
<path d="M188.393 251.56L195.098 300.455L193.273 307.741L195.668 312.901L192.152 358.22L193.579 361.983L189.591 364.928H181.477L181.046 323.901L179.042 317.877V314.558L174.961 289.54L174.526 320.609L173.223 323.618L161.553 360.206H152.454L153.158 353.713C151.528 352.725 155.606 349.836 155.997 347.698L154.658 344.088L155.997 337.268L159.083 318.302L155.93 295.814L157.06 281.339L156.472 276.388L156.516 274.787C156.516 274.787 158.072 274.068 156.586 272.274C154.53 258.313 157.06 255.284 157.06 255.284L167.184 248.187L188.393 251.56Z" fill="#2F2E41"/>
<path d="M172.066 187.169C177.144 187.169 181.261 182.238 181.261 176.156C181.261 170.074 177.144 165.144 172.066 165.144C166.988 165.144 162.871 170.074 162.871 176.156C162.871 182.238 166.988 187.169 172.066 187.169Z" fill="#A0616A"/>
<path d="M160.538 155.031C160.581 155.662 160.508 156.297 160.325 156.891C160.141 157.485 159.851 158.024 159.474 158.469C159.098 158.914 158.644 159.255 158.146 159.468C157.648 159.681 157.117 159.76 156.59 159.7L151.247 173.708L147.702 166.925L153.319 154.663C153.461 153.61 153.921 152.656 154.612 151.982C155.302 151.308 156.175 150.961 157.065 151.006C157.955 151.052 158.8 151.486 159.44 152.228C160.08 152.97 160.47 153.967 160.538 155.031Z" fill="#A0616A"/>
<path d="M152.501 201.182L160.165 196.797C160.244 196.751 160.317 196.692 160.382 196.621L165.732 190.677C165.891 190.501 166.099 190.402 166.316 190.4L175.931 190.314C176.065 190.313 176.197 190.349 176.318 190.419C176.438 190.489 176.543 190.592 176.625 190.719L179.551 195.276C179.656 195.438 179.798 195.56 179.96 195.626L187.935 198.87C188.113 198.943 188.267 199.083 188.373 199.27C188.479 199.457 188.532 199.679 188.523 199.905L187.09 235.401C187.084 235.559 187.107 235.716 187.159 235.861L187.844 237.775C187.914 237.97 187.933 238.186 187.897 238.394C187.861 238.602 187.773 238.792 187.644 238.938C187.441 239.168 187.213 239.434 187.065 239.63C186.769 240.022 187.401 243.097 187.496 243.545C187.504 243.583 187.51 243.621 187.514 243.659L187.868 246.838C187.889 247.025 187.867 247.216 187.804 247.389C187.741 247.562 187.64 247.712 187.512 247.821C187.414 247.905 187.332 248.012 187.271 248.135C187.21 248.259 187.17 248.396 187.155 248.539C187.141 248.681 187.151 248.826 187.185 248.964C187.219 249.101 187.277 249.229 187.354 249.339L188.13 250.436C188.237 250.588 188.306 250.773 188.328 250.97L188.514 252.64C188.532 252.805 188.518 252.973 188.471 253.13C188.424 253.286 188.346 253.427 188.244 253.54C188.142 253.654 188.019 253.736 187.884 253.78C187.75 253.824 187.609 253.829 187.473 253.794C182.656 252.549 164.724 248.588 158.147 256.615C158.023 256.769 157.862 256.874 157.686 256.915C157.51 256.955 157.328 256.93 157.164 256.841C157.001 256.753 156.865 256.606 156.774 256.422C156.683 256.237 156.642 256.023 156.656 255.809C156.704 254.942 156.796 254.08 156.93 253.227L157.572 248.358C157.587 248.245 157.586 248.13 157.57 248.017L156.982 243.987C156.952 243.777 156.867 243.582 156.741 243.431L156.544 243.195C156.463 243.099 156.4 242.984 156.356 242.858C156.312 242.732 156.29 242.597 156.29 242.46C156.29 242.324 156.312 242.189 156.356 242.062C156.4 241.936 156.463 241.822 156.544 241.725L157.312 240.806C157.406 240.693 157.478 240.555 157.52 240.403C157.563 240.252 157.576 240.09 157.558 239.932L156.538 230.892C156.536 230.874 156.534 230.856 156.531 230.838L152.022 202.313C151.986 202.087 152.014 201.854 152.101 201.65C152.187 201.445 152.328 201.28 152.501 201.182Z" fill="#3F3D56"/>
<path d="M169.714 186.63C169.675 186.526 169.635 186.422 169.596 186.318C169.611 186.319 169.626 186.321 169.641 186.322L169.714 186.63Z" fill="#2F2E41"/>
<path d="M187.179 214.743L196.744 198.922L201.582 190.218L197.098 164.248L190.64 170.19L191.148 184.671L182.503 199.284L187.179 214.743Z" fill="#3F3D56"/>
<path d="M180.072 166.247C179.934 165.332 179.626 164.466 179.171 163.713C178.942 163.387 178.658 163.122 178.338 162.936C178.017 162.75 177.668 162.648 177.312 162.635C176.956 162.622 176.602 162.699 176.273 162.861C175.944 163.023 175.647 163.267 175.402 163.576C175.545 163.075 175.587 162.541 175.524 162.017C174.852 162.402 174.134 162.658 173.395 162.775L175.027 160.734L166.905 161.628C166.066 161.72 165.16 161.851 164.544 162.614C163.929 163.376 163.895 165.004 164.673 165.43C163.139 164.738 161.379 165.742 160.367 167.424C159.356 169.105 158.984 171.323 158.915 173.475C158.827 176.266 159.261 179.236 160.683 181.291C161.613 182.634 162.881 183.472 163.91 184.68C163.92 184.693 163.931 184.705 163.941 184.717C165.068 186.102 166.481 187.104 168.036 187.623C169.592 188.142 171.234 188.159 172.797 187.672C172.972 187.614 173.146 187.55 173.322 187.49C174.197 187.964 175.287 187.316 175.839 186.262C176.429 185.137 176.545 183.699 176.57 182.329C176.603 180.537 176.51 178.745 176.294 176.972C176.051 174.974 175.831 172.417 177.152 171.414C178.18 170.633 179.458 171.403 180.493 172.168C180.592 170.18 180.45 168.186 180.072 166.247Z" fill="#2F2E41"/>
<path d="M160.464 217.229L154.337 216.699L143.704 201.107L135.81 187.556L137.628 182.048L148.515 159.895L154.221 165.37L148.773 186.799L159.572 199.732L160.464 217.229Z" fill="#3F3D56"/>
<path d="M213.348 121.037C218.865 121.037 223.337 115.681 223.337 109.073C223.337 102.465 218.865 97.1084 213.348 97.1084C207.83 97.1084 203.358 102.465 203.358 109.073C203.358 115.681 207.83 121.037 213.348 121.037Z" fill="#8395D2"/>
<path d="M211.985 115.3C211.812 115.3 211.642 115.252 211.488 115.159C211.334 115.067 211.199 114.933 211.096 114.767L208.37 110.415C208.283 110.275 208.219 110.116 208.182 109.947C208.146 109.777 208.138 109.601 208.159 109.428C208.179 109.255 208.228 109.088 208.302 108.938C208.377 108.787 208.475 108.656 208.592 108.551C208.709 108.446 208.842 108.369 208.983 108.326C209.125 108.283 209.272 108.273 209.416 108.298C209.561 108.323 209.7 108.382 209.826 108.471C209.951 108.56 210.061 108.678 210.148 108.818L211.931 111.665L216.511 103.438C216.592 103.293 216.696 103.167 216.817 103.07C216.938 102.972 217.075 102.904 217.218 102.87C217.361 102.835 217.508 102.835 217.652 102.869C217.795 102.903 217.931 102.97 218.053 103.067C218.175 103.164 218.279 103.289 218.36 103.435C218.441 103.58 218.498 103.743 218.526 103.915C218.555 104.086 218.555 104.263 218.526 104.435C218.498 104.606 218.441 104.769 218.36 104.915L212.909 114.707C212.811 114.884 212.678 115.03 212.523 115.133C212.367 115.236 212.193 115.293 212.016 115.299C212.005 115.3 211.995 115.3 211.985 115.3Z" fill="white"/>
</svg>
