<svg width="780" height="503" viewBox="0 0 780 503" fill="none" xmlns="http://www.w3.org/2000/svg">
<g clip-path="url(#clip0_24_294)">
<path d="M295.609 79.1972C295.071 79.9038 294.328 80.4191 293.486 80.6693C292.644 80.9196 291.746 80.892 290.92 80.5905C290.669 80.5146 290.422 80.423 290.182 80.3161C290.453 77.3608 290.319 74.3813 289.783 71.4638C289.572 73.9715 288.971 76.429 288.001 78.7436C287.21 77.9353 286.563 76.9933 286.088 75.9595C285.203 73.8203 284.617 71.5652 284.346 69.2601C283.037 61.4063 281.745 53.2359 283.881 45.5607C287.01 34.3487 296.877 26.2885 300.998 15.4103L303.028 13.5521C306.504 19.5858 306.658 27.0832 305.241 33.9249C303.832 40.7802 300.992 47.2142 298.747 53.8252C296.502 60.4362 294.82 67.4683 295.861 74.386C296.101 76.0148 296.466 77.805 295.609 79.1972Z" fill="#2F2E41"/>
<path d="M250.485 174.067L237.254 235.763L295.046 254.952L286.548 174.067H250.485Z" fill="#FFB6B6"/>
<path d="M658.304 501.486H684.493V379.085C684.458 347.496 672.133 317.211 650.224 294.875C628.314 272.538 598.608 259.974 567.623 259.938H324.235C293.25 259.974 263.544 272.538 241.634 294.875C219.725 317.211 207.4 347.496 207.365 379.085V501.486H233.554V417.865C233.589 385.983 246.028 355.416 268.141 332.872C290.255 310.328 320.237 297.647 351.51 297.611H540.348C571.621 297.647 601.603 310.328 623.717 332.872C645.83 355.416 658.269 385.983 658.304 417.865V501.486Z" fill="#E6E6E6"/>
<path d="M340.069 437.452L312.158 428.837C310.343 421.233 309.428 413.435 309.432 405.61C309.445 403.842 309.952 402.115 310.893 400.63C311.834 399.146 313.17 397.965 314.745 397.226C316.32 396.488 318.069 396.221 319.787 396.459C321.505 396.697 323.121 397.428 324.447 398.568C339.416 411.658 361.343 418.643 375.494 433.559C381.35 439.828 385.748 447.361 388.361 455.598C390.974 463.835 391.735 472.566 390.588 481.144L396.697 501.289C383.024 500.283 369.727 496.267 357.723 489.517C345.72 482.768 335.294 473.446 327.164 462.193C322.665 455.834 318.968 448.923 316.163 441.623C328.001 440.254 340.069 437.452 340.069 437.452Z" fill="#F2F2F2"/>
<path d="M412.811 470.441L427.046 466.047C427.065 465.97 427.083 465.893 427.101 465.816C427.495 464.041 427.371 462.187 426.743 460.483C426.115 458.779 425.011 457.3 423.569 456.228C422.126 455.157 420.406 454.539 418.623 454.453C416.84 454.366 415.071 454.813 413.534 455.74C407.072 459.653 399.897 463.023 394.743 468.456C391.756 471.653 389.513 475.495 388.181 479.696C386.848 483.897 386.46 488.351 387.045 492.726L383.929 503C390.903 502.487 397.684 500.439 403.807 496.996C409.929 493.554 415.247 488.799 419.393 483.06C421.688 479.817 423.573 476.292 425.004 472.568C418.966 471.87 412.811 470.441 412.811 470.441Z" fill="#F2F2F2"/>
<path d="M528.045 169.67H472.609C471.825 169.672 471.073 169.99 470.52 170.556C469.966 171.122 469.655 171.89 469.656 172.689V261.966H531.006V172.689C531.006 172.293 530.929 171.9 530.781 171.534C530.632 171.167 530.414 170.834 530.139 170.554C529.864 170.274 529.537 170.051 529.178 169.9C528.819 169.748 528.434 169.67 528.045 169.67ZM500.513 220.397C498.78 220.388 497.12 219.683 495.894 218.433C494.668 217.183 493.976 215.491 493.967 213.723V203.426C493.97 201.657 494.66 199.962 495.888 198.713C497.115 197.463 498.779 196.761 500.513 196.761C502.248 196.761 503.912 197.463 505.139 198.713C506.367 199.962 507.057 201.657 507.06 203.426V213.723C507.051 215.491 506.359 217.183 505.133 218.433C503.907 219.683 502.247 220.388 500.513 220.397Z" fill="#3F3D56"/>
<path d="M619.841 30.3434H382.876C380.84 30.3467 378.888 31.1727 377.449 32.6404C376.009 34.108 375.199 36.0975 375.196 38.1731V201.192C375.198 203.268 376.007 205.258 377.447 206.726C378.887 208.194 380.84 209.02 382.876 209.022H619.841C621.877 209.02 623.829 208.194 625.269 206.726C626.709 205.258 627.519 203.268 627.521 201.192V38.1731C627.518 36.0976 626.708 34.108 625.268 32.6404C623.828 31.1727 621.877 30.3468 619.841 30.3434Z" fill="#3F3D56"/>
<path d="M617.863 35.9987H384.856C383.766 36.0011 382.721 36.4442 381.951 37.2309C381.181 38.0175 380.749 39.0834 380.748 40.1947V199.173C380.75 200.283 381.184 201.347 381.954 202.132C382.723 202.917 383.767 203.359 384.856 203.361H617.863C618.952 203.359 619.995 202.917 620.765 202.132C621.535 201.347 621.968 200.283 621.97 199.173V40.1947C621.97 39.0834 621.538 38.0175 620.768 37.2309C619.998 36.4442 618.953 36.0011 617.863 35.9987Z" fill="white"/>
<path d="M469.466 259.111V267.724C469.467 268.17 469.641 268.598 469.95 268.914C470.26 269.229 470.68 269.407 471.117 269.408H529.544C529.982 269.406 530.401 269.228 530.71 268.912C531.019 268.597 531.194 268.17 531.196 267.724V259.111H469.466Z" fill="#3F3D56"/>
<path d="M572.477 272.405H433.851C433.471 272.405 433.096 272.319 432.754 272.152C432.411 271.986 432.109 271.744 431.87 271.443C431.631 271.143 431.461 270.792 431.372 270.416C431.283 270.04 431.277 269.648 431.355 269.27L433.506 258.855C433.629 258.272 433.943 257.75 434.397 257.374C434.851 256.999 435.417 256.793 436.001 256.791H570.326C570.911 256.793 571.477 256.999 571.931 257.374C572.385 257.75 572.699 258.272 572.822 258.855L574.973 269.27C575.051 269.648 575.045 270.04 574.956 270.416C574.867 270.792 574.696 271.143 574.457 271.443C574.218 271.744 573.916 271.986 573.574 272.152C573.231 272.319 572.857 272.405 572.477 272.405Z" fill="#3F3D56"/>
<path d="M440.725 258.666H437.516C437.223 258.666 436.986 258.908 436.986 259.207V260.737C436.986 261.036 437.223 261.278 437.516 261.278H440.725C441.018 261.278 441.255 261.036 441.255 260.737V259.207C441.255 258.908 441.018 258.666 440.725 258.666Z" fill="#E6E6E6"/>
<path d="M449.264 258.666H446.055C445.762 258.666 445.525 258.908 445.525 259.207V260.737C445.525 261.036 445.762 261.278 446.055 261.278H449.264C449.557 261.278 449.794 261.036 449.794 260.737V259.207C449.794 258.908 449.557 258.666 449.264 258.666Z" fill="#E6E6E6"/>
<path d="M457.803 258.666H454.594C454.301 258.666 454.064 258.908 454.064 259.207V260.737C454.064 261.036 454.301 261.278 454.594 261.278H457.803C458.096 261.278 458.333 261.036 458.333 260.737V259.207C458.333 258.908 458.096 258.666 457.803 258.666Z" fill="#E6E6E6"/>
<path d="M466.342 258.666H463.133C462.84 258.666 462.603 258.908 462.603 259.207V260.737C462.603 261.036 462.84 261.278 463.133 261.278H466.342C466.635 261.278 466.872 261.036 466.872 260.737V259.207C466.872 258.908 466.635 258.666 466.342 258.666Z" fill="#E6E6E6"/>
<path d="M474.881 258.666H471.673C471.38 258.666 471.142 258.908 471.142 259.207V260.737C471.142 261.036 471.38 261.278 471.673 261.278H474.881C475.174 261.278 475.412 261.036 475.412 260.737V259.207C475.412 258.908 475.174 258.666 474.881 258.666Z" fill="#E6E6E6"/>
<path d="M483.42 258.666H480.212C479.919 258.666 479.681 258.908 479.681 259.207V260.737C479.681 261.036 479.919 261.278 480.212 261.278H483.42C483.713 261.278 483.951 261.036 483.951 260.737V259.207C483.951 258.908 483.713 258.666 483.42 258.666Z" fill="#E6E6E6"/>
<path d="M491.959 258.666H488.751C488.458 258.666 488.22 258.908 488.22 259.207V260.737C488.22 261.036 488.458 261.278 488.751 261.278H491.959C492.252 261.278 492.49 261.036 492.49 260.737V259.207C492.49 258.908 492.252 258.666 491.959 258.666Z" fill="#E6E6E6"/>
<path d="M500.498 258.666H497.29C496.997 258.666 496.759 258.908 496.759 259.207V260.737C496.759 261.036 496.997 261.278 497.29 261.278H500.498C500.791 261.278 501.029 261.036 501.029 260.737V259.207C501.029 258.908 500.791 258.666 500.498 258.666Z" fill="#E6E6E6"/>
<path d="M509.038 258.666H505.829C505.536 258.666 505.299 258.908 505.299 259.207V260.737C505.299 261.036 505.536 261.278 505.829 261.278H509.038C509.331 261.278 509.568 261.036 509.568 260.737V259.207C509.568 258.908 509.331 258.666 509.038 258.666Z" fill="#E6E6E6"/>
<path d="M517.577 258.666H514.368C514.075 258.666 513.838 258.908 513.838 259.207V260.737C513.838 261.036 514.075 261.278 514.368 261.278H517.577C517.87 261.278 518.107 261.036 518.107 260.737V259.207C518.107 258.908 517.87 258.666 517.577 258.666Z" fill="#E6E6E6"/>
<path d="M526.116 258.666H522.907C522.614 258.666 522.377 258.908 522.377 259.207V260.737C522.377 261.036 522.614 261.278 522.907 261.278H526.116C526.409 261.278 526.646 261.036 526.646 260.737V259.207C526.646 258.908 526.409 258.666 526.116 258.666Z" fill="#E6E6E6"/>
<path d="M534.655 258.666H531.446C531.153 258.666 530.916 258.908 530.916 259.207V260.737C530.916 261.036 531.153 261.278 531.446 261.278H534.655C534.948 261.278 535.186 261.036 535.186 260.737V259.207C535.186 258.908 534.948 258.666 534.655 258.666Z" fill="#E6E6E6"/>
<path d="M543.194 258.666H539.986C539.693 258.666 539.455 258.908 539.455 259.207V260.737C539.455 261.036 539.693 261.278 539.986 261.278H543.194C543.487 261.278 543.725 261.036 543.725 260.737V259.207C543.725 258.908 543.487 258.666 543.194 258.666Z" fill="#E6E6E6"/>
<path d="M551.733 258.666H548.525C548.232 258.666 547.994 258.908 547.994 259.207V260.737C547.994 261.036 548.232 261.278 548.525 261.278H551.733C552.026 261.278 552.264 261.036 552.264 260.737V259.207C552.264 258.908 552.026 258.666 551.733 258.666Z" fill="#E6E6E6"/>
<path d="M560.272 258.666H557.064C556.771 258.666 556.533 258.908 556.533 259.207V260.737C556.533 261.036 556.771 261.278 557.064 261.278H560.272C560.565 261.278 560.803 261.036 560.803 260.737V259.207C560.803 258.908 560.565 258.666 560.272 258.666Z" fill="#E6E6E6"/>
<path d="M568.811 258.666H565.603C565.31 258.666 565.073 258.908 565.073 259.207V260.737C565.073 261.036 565.31 261.278 565.603 261.278H568.811C569.104 261.278 569.342 261.036 569.342 260.737V259.207C569.342 258.908 569.104 258.666 568.811 258.666Z" fill="#E6E6E6"/>
<path d="M440.624 263.019H437.415C437.122 263.019 436.885 263.261 436.885 263.56V265.089C436.885 265.388 437.122 265.63 437.415 265.63H440.624C440.917 265.63 441.154 265.388 441.154 265.089V263.56C441.154 263.261 440.917 263.019 440.624 263.019Z" fill="#E6E6E6"/>
<path d="M449.163 263.019H445.954C445.661 263.019 445.424 263.261 445.424 263.56V265.089C445.424 265.388 445.661 265.63 445.954 265.63H449.163C449.456 265.63 449.693 265.388 449.693 265.089V263.56C449.693 263.261 449.456 263.019 449.163 263.019Z" fill="#E6E6E6"/>
<path d="M457.702 263.019H454.494C454.2 263.019 453.963 263.261 453.963 263.56V265.089C453.963 265.388 454.2 265.63 454.494 265.63H457.702C457.995 265.63 458.232 265.388 458.232 265.089V263.56C458.232 263.261 457.995 263.019 457.702 263.019Z" fill="#E6E6E6"/>
<path d="M466.241 263.019H463.033C462.74 263.019 462.502 263.261 462.502 263.56V265.089C462.502 265.388 462.74 265.63 463.033 265.63H466.241C466.534 265.63 466.772 265.388 466.772 265.089V263.56C466.772 263.261 466.534 263.019 466.241 263.019Z" fill="#E6E6E6"/>
<path d="M474.78 263.019H471.572C471.279 263.019 471.041 263.261 471.041 263.56V265.089C471.041 265.388 471.279 265.63 471.572 265.63H474.78C475.073 265.63 475.311 265.388 475.311 265.089V263.56C475.311 263.261 475.073 263.019 474.78 263.019Z" fill="#E6E6E6"/>
<path d="M483.319 263.019H480.111C479.818 263.019 479.58 263.261 479.58 263.56V265.089C479.58 265.388 479.818 265.63 480.111 265.63H483.319C483.612 265.63 483.85 265.388 483.85 265.089V263.56C483.85 263.261 483.612 263.019 483.319 263.019Z" fill="#E6E6E6"/>
<path d="M491.858 263.019H488.65C488.357 263.019 488.119 263.261 488.119 263.56V265.089C488.119 265.388 488.357 265.63 488.65 265.63H491.858C492.151 265.63 492.389 265.388 492.389 265.089V263.56C492.389 263.261 492.151 263.019 491.858 263.019Z" fill="#E6E6E6"/>
<path d="M500.397 263.019H497.189C496.896 263.019 496.659 263.261 496.659 263.56V265.089C496.659 265.388 496.896 265.63 497.189 265.63H500.397C500.691 265.63 500.928 265.388 500.928 265.089V263.56C500.928 263.261 500.691 263.019 500.397 263.019Z" fill="#E6E6E6"/>
<path d="M508.937 263.019H505.728C505.435 263.019 505.198 263.261 505.198 263.56V265.089C505.198 265.388 505.435 265.63 505.728 265.63H508.937C509.23 265.63 509.467 265.388 509.467 265.089V263.56C509.467 263.261 509.23 263.019 508.937 263.019Z" fill="#E6E6E6"/>
<path d="M517.476 263.019H514.267C513.974 263.019 513.737 263.261 513.737 263.56V265.089C513.737 265.388 513.974 265.63 514.267 265.63H517.476C517.769 265.63 518.006 265.388 518.006 265.089V263.56C518.006 263.261 517.769 263.019 517.476 263.019Z" fill="#E6E6E6"/>
<path d="M526.015 263.019H522.807C522.513 263.019 522.276 263.261 522.276 263.56V265.089C522.276 265.388 522.513 265.63 522.807 265.63H526.015C526.308 265.63 526.545 265.388 526.545 265.089V263.56C526.545 263.261 526.308 263.019 526.015 263.019Z" fill="#E6E6E6"/>
<path d="M534.554 263.019H531.346C531.053 263.019 530.815 263.261 530.815 263.56V265.089C530.815 265.388 531.053 265.63 531.346 265.63H534.554C534.847 265.63 535.085 265.388 535.085 265.089V263.56C535.085 263.261 534.847 263.019 534.554 263.019Z" fill="#E6E6E6"/>
<path d="M543.093 263.019H539.885C539.592 263.019 539.354 263.261 539.354 263.56V265.089C539.354 265.388 539.592 265.63 539.885 265.63H543.093C543.386 265.63 543.624 265.388 543.624 265.089V263.56C543.624 263.261 543.386 263.019 543.093 263.019Z" fill="#E6E6E6"/>
<path d="M551.632 263.019H548.424C548.131 263.019 547.893 263.261 547.893 263.56V265.089C547.893 265.388 548.131 265.63 548.424 265.63H551.632C551.925 265.63 552.163 265.388 552.163 265.089V263.56C552.163 263.261 551.925 263.019 551.632 263.019Z" fill="#E6E6E6"/>
<path d="M560.171 263.019H556.963C556.67 263.019 556.432 263.261 556.432 263.56V265.089C556.432 265.388 556.67 265.63 556.963 265.63H560.171C560.464 265.63 560.702 265.388 560.702 265.089V263.56C560.702 263.261 560.464 263.019 560.171 263.019Z" fill="#E6E6E6"/>
<path d="M568.711 263.019H565.502C565.209 263.019 564.972 263.261 564.972 263.56V265.089C564.972 265.388 565.209 265.63 565.502 265.63H568.711C569.004 265.63 569.241 265.388 569.241 265.089V263.56C569.241 263.261 569.004 263.019 568.711 263.019Z" fill="#E6E6E6"/>
<path d="M511.498 268.242H478.403C478.11 268.242 477.872 268.484 477.872 268.783V270.313C477.872 270.611 478.11 270.854 478.403 270.854H511.498C511.791 270.854 512.029 270.611 512.029 270.313V268.783C512.029 268.484 511.791 268.242 511.498 268.242Z" fill="#E6E6E6"/>
<path d="M583.12 75.9076V159.585C583.12 165.189 580.936 170.563 577.049 174.525C573.162 178.488 567.891 180.714 562.394 180.715H459.665C455.621 180.716 451.665 179.511 448.283 177.249C444.902 174.987 442.243 171.767 440.634 167.984C440.095 166.734 439.684 165.43 439.406 164.095C441.59 164.956 443.912 165.396 446.253 165.391H548.982C554.048 165.384 558.904 163.329 562.485 159.678C566.067 156.026 568.082 151.076 568.089 145.912V62.2347C568.094 59.8476 567.662 57.4805 566.818 55.2542C568.128 55.5372 569.406 55.9568 570.632 56.5063C574.343 58.1465 577.502 60.857 579.721 64.3041C581.94 67.7513 583.121 71.7846 583.12 75.9076Z" fill="#F2F2F2"/>
<path d="M199.869 408.828L189.679 415.26L159.662 377.643L174.699 368.152L199.869 408.828Z" fill="#FFB6B6"/>
<path d="M208.665 422.264L200.469 425.994L195.551 418.771L195.259 428.365L173.52 438.259C172.478 438.733 171.315 438.855 170.2 438.608C169.085 438.36 168.077 437.756 167.323 436.883C166.568 436.01 166.108 434.914 166.008 433.755C165.908 432.596 166.174 431.435 166.767 430.441L178.775 410.318L175.282 402.342L194.028 395.143L208.665 422.264Z" fill="#2F2E41"/>
<path d="M171.325 401.592L188.534 384.59C175.749 352.425 174.727 332.489 157.003 293.588C199.056 302.357 229.122 301.823 263.901 293.961C275.675 291.341 306.055 267.418 303.557 255.151C303.441 254.578 303.303 254.01 303.144 253.447C299.41 240.471 302.039 220.599 293.959 206.199C279.009 200.453 256.297 219.856 238.53 231.684C229.962 237.387 236.234 245.158 229.835 247.196L205.306 255.313L145.124 245.404C142.215 244.955 139.248 245.097 136.394 245.822C133.54 246.547 130.854 247.841 128.492 249.629C126.131 251.417 124.139 253.663 122.633 256.24C121.127 258.816 120.136 261.67 119.717 264.639C119.616 265.305 119.542 265.975 119.496 266.648C122.265 282.275 125.152 297.492 128.259 311.936C129.263 316.599 127.569 325.538 131.341 325.671C135.114 325.804 133.594 335.049 134.769 339.569C142.002 367.395 146.576 380.861 171.325 401.592Z" fill="#2F2E41"/>
<path d="M138.388 476.165L127.772 470.516L144.567 425.158L160.234 433.495L138.388 476.165Z" fill="#FFB6B6"/>
<path d="M136.618 442.302L153.64 454.25C174.501 423.492 188.047 382.39 198.134 336.401C237.412 318.934 271.78 298.949 295.73 272.144C299.663 267.65 301.725 261.771 301.48 255.753C301.234 249.736 298.701 244.052 294.415 239.906C293.996 239.505 293.563 239.122 293.115 238.755C282.742 230.331 259.703 235.178 244.977 228.137L218.671 265.255L221.695 273.9L212.543 278.442L204.817 282.277L195.972 286.667L166.977 301.057C164.348 302.396 162.005 304.253 160.084 306.52C158.163 308.787 156.701 311.42 155.782 314.266C154.864 317.112 154.508 320.115 154.733 323.102C154.959 326.089 155.763 329.002 157.098 331.67C157.391 332.275 157.709 332.866 158.052 333.443L147.284 388.135C147.284 388.135 150.247 397.656 145.584 396.765C140.922 395.874 143.463 407.541 143.463 407.541L136.618 442.302Z" fill="#2F2E41"/>
<path d="M131.959 501.162L124.002 496.928L126.502 488.513L118.944 494.237L97.8389 483.007C96.8273 482.469 96.0108 481.615 95.5089 480.571C95.0069 479.526 94.8456 478.345 95.0486 477.2C95.2516 476.055 95.8083 475.007 96.6373 474.207C97.4663 473.408 98.5242 472.899 99.6567 472.756L122.585 469.857L126.549 462.114L143.724 472.625L131.959 501.162Z" fill="#2F2E41"/>
<path d="M363.977 263.379L351.562 232.792L341.78 238.332L347.688 269.447C347.096 271.418 347.055 273.519 347.571 275.512C348.086 277.506 349.136 279.313 350.604 280.732C352.071 282.15 353.898 283.123 355.878 283.541C357.858 283.959 359.913 283.805 361.812 283.098C363.711 282.39 365.38 281.157 366.629 279.536C367.878 277.915 368.659 275.971 368.884 273.922C369.109 271.873 368.769 269.801 367.902 267.939C367.035 266.076 365.676 264.497 363.977 263.379Z" fill="#FFB6B6"/>
<path d="M155.646 21.5032L174.536 48.4276L182.832 40.7721L170.163 11.8304C170.301 9.77375 169.874 7.71859 168.929 5.89596C167.984 4.07333 166.559 2.5555 164.815 1.51311C163.07 0.47072 161.075 -0.0549027 159.054 -0.00466558C157.032 0.0455716 155.064 0.669677 153.372 1.79748C151.679 2.92529 150.329 4.51209 149.472 6.37948C148.616 8.24688 148.287 10.3208 148.523 12.3682C148.759 14.4156 149.551 16.3552 150.809 17.9689C152.068 19.5827 153.743 20.8067 155.646 21.5032H155.646Z" fill="#FFB6B6"/>
<path d="M240.951 192.153C228.699 211.528 273.587 253.743 297.219 243.872C301.358 242.143 315.592 236.434 305.862 228.519C296.133 220.604 306.99 229.462 307.247 224.309C307.419 220.864 304.802 213.307 307.532 213.631C310.262 213.955 311.828 205.907 305.883 203.857C303.816 203.104 302.003 201.767 300.655 200C299.308 198.234 298.482 196.113 298.276 193.885C297.707 172.648 304.762 150.476 304.762 150.476L333.561 225.527C333.561 225.527 333.348 238.511 337.021 234.544C340.693 230.576 340.426 243.418 340.426 243.418C340.426 243.418 345.887 247.303 342.747 249.466C339.607 251.628 346.128 258.276 346.128 258.276L361.344 257.168C361.344 257.168 361.105 245.645 358.507 243.096C355.909 240.548 357.185 236.538 357.185 236.538C357.185 236.538 351.829 231.459 354.956 225.477C358.083 219.495 332.185 112.502 332.185 112.502C331.148 107.354 328.734 102.599 325.212 98.7628C321.689 94.9262 317.194 92.1573 312.224 90.7623L295.79 86.1493L292.872 74.3453H269.732L265.701 82.1014L228.748 78.7774C228.748 78.7774 192.183 44.8611 193.969 42.2129C195.754 39.5646 190.086 33.3645 190.086 33.3645C190.086 33.3645 185.245 31.7493 187.977 30.887C190.708 30.0246 185.545 28.0309 185.545 28.0309C185.545 28.0309 180.763 26.7499 183.019 25.0632C185.274 23.3765 175.492 22.2685 175.492 22.2685L162.801 32.8252L165.366 37.2594C165.366 37.2594 163.802 43.2974 165.843 41.0931C167.884 38.8889 168.268 45.2858 168.268 45.2858C168.268 45.2858 169.311 52.2906 175.492 54.4011C181.673 56.5115 186.361 76.5614 186.361 76.5614L238.529 120.882C230.584 130.18 232.475 139.902 239.514 149.848L240.951 192.153Z" fill="#FFA6EB"/>
<path d="M280.78 66.5026C294.619 66.5026 305.838 55.0652 305.838 40.9565C305.838 26.8478 294.619 15.4104 280.78 15.4104C266.941 15.4104 255.722 26.8478 255.722 40.9565C255.722 55.0652 266.941 66.5026 280.78 66.5026Z" fill="#FFB6B6"/>
<path d="M302.654 33.3487C302.012 33.5371 292.6 34.7892 288.525 35.5648C284.525 36.3293 283.829 31.1327 280.558 32.1078C280.56 32.085 280.556 32.0622 280.547 32.0413C280.04 29.2878 279.174 26.616 277.971 24.0968C278.408 26.5096 278.47 28.9772 278.156 31.4097C278.154 31.473 278.147 31.5361 278.134 31.5981C278.124 31.7089 278.102 31.8086 278.091 31.9194C274.635 30.3682 272.439 31.7532 270.048 32.2407C267.375 32.7836 265.288 33.9803 266.788 43.3209C269.863 62.5339 285.862 69.3925 283.09 82.1015C282.547 84.6167 281.178 87.7634 279.46 88.5501C278.953 85.7967 278.087 83.1248 276.885 80.6056C277.321 83.0184 277.383 85.4861 277.069 87.9185C274.407 84.9823 272.483 74.7221 263.527 66.5892C261.321 64.5948 250.268 52.7612 248.942 49.969C249.349 52.2014 249.545 54.4684 249.529 56.739C249.531 58.2586 249.429 59.7766 249.224 61.2818C249.224 61.3788 249.213 61.4755 249.192 61.5699C249.181 61.7472 249.148 61.9023 249.126 62.0685C249.105 62.2569 249.072 62.4342 249.039 62.6225C245.42 62.0907 242.214 61.448 240.703 59.9411C233.356 52.6504 242.323 38.4456 247.224 25.5926C254.235 7.18846 274.591 4.73974 276.569 4.5403C285.286 3.6428 300.013 5.54859 304.827 15.6205C308.197 22.6785 306.045 32.3515 302.654 33.3487Z" fill="#2F2E41"/>
<path d="M249.816 37.503L267.968 8.71641C263.618 6.14184 258.664 4.81712 253.635 4.8831C251.128 4.93621 248.66 5.52722 246.393 6.61761C244.125 7.70799 242.108 9.27329 240.474 11.2115C236.767 15.9086 236.13 22.5485 237.519 28.4086C237.999 30.4326 247.134 23.3114 244.96 26.6354C243.176 29.2379 240.258 40.177 239.526 43.2556C238.348 48.2105 235.109 53.2966 237.994 57.461C241.406 62.3855 247.493 64.8333 253.402 65.0819C259.311 65.3305 265.127 63.6612 270.742 61.7704L249.816 37.503Z" fill="#2F2E41"/>
<path d="M256.791 36.3676C256.529 36.3673 256.276 36.2705 256.078 36.0949C255.881 35.9193 255.752 35.6769 255.716 35.4122C255.68 35.1475 255.738 34.8785 255.882 34.6546C256.025 34.4307 256.242 34.2671 256.494 34.1938C256.779 33.7145 256.663 31.697 256.569 30.0669C256.215 23.9463 255.623 13.7026 265.379 6.78771C265.615 6.61997 265.908 6.55492 266.191 6.60687C266.475 6.65882 266.727 6.82351 266.891 7.06471C267.056 7.30591 267.119 7.60387 267.068 7.89303C267.018 8.1822 266.856 8.43889 266.619 8.60663C257.865 14.8127 258.391 23.9144 258.739 29.9365C258.937 33.3796 259.081 35.8666 257.032 36.34C256.953 36.3585 256.872 36.3677 256.791 36.3676Z" fill="#FFA6EB"/>
<path d="M5.69984e-06 500.769C-0.00101046 501.117 0.13388 501.452 0.374987 501.699C0.616094 501.947 0.943669 502.086 1.28567 502.087H778.707C779.05 502.087 779.379 501.948 779.621 501.701C779.864 501.454 780 501.118 780 500.769C780 500.419 779.864 500.084 779.621 499.836C779.379 499.589 779.05 499.45 778.707 499.45H1.29339C1.12405 499.45 0.956268 499.483 0.799621 499.549C0.642974 499.614 0.500526 499.711 0.380427 499.832C0.260327 499.954 0.164926 500.099 0.0996591 500.258C0.0343925 500.417 0.000536251 500.588 3.88679e-05 500.761L5.69984e-06 500.769Z" fill="#CCCCCC"/>
<path d="M480.969 105.095H464.523C464.087 105.095 463.668 104.918 463.36 104.604C463.051 104.289 462.878 103.863 462.878 103.418C462.878 102.973 463.051 102.547 463.36 102.233C463.668 101.918 464.087 101.741 464.523 101.741H480.969C481.405 101.741 481.824 101.918 482.132 102.233C482.44 102.547 482.614 102.973 482.614 103.418C482.614 103.863 482.44 104.289 482.132 104.604C481.824 104.918 481.405 105.095 480.969 105.095Z" fill="#FFA6EB"/>
<path d="M510.572 105.095H494.126C493.91 105.095 493.696 105.051 493.497 104.967C493.297 104.883 493.116 104.759 492.963 104.604C492.811 104.448 492.689 104.263 492.607 104.06C492.524 103.856 492.482 103.638 492.482 103.418C492.482 103.198 492.524 102.98 492.607 102.776C492.689 102.573 492.811 102.388 492.963 102.233C493.116 102.077 493.297 101.953 493.497 101.869C493.696 101.785 493.91 101.741 494.126 101.741H510.572C510.788 101.741 511.002 101.785 511.202 101.869C511.401 101.953 511.583 102.077 511.735 102.233C511.888 102.388 512.009 102.573 512.092 102.776C512.175 102.98 512.217 103.198 512.217 103.418C512.217 103.638 512.175 103.856 512.092 104.06C512.009 104.263 511.888 104.448 511.735 104.604C511.583 104.759 511.401 104.883 511.202 104.967C511.002 105.051 510.788 105.095 510.572 105.095Z" fill="#FFA6EB"/>
<path d="M525.374 118.508H508.928C508.712 118.508 508.498 118.465 508.298 118.38C508.099 118.296 507.918 118.173 507.765 118.017C507.612 117.861 507.491 117.676 507.408 117.473C507.326 117.27 507.283 117.052 507.283 116.831C507.283 116.611 507.326 116.393 507.408 116.19C507.491 115.986 507.612 115.801 507.765 115.646C507.918 115.49 508.099 115.367 508.298 115.282C508.498 115.198 508.712 115.155 508.928 115.155H525.374C525.59 115.155 525.804 115.198 526.003 115.282C526.203 115.367 526.384 115.49 526.537 115.646C526.69 115.801 526.811 115.986 526.894 116.19C526.976 116.393 527.019 116.611 527.019 116.831C527.019 117.052 526.976 117.27 526.894 117.473C526.811 117.676 526.69 117.861 526.537 118.017C526.384 118.173 526.203 118.296 526.003 118.38C525.804 118.465 525.59 118.508 525.374 118.508Z" fill="#FFA6EB"/>
<path d="M495.862 118.508H464.523C464.087 118.508 463.668 118.331 463.36 118.017C463.051 117.703 462.878 117.276 462.878 116.831C462.878 116.387 463.051 115.96 463.36 115.646C463.668 115.331 464.087 115.155 464.523 115.155H495.862C496.298 115.155 496.716 115.331 497.024 115.646C497.333 115.96 497.506 116.387 497.506 116.831C497.506 117.276 497.333 117.703 497.024 118.017C496.716 118.331 496.298 118.508 495.862 118.508Z" fill="#FFA6EB"/>
<path d="M555.068 105.095H523.729C523.293 105.095 522.875 104.918 522.567 104.604C522.258 104.289 522.085 103.863 522.085 103.418C522.085 102.973 522.258 102.547 522.567 102.233C522.875 101.918 523.293 101.741 523.729 101.741H555.068C555.284 101.741 555.498 101.785 555.698 101.869C555.897 101.953 556.079 102.077 556.231 102.233C556.384 102.388 556.505 102.573 556.588 102.776C556.67 102.98 556.713 103.198 556.713 103.418C556.713 103.638 556.67 103.856 556.588 104.06C556.505 104.263 556.384 104.448 556.231 104.604C556.079 104.759 555.897 104.883 555.698 104.967C555.498 105.051 555.284 105.095 555.068 105.095Z" fill="#FFA6EB"/>
<path d="M492.229 79.6947H460.89C460.674 79.6952 460.459 79.6523 460.259 79.5683C460.059 79.4842 459.877 79.3608 459.724 79.2051C459.571 79.0493 459.45 78.8643 459.367 78.6606C459.284 78.4569 459.241 78.2385 459.241 78.018C459.241 77.7974 459.284 77.579 459.367 77.3753C459.45 77.1716 459.571 76.9866 459.724 76.8309C459.877 76.6751 460.059 76.5517 460.259 76.4677C460.459 76.3837 460.674 76.3407 460.89 76.3413H492.229C492.665 76.3413 493.083 76.518 493.392 76.8324C493.7 77.1468 493.873 77.5733 493.873 78.018C493.873 78.4627 493.7 78.8891 493.392 79.2036C493.083 79.518 492.665 79.6947 492.229 79.6947Z" fill="#FFA6EB"/>
<path d="M494.805 89.4903C494.498 89.4905 494.199 89.3928 493.949 89.211C493.699 89.0292 493.511 88.7724 493.412 88.4763C493.312 88.1803 493.305 87.8599 493.393 87.56C493.481 87.26 493.658 86.9955 493.901 86.8034L501.925 80.4444C502.248 80.1889 502.514 79.8679 502.709 79.5017C502.903 79.1356 503.021 78.7322 503.055 78.3172C503.088 77.9023 503.037 77.4848 502.904 77.0911C502.771 76.6975 502.559 76.3363 502.282 76.0304L495.545 68.595C495.413 68.4501 495.311 68.2804 495.244 68.0954C495.178 67.9104 495.147 67.7138 495.155 67.5168C495.162 67.3198 495.208 67.1262 495.289 66.9471C495.37 66.7681 495.485 66.6071 495.627 66.4732C495.769 66.3394 495.935 66.2354 496.117 66.1672C496.298 66.0989 496.491 66.0678 496.684 66.0756C496.878 66.0833 497.067 66.1299 497.243 66.2124C497.419 66.295 497.577 66.412 497.708 66.5568L507.713 77.598C507.851 77.7507 507.957 77.9311 508.023 78.1277C508.09 78.3243 508.115 78.5328 508.099 78.7401C508.082 78.9473 508.023 79.1488 507.926 79.3317C507.829 79.5146 507.696 79.6749 507.535 79.8026L495.709 89.1744C495.45 89.3793 495.133 89.4905 494.805 89.4903Z" fill="#FFA6EB"/>
<path d="M459.304 89.4903C459.611 89.4905 459.91 89.3928 460.16 89.211C460.41 89.0292 460.598 88.7724 460.698 88.4763C460.798 88.1803 460.804 87.8599 460.716 87.56C460.629 87.26 460.451 86.9955 460.209 86.8034L452.184 80.4444C451.862 80.1889 451.595 79.8679 451.401 79.5017C451.206 79.1356 451.088 78.7322 451.055 78.3172C451.021 77.9023 451.073 77.4848 451.206 77.0911C451.339 76.6975 451.551 76.3363 451.828 76.0304L458.565 68.595C458.696 68.4501 458.798 68.2804 458.865 68.0954C458.932 67.9104 458.962 67.7138 458.955 67.5168C458.947 67.3198 458.902 67.1262 458.821 66.9471C458.74 66.7681 458.625 66.6071 458.483 66.4732C458.341 66.3394 458.174 66.2354 457.993 66.1672C457.811 66.0989 457.618 66.0678 457.425 66.0756C457.232 66.0833 457.042 66.1299 456.866 66.2124C456.691 66.295 456.533 66.412 456.402 66.5568L446.397 77.598C446.258 77.7507 446.153 77.9311 446.086 78.1277C446.02 78.3243 445.994 78.5328 446.011 78.7401C446.027 78.9473 446.086 79.1488 446.183 79.3317C446.28 79.5146 446.414 79.6749 446.575 79.8026L458.401 89.1744C458.659 89.3793 458.977 89.4905 459.304 89.4903Z" fill="#FFA6EB"/>
<path d="M508.429 147.261H477.091C476.654 147.261 476.236 147.085 475.928 146.77C475.619 146.456 475.446 146.03 475.446 145.585C475.446 145.14 475.619 144.714 475.928 144.399C476.236 144.085 476.654 143.908 477.091 143.908H508.429C508.866 143.908 509.284 144.085 509.592 144.399C509.901 144.714 510.074 145.14 510.074 145.585C510.074 146.03 509.901 146.456 509.592 146.77C509.284 147.085 508.866 147.261 508.429 147.261Z" fill="#FFA6EB"/>
<path d="M513.952 155.556C513.645 155.556 513.345 155.458 513.095 155.276C512.846 155.095 512.658 154.838 512.558 154.542C512.458 154.246 512.452 153.925 512.54 153.625C512.627 153.325 512.805 153.061 513.047 152.869L521.072 146.51C521.394 146.254 521.661 145.933 521.855 145.567C522.05 145.201 522.167 144.798 522.201 144.383C522.234 143.968 522.183 143.55 522.05 143.156C521.917 142.763 521.705 142.402 521.428 142.096L514.691 134.66C514.56 134.516 514.458 134.346 514.391 134.161C514.324 133.976 514.293 133.779 514.301 133.582C514.309 133.385 514.354 133.192 514.435 133.013C514.516 132.833 514.631 132.672 514.773 132.539C514.915 132.405 515.082 132.301 515.263 132.233C515.444 132.164 515.637 132.133 515.831 132.141C516.024 132.149 516.214 132.195 516.389 132.278C516.565 132.36 516.723 132.477 516.854 132.622L526.859 143.663C526.997 143.816 527.103 143.996 527.17 144.193C527.236 144.39 527.262 144.598 527.245 144.805C527.228 145.013 527.17 145.214 527.073 145.397C526.976 145.58 526.842 145.74 526.681 145.868L514.855 155.24C514.597 155.445 514.279 155.556 513.952 155.556Z" fill="#FFA6EB"/>
<path d="M459.304 155.556C459.611 155.556 459.91 155.458 460.16 155.276C460.41 155.095 460.598 154.838 460.698 154.542C460.798 154.246 460.804 153.925 460.716 153.625C460.629 153.325 460.451 153.061 460.209 152.869L452.184 146.51C451.862 146.254 451.595 145.933 451.401 145.567C451.206 145.201 451.088 144.798 451.055 144.383C451.021 143.968 451.073 143.55 451.206 143.156C451.339 142.763 451.551 142.402 451.828 142.096L458.565 134.66C458.83 134.368 458.97 133.98 458.955 133.582C458.939 133.184 458.77 132.809 458.483 132.539C458.196 132.268 457.815 132.125 457.425 132.141C457.035 132.157 456.667 132.33 456.402 132.622L446.397 143.663C446.258 143.816 446.153 143.996 446.086 144.193C446.02 144.39 445.994 144.598 446.011 144.805C446.027 145.013 446.086 145.214 446.183 145.397C446.28 145.58 446.414 145.74 446.575 145.868L458.401 155.24C458.659 155.445 458.977 155.556 459.304 155.556Z" fill="#FFA6EB"/>
<path d="M462.101 150.858L468.688 135.495C468.864 135.09 469.191 134.772 469.596 134.611C470.001 134.45 470.453 134.46 470.851 134.637C471.25 134.815 471.563 135.146 471.722 135.559C471.882 135.971 471.875 136.431 471.702 136.838L465.115 152.201C465.029 152.404 464.905 152.587 464.749 152.741C464.593 152.895 464.41 153.016 464.208 153.097C464.007 153.178 463.791 153.217 463.575 153.213C463.358 153.209 463.144 153.162 462.946 153.073C462.747 152.985 462.568 152.857 462.418 152.698C462.268 152.538 462.15 152.35 462.072 152.145C461.993 151.939 461.955 151.719 461.96 151.498C461.965 151.278 462.013 151.06 462.101 150.858Z" fill="#FFA6EB"/>
</g>
<defs>
<clipPath id="clip0_24_294">
<rect width="780" height="503" fill="white"/>
</clipPath>
</defs>
</svg>
